G04 Layer: TopLayer*
G04 EasyEDA v6.3.43, 2020-05-25T08:10:49+01:00*
G04 809d050b7b404b088306c213adac8bc8,fe6cc42eb16a44418a09de5ec01cb9e8,10*
G04 Gerber Generator version 0.2*
G04 Scale: 100 percent, Rotated: No, Reflected: No *
G04 Dimensions in millimeters *
G04 leading zeros omitted , absolute positions ,3 integer and 3 decimal *
%FSLAX33Y33*%
%MOMM*%
G90*
G71D02*

%ADD12C,2.499995*%
%ADD13C,3.999992*%
%ADD14C,1.999996*%
%ADD15R,1.999996X1.999996*%

%LPD*%

%LPD*%
G36*
G01X84825Y88635D02*
G01X84437Y88635D01*
G01X84386Y88525D01*
G01X84319Y88421D01*
G01X84234Y88325D01*
G01X84132Y88237D01*
G01X84025Y88157D01*
G01X83921Y88092D01*
G01X83822Y88040D01*
G01X83726Y88003D01*
G01X83726Y87566D01*
G01X83841Y87609D01*
G01X83953Y87659D01*
G01X84058Y87717D01*
G01X84159Y87781D01*
G01X84255Y87853D01*
G01X84345Y87932D01*
G01X84345Y86121D01*
G01X84825Y86121D01*
G01X84825Y88635D01*
G37*

%LPD*%
G36*
G01X80650Y88630D02*
G01X80530Y88635D01*
G01X80368Y88625D01*
G01X80220Y88592D01*
G01X80086Y88538D01*
G01X79966Y88463D01*
G01X79896Y88399D01*
G01X79836Y88322D01*
G01X79786Y88234D01*
G01X79747Y88133D01*
G01X79718Y88020D01*
G01X79700Y87894D01*
G01X80177Y87848D01*
G01X80209Y88027D01*
G01X80279Y88148D01*
G01X80383Y88216D01*
G01X80518Y88239D01*
G01X80654Y88217D01*
G01X80756Y88153D01*
G01X80821Y88047D01*
G01X80843Y87904D01*
G01X80818Y87759D01*
G01X80744Y87612D01*
G01X80691Y87545D01*
G01X80608Y87454D01*
G01X80493Y87339D01*
G01X80347Y87200D01*
G01X80220Y87080D01*
G01X80108Y86968D01*
G01X80010Y86863D01*
G01X79927Y86768D01*
G01X79860Y86680D01*
G01X79806Y86601D01*
G01X79744Y86486D01*
G01X79697Y86368D01*
G01X79662Y86246D01*
G01X79641Y86121D01*
G01X81325Y86121D01*
G01X81325Y86568D01*
G01X80373Y86568D01*
G01X80392Y86600D01*
G01X80415Y86633D01*
G01X80440Y86666D01*
G01X80469Y86700D01*
G01X80510Y86743D01*
G01X80572Y86803D01*
G01X80655Y86881D01*
G01X80759Y86977D01*
G01X80863Y87075D01*
G01X80950Y87161D01*
G01X81019Y87235D01*
G01X81071Y87297D01*
G01X81186Y87460D01*
G01X81264Y87617D01*
G01X81310Y87774D01*
G01X81325Y87939D01*
G01X81312Y88082D01*
G01X81272Y88212D01*
G01X81207Y88331D01*
G01X81114Y88437D01*
G01X81039Y88498D01*
G01X80955Y88547D01*
G01X80862Y88586D01*
G01X80760Y88613D01*
G01X80650Y88630D01*
G37*

%LPD*%
G36*
G01X75420Y86601D02*
G01X74940Y86601D01*
G01X74940Y86121D01*
G01X75420Y86121D01*
G01X75420Y86601D01*
G37*

%LPD*%
G36*
G01X74119Y88635D02*
G01X73731Y88635D01*
G01X73681Y88525D01*
G01X73614Y88421D01*
G01X73530Y88325D01*
G01X73428Y88237D01*
G01X73320Y88157D01*
G01X73216Y88092D01*
G01X73115Y88040D01*
G01X73019Y88003D01*
G01X73019Y87566D01*
G01X73136Y87609D01*
G01X73248Y87659D01*
G01X73354Y87717D01*
G01X73454Y87781D01*
G01X73549Y87853D01*
G01X73639Y87932D01*
G01X73639Y86121D01*
G01X74119Y86121D01*
G01X74119Y88635D01*
G37*

%LPD*%
G36*
G01X70954Y88625D02*
G01X70406Y88625D01*
G01X71302Y86121D01*
G01X71843Y86121D01*
G01X72740Y88625D01*
G01X72202Y88625D01*
G01X71589Y86771D01*
G01X70954Y88625D01*
G37*

%LPD*%
G36*
G01X86432Y88627D02*
G01X86309Y88635D01*
G01X86195Y88629D01*
G01X86089Y88609D01*
G01X85989Y88577D01*
G01X85897Y88533D01*
G01X85811Y88475D01*
G01X85732Y88404D01*
G01X85663Y88322D01*
G01X85607Y88232D01*
G01X85562Y88133D01*
G01X85531Y88027D01*
G01X85512Y87912D01*
G01X85506Y87790D01*
G01X85512Y87671D01*
G01X85530Y87561D01*
G01X85559Y87458D01*
G01X85601Y87363D01*
G01X85654Y87275D01*
G01X85719Y87195D01*
G01X85832Y87095D01*
G01X85955Y87023D01*
G01X86088Y86981D01*
G01X86230Y86967D01*
G01X86360Y86980D01*
G01X86479Y87019D01*
G01X86586Y87085D01*
G01X86682Y87177D01*
G01X86663Y86980D01*
G01X86635Y86819D01*
G01X86597Y86695D01*
G01X86550Y86608D01*
G01X86435Y86507D01*
G01X86296Y86474D01*
G01X86241Y86478D01*
G01X86191Y86491D01*
G01X86147Y86512D01*
G01X86108Y86542D01*
G01X86075Y86580D01*
G01X86049Y86627D01*
G01X86030Y86684D01*
G01X86019Y86751D01*
G01X85554Y86700D01*
G01X85588Y86555D01*
G01X85638Y86428D01*
G01X85703Y86321D01*
G01X85785Y86233D01*
G01X85883Y86165D01*
G01X85994Y86116D01*
G01X86120Y86087D01*
G01X86260Y86078D01*
G01X86393Y86086D01*
G01X86516Y86111D01*
G01X86631Y86153D01*
G01X86737Y86212D01*
G01X86834Y86287D01*
G01X86923Y86380D01*
G01X86983Y86462D01*
G01X87035Y86556D01*
G01X87078Y86662D01*
G01X87114Y86781D01*
G01X87142Y86911D01*
G01X87162Y87053D01*
G01X87173Y87207D01*
G01X87177Y87373D01*
G01X87174Y87536D01*
G01X87162Y87686D01*
G01X87143Y87825D01*
G01X87116Y87952D01*
G01X87082Y88066D01*
G01X87040Y88170D01*
G01X86991Y88261D01*
G01X86934Y88341D01*
G01X86849Y88431D01*
G01X86756Y88504D01*
G01X86656Y88562D01*
G01X86547Y88603D01*
G01X86432Y88627D01*
G37*

%LPC*%
G36*
G01X86417Y88207D02*
G01X86286Y88239D01*
G01X86164Y88212D01*
G01X86065Y88132D01*
G01X85998Y87995D01*
G01X85976Y87790D01*
G01X85982Y87676D01*
G01X86000Y87578D01*
G01X86030Y87496D01*
G01X86072Y87431D01*
G01X86181Y87348D01*
G01X86311Y87320D01*
G01X86440Y87347D01*
G01X86545Y87429D01*
G01X86618Y87563D01*
G01X86641Y87749D01*
G01X86635Y87859D01*
G01X86614Y87956D01*
G01X86580Y88039D01*
G01X86532Y88110D01*
G01X86417Y88207D01*
G37*

%LPD*%
G36*
G01X82578Y88628D02*
G01X82461Y88635D01*
G01X82344Y88628D01*
G01X82236Y88607D01*
G01X82138Y88571D01*
G01X82048Y88522D01*
G01X81966Y88457D01*
G01X81894Y88379D01*
G01X81836Y88295D01*
G01X81786Y88199D01*
G01X81744Y88090D01*
G01X81709Y87969D01*
G01X81682Y87836D01*
G01X81663Y87689D01*
G01X81652Y87531D01*
G01X81648Y87360D01*
G01X81651Y87188D01*
G01X81662Y87028D01*
G01X81679Y86883D01*
G01X81704Y86751D01*
G01X81735Y86632D01*
G01X81774Y86528D01*
G01X81819Y86437D01*
G01X81871Y86360D01*
G01X81950Y86273D01*
G01X82036Y86203D01*
G01X82130Y86148D01*
G01X82233Y86109D01*
G01X82343Y86085D01*
G01X82461Y86078D01*
G01X82578Y86085D01*
G01X82686Y86106D01*
G01X82786Y86142D01*
G01X82876Y86191D01*
G01X82957Y86256D01*
G01X83030Y86334D01*
G01X83087Y86418D01*
G01X83137Y86515D01*
G01X83180Y86624D01*
G01X83214Y86746D01*
G01X83241Y86879D01*
G01X83261Y87025D01*
G01X83272Y87184D01*
G01X83276Y87355D01*
G01X83272Y87527D01*
G01X83261Y87686D01*
G01X83242Y87833D01*
G01X83215Y87967D01*
G01X83181Y88089D01*
G01X83139Y88197D01*
G01X83090Y88293D01*
G01X83032Y88376D01*
G01X82959Y88456D01*
G01X82877Y88520D01*
G01X82786Y88570D01*
G01X82687Y88606D01*
G01X82578Y88628D01*
G37*

%LPC*%
G36*
G01X82504Y88236D02*
G01X82461Y88239D01*
G01X82418Y88236D01*
G01X82379Y88225D01*
G01X82341Y88208D01*
G01X82306Y88183D01*
G01X82274Y88150D01*
G01X82245Y88105D01*
G01X82221Y88050D01*
G01X82202Y87983D01*
G01X82179Y87874D01*
G01X82163Y87733D01*
G01X82154Y87560D01*
G01X82151Y87355D01*
G01X82154Y87152D01*
G01X82162Y86984D01*
G01X82177Y86850D01*
G01X82196Y86751D01*
G01X82246Y86613D01*
G01X82308Y86530D01*
G01X82343Y86506D01*
G01X82379Y86490D01*
G01X82419Y86480D01*
G01X82461Y86476D01*
G01X82504Y86480D01*
G01X82544Y86490D01*
G01X82583Y86508D01*
G01X82618Y86532D01*
G01X82650Y86566D01*
G01X82679Y86609D01*
G01X82702Y86665D01*
G01X82722Y86730D01*
G01X82745Y86839D01*
G01X82760Y86979D01*
G01X82770Y87151D01*
G01X82773Y87355D01*
G01X82770Y87559D01*
G01X82762Y87728D01*
G01X82747Y87862D01*
G01X82727Y87962D01*
G01X82678Y88100D01*
G01X82616Y88183D01*
G01X82581Y88208D01*
G01X82544Y88225D01*
G01X82504Y88236D01*
G37*

%LPD*%
G36*
G01X76738Y88628D02*
G01X76621Y88635D01*
G01X76504Y88628D01*
G01X76397Y88607D01*
G01X76298Y88571D01*
G01X76208Y88522D01*
G01X76127Y88457D01*
G01X76055Y88379D01*
G01X75997Y88295D01*
G01X75947Y88199D01*
G01X75905Y88090D01*
G01X75870Y87969D01*
G01X75843Y87836D01*
G01X75824Y87689D01*
G01X75812Y87531D01*
G01X75808Y87360D01*
G01X75812Y87188D01*
G01X75823Y87028D01*
G01X75840Y86883D01*
G01X75864Y86751D01*
G01X75896Y86632D01*
G01X75934Y86528D01*
G01X75980Y86437D01*
G01X76032Y86360D01*
G01X76110Y86273D01*
G01X76196Y86203D01*
G01X76291Y86148D01*
G01X76393Y86109D01*
G01X76503Y86085D01*
G01X76621Y86078D01*
G01X76738Y86085D01*
G01X76847Y86106D01*
G01X76946Y86142D01*
G01X77037Y86191D01*
G01X77118Y86256D01*
G01X77190Y86334D01*
G01X77248Y86418D01*
G01X77298Y86515D01*
G01X77340Y86624D01*
G01X77375Y86746D01*
G01X77402Y86879D01*
G01X77421Y87025D01*
G01X77432Y87184D01*
G01X77436Y87355D01*
G01X77432Y87527D01*
G01X77421Y87686D01*
G01X77402Y87833D01*
G01X77375Y87967D01*
G01X77340Y88089D01*
G01X77298Y88197D01*
G01X77248Y88293D01*
G01X77190Y88376D01*
G01X77118Y88456D01*
G01X77037Y88520D01*
G01X76946Y88570D01*
G01X76847Y88606D01*
G01X76738Y88628D01*
G37*

%LPC*%
G36*
G01X76664Y88236D02*
G01X76621Y88239D01*
G01X76579Y88236D01*
G01X76539Y88225D01*
G01X76502Y88208D01*
G01X76466Y88183D01*
G01X76434Y88150D01*
G01X76405Y88105D01*
G01X76380Y88050D01*
G01X76360Y87983D01*
G01X76338Y87874D01*
G01X76323Y87733D01*
G01X76314Y87560D01*
G01X76311Y87355D01*
G01X76314Y87152D01*
G01X76322Y86984D01*
G01X76336Y86850D01*
G01X76354Y86751D01*
G01X76406Y86613D01*
G01X76469Y86530D01*
G01X76503Y86506D01*
G01X76540Y86490D01*
G01X76579Y86480D01*
G01X76621Y86476D01*
G01X76664Y86480D01*
G01X76705Y86490D01*
G01X76743Y86508D01*
G01X76779Y86532D01*
G01X76811Y86566D01*
G01X76839Y86609D01*
G01X76863Y86665D01*
G01X76883Y86730D01*
G01X76905Y86839D01*
G01X76921Y86979D01*
G01X76931Y87151D01*
G01X76934Y87355D01*
G01X76931Y87559D01*
G01X76922Y87728D01*
G01X76908Y87862D01*
G01X76888Y87962D01*
G01X76839Y88100D01*
G01X76776Y88183D01*
G01X76742Y88208D01*
G01X76704Y88225D01*
G01X76664Y88236D01*
G37*

%LPD*%
G36*
G01X79573Y85740D02*
G01X77576Y85740D01*
G01X77576Y85430D01*
G01X79573Y85430D01*
G01X79573Y85740D01*
G37*

%LPD*%

%LPD*%
G36*
G01X49443Y55961D02*
G01X48379Y55961D01*
G01X48379Y53456D01*
G01X48884Y53456D01*
G01X48884Y54503D01*
G01X48986Y54503D01*
G01X49137Y54496D01*
G01X49240Y54475D01*
G01X49280Y54458D01*
G01X49319Y54435D01*
G01X49356Y54406D01*
G01X49392Y54371D01*
G01X49436Y54319D01*
G01X49494Y54241D01*
G01X49569Y54135D01*
G01X49659Y54002D01*
G01X50025Y53456D01*
G01X50629Y53456D01*
G01X50325Y53944D01*
G01X50239Y54079D01*
G01X50162Y54192D01*
G01X50094Y54283D01*
G01X50035Y54353D01*
G01X49914Y54462D01*
G01X49766Y54561D01*
G01X49921Y54594D01*
G01X50055Y54643D01*
G01X50168Y54710D01*
G01X50261Y54792D01*
G01X50333Y54891D01*
G01X50385Y55002D01*
G01X50416Y55125D01*
G01X50426Y55260D01*
G01X50420Y55367D01*
G01X50399Y55469D01*
G01X50365Y55564D01*
G01X50317Y55653D01*
G01X50257Y55733D01*
G01X50189Y55800D01*
G01X50112Y55854D01*
G01X50025Y55895D01*
G01X49921Y55924D01*
G01X49789Y55945D01*
G01X49630Y55957D01*
G01X49443Y55961D01*
G37*

%LPC*%
G36*
G01X49278Y55537D02*
G01X48884Y55537D01*
G01X48884Y54902D01*
G01X49258Y54902D01*
G01X49422Y54904D01*
G01X49553Y54909D01*
G01X49650Y54919D01*
G01X49712Y54932D01*
G01X49756Y54950D01*
G01X49794Y54974D01*
G01X49827Y55004D01*
G01X49855Y55039D01*
G01X49877Y55079D01*
G01X49893Y55124D01*
G01X49902Y55173D01*
G01X49905Y55227D01*
G01X49901Y55287D01*
G01X49888Y55341D01*
G01X49867Y55389D01*
G01X49837Y55430D01*
G01X49800Y55465D01*
G01X49756Y55494D01*
G01X49705Y55515D01*
G01X49646Y55529D01*
G01X49524Y55535D01*
G01X49278Y55537D01*
G37*

%LPD*%
G36*
G01X45372Y55961D02*
G01X43515Y55961D01*
G01X43515Y53456D01*
G01X45420Y53456D01*
G01X45420Y53878D01*
G01X44020Y53878D01*
G01X44020Y54561D01*
G01X45278Y54561D01*
G01X45278Y54983D01*
G01X44020Y54983D01*
G01X44020Y55537D01*
G01X45372Y55537D01*
G01X45372Y55961D01*
G37*

%LPD*%
G36*
G01X41894Y55940D02*
G01X41389Y55940D01*
G01X41389Y53456D01*
G01X43154Y53456D01*
G01X43154Y53878D01*
G01X41894Y53878D01*
G01X41894Y55940D01*
G37*

%LPD*%
G36*
G01X37193Y55961D02*
G01X36128Y55961D01*
G01X36128Y53456D01*
G01X36634Y53456D01*
G01X36634Y54503D01*
G01X36736Y54503D01*
G01X36886Y54496D01*
G01X36990Y54475D01*
G01X37030Y54458D01*
G01X37068Y54435D01*
G01X37106Y54406D01*
G01X37142Y54371D01*
G01X37186Y54319D01*
G01X37246Y54241D01*
G01X37320Y54135D01*
G01X37409Y54002D01*
G01X37774Y53456D01*
G01X38379Y53456D01*
G01X38074Y53944D01*
G01X37989Y54079D01*
G01X37912Y54192D01*
G01X37845Y54283D01*
G01X37787Y54353D01*
G01X37666Y54462D01*
G01X37515Y54561D01*
G01X37670Y54594D01*
G01X37804Y54643D01*
G01X37918Y54710D01*
G01X38011Y54792D01*
G01X38083Y54891D01*
G01X38135Y55002D01*
G01X38166Y55125D01*
G01X38176Y55260D01*
G01X38169Y55367D01*
G01X38148Y55469D01*
G01X38114Y55564D01*
G01X38066Y55653D01*
G01X38008Y55733D01*
G01X37939Y55800D01*
G01X37863Y55854D01*
G01X37777Y55895D01*
G01X37672Y55924D01*
G01X37539Y55945D01*
G01X37380Y55957D01*
G01X37193Y55961D01*
G37*

%LPC*%
G36*
G01X37028Y55537D02*
G01X36634Y55537D01*
G01X36634Y54902D01*
G01X37007Y54902D01*
G01X37173Y54904D01*
G01X37304Y54909D01*
G01X37400Y54919D01*
G01X37462Y54932D01*
G01X37505Y54950D01*
G01X37543Y54974D01*
G01X37576Y55004D01*
G01X37604Y55039D01*
G01X37627Y55079D01*
G01X37642Y55124D01*
G01X37652Y55173D01*
G01X37655Y55227D01*
G01X37651Y55287D01*
G01X37638Y55341D01*
G01X37618Y55389D01*
G01X37589Y55430D01*
G01X37551Y55465D01*
G01X37507Y55494D01*
G01X37456Y55515D01*
G01X37398Y55529D01*
G01X37274Y55535D01*
G01X37028Y55537D01*
G37*

%LPD*%
G36*
G01X35801Y55961D02*
G01X33809Y55961D01*
G01X33809Y55537D01*
G01X34551Y55537D01*
G01X34551Y53456D01*
G01X35057Y53456D01*
G01X35057Y55537D01*
G01X35801Y55537D01*
G01X35801Y55961D01*
G37*

%LPD*%
G36*
G01X31958Y55961D02*
G01X31465Y55961D01*
G01X31465Y53456D01*
G01X31935Y53456D01*
G01X31935Y55090D01*
G01X32946Y53456D01*
G01X33454Y53456D01*
G01X33454Y55961D01*
G01X32984Y55961D01*
G01X32984Y54289D01*
G01X31958Y55961D01*
G37*

%LPD*%
G36*
G01X46352Y55961D02*
G01X45844Y55961D01*
G01X45844Y54625D01*
G01X45845Y54491D01*
G01X45850Y54368D01*
G01X45857Y54256D01*
G01X45866Y54156D01*
G01X45879Y54067D01*
G01X45895Y53990D01*
G01X45947Y53848D01*
G01X46037Y53713D01*
G01X46163Y53591D01*
G01X46329Y53497D01*
G01X46433Y53460D01*
G01X46558Y53434D01*
G01X46705Y53418D01*
G01X46873Y53413D01*
G01X47015Y53418D01*
G01X47143Y53432D01*
G01X47257Y53456D01*
G01X47355Y53489D01*
G01X47521Y53579D01*
G01X47650Y53695D01*
G01X47744Y53837D01*
G01X47802Y54008D01*
G01X47814Y54078D01*
G01X47825Y54162D01*
G01X47833Y54261D01*
G01X47838Y54374D01*
G01X47842Y54502D01*
G01X47843Y54645D01*
G01X47843Y55961D01*
G01X47337Y55961D01*
G01X47337Y54576D01*
G01X47336Y54438D01*
G01X47332Y54321D01*
G01X47325Y54225D01*
G01X47315Y54150D01*
G01X47270Y54032D01*
G01X47183Y53934D01*
G01X47046Y53867D01*
G01X46857Y53845D01*
G01X46669Y53868D01*
G01X46525Y53939D01*
G01X46425Y54048D01*
G01X46370Y54185D01*
G01X46362Y54248D01*
G01X46357Y54338D01*
G01X46353Y54457D01*
G01X46352Y54604D01*
G01X46352Y55961D01*
G37*

%LPD*%
G36*
G01X39898Y55999D02*
G01X39763Y56004D01*
G01X39614Y55998D01*
G01X39474Y55979D01*
G01X39344Y55948D01*
G01X39222Y55905D01*
G01X39136Y55863D01*
G01X39054Y55811D01*
G01X38975Y55750D01*
G01X38900Y55679D01*
G01X38829Y55600D01*
G01X38766Y55517D01*
G01X38712Y55429D01*
G01X38666Y55336D01*
G01X38631Y55246D01*
G01X38602Y55150D01*
G01X38580Y55046D01*
G01X38564Y54935D01*
G01X38555Y54818D01*
G01X38552Y54693D01*
G01X38557Y54548D01*
G01X38572Y54411D01*
G01X38598Y54281D01*
G01X38634Y54160D01*
G01X38681Y54047D01*
G01X38738Y53941D01*
G01X38805Y53843D01*
G01X38882Y53754D01*
G01X38967Y53674D01*
G01X39060Y53605D01*
G01X39160Y53546D01*
G01X39267Y53499D01*
G01X39382Y53461D01*
G01X39503Y53434D01*
G01X39632Y53419D01*
G01X39768Y53413D01*
G01X39903Y53419D01*
G01X40031Y53434D01*
G01X40152Y53461D01*
G01X40266Y53499D01*
G01X40373Y53547D01*
G01X40473Y53606D01*
G01X40566Y53676D01*
G01X40652Y53756D01*
G01X40729Y53846D01*
G01X40796Y53944D01*
G01X40853Y54050D01*
G01X40900Y54165D01*
G01X40936Y54288D01*
G01X40962Y54419D01*
G01X40977Y54558D01*
G01X40982Y54706D01*
G01X40977Y54855D01*
G01X40962Y54995D01*
G01X40936Y55127D01*
G01X40899Y55251D01*
G01X40852Y55366D01*
G01X40795Y55473D01*
G01X40727Y55571D01*
G01X40650Y55661D01*
G01X40563Y55741D01*
G01X40469Y55811D01*
G01X40369Y55870D01*
G01X40262Y55918D01*
G01X40147Y55956D01*
G01X40026Y55983D01*
G01X39898Y55999D01*
G37*

%LPC*%
G36*
G01X39917Y55559D02*
G01X39768Y55572D01*
G01X39619Y55559D01*
G01X39486Y55519D01*
G01X39367Y55452D01*
G01X39263Y55359D01*
G01X39204Y55281D01*
G01X39157Y55191D01*
G01X39120Y55089D01*
G01X39094Y54975D01*
G01X39077Y54849D01*
G01X39072Y54711D01*
G01X39078Y54574D01*
G01X39094Y54450D01*
G01X39121Y54337D01*
G01X39159Y54235D01*
G01X39208Y54145D01*
G01X39268Y54066D01*
G01X39374Y53969D01*
G01X39492Y53900D01*
G01X39624Y53859D01*
G01X39768Y53845D01*
G01X39913Y53859D01*
G01X40043Y53900D01*
G01X40160Y53968D01*
G01X40264Y54063D01*
G01X40324Y54142D01*
G01X40372Y54233D01*
G01X40410Y54337D01*
G01X40437Y54452D01*
G01X40454Y54579D01*
G01X40459Y54719D01*
G01X40454Y54856D01*
G01X40438Y54981D01*
G01X40411Y55094D01*
G01X40374Y55195D01*
G01X40327Y55284D01*
G01X40269Y55361D01*
G01X40167Y55454D01*
G01X40050Y55519D01*
G01X39917Y55559D01*
G37*

%LPD*%
G36*
G01X29982Y55999D02*
G01X29847Y56004D01*
G01X29699Y55998D01*
G01X29560Y55979D01*
G01X29428Y55948D01*
G01X29306Y55905D01*
G01X29220Y55863D01*
G01X29138Y55811D01*
G01X29059Y55750D01*
G01X28983Y55679D01*
G01X28913Y55600D01*
G01X28851Y55517D01*
G01X28796Y55429D01*
G01X28750Y55336D01*
G01X28715Y55246D01*
G01X28686Y55150D01*
G01X28664Y55046D01*
G01X28648Y54935D01*
G01X28639Y54818D01*
G01X28635Y54693D01*
G01X28641Y54548D01*
G01X28656Y54411D01*
G01X28682Y54281D01*
G01X28718Y54160D01*
G01X28764Y54047D01*
G01X28821Y53941D01*
G01X28888Y53843D01*
G01X28966Y53754D01*
G01X29052Y53674D01*
G01X29145Y53605D01*
G01X29246Y53546D01*
G01X29353Y53499D01*
G01X29468Y53461D01*
G01X29589Y53434D01*
G01X29719Y53419D01*
G01X29855Y53413D01*
G01X29989Y53419D01*
G01X30116Y53434D01*
G01X30237Y53461D01*
G01X30350Y53499D01*
G01X30457Y53547D01*
G01X30557Y53606D01*
G01X30650Y53676D01*
G01X30736Y53756D01*
G01X30813Y53846D01*
G01X30880Y53944D01*
G01X30937Y54050D01*
G01X30983Y54165D01*
G01X31020Y54288D01*
G01X31045Y54419D01*
G01X31061Y54558D01*
G01X31066Y54706D01*
G01X31061Y54855D01*
G01X31045Y54995D01*
G01X31020Y55127D01*
G01X30983Y55251D01*
G01X30936Y55366D01*
G01X30879Y55473D01*
G01X30811Y55571D01*
G01X30734Y55661D01*
G01X30647Y55741D01*
G01X30553Y55811D01*
G01X30453Y55870D01*
G01X30345Y55918D01*
G01X30231Y55956D01*
G01X30110Y55983D01*
G01X29982Y55999D01*
G37*

%LPC*%
G36*
G01X30000Y55559D02*
G01X29852Y55572D01*
G01X29703Y55559D01*
G01X29570Y55519D01*
G01X29452Y55452D01*
G01X29349Y55359D01*
G01X29290Y55281D01*
G01X29242Y55191D01*
G01X29204Y55089D01*
G01X29177Y54975D01*
G01X29162Y54849D01*
G01X29156Y54711D01*
G01X29162Y54574D01*
G01X29178Y54450D01*
G01X29205Y54337D01*
G01X29244Y54235D01*
G01X29294Y54145D01*
G01X29354Y54066D01*
G01X29459Y53969D01*
G01X29576Y53900D01*
G01X29708Y53859D01*
G01X29852Y53845D01*
G01X29996Y53859D01*
G01X30127Y53900D01*
G01X30245Y53968D01*
G01X30350Y54063D01*
G01X30409Y54142D01*
G01X30457Y54233D01*
G01X30495Y54337D01*
G01X30522Y54452D01*
G01X30537Y54579D01*
G01X30543Y54719D01*
G01X30538Y54856D01*
G01X30522Y54981D01*
G01X30496Y55094D01*
G01X30460Y55195D01*
G01X30412Y55284D01*
G01X30355Y55361D01*
G01X30252Y55454D01*
G01X30134Y55519D01*
G01X30000Y55559D01*
G37*

%LPD*%
G36*
G01X27443Y55996D02*
G01X27294Y56004D01*
G01X27166Y55998D01*
G01X27044Y55983D01*
G01X26928Y55955D01*
G01X26819Y55918D01*
G01X26715Y55869D01*
G01X26619Y55810D01*
G01X26528Y55739D01*
G01X26443Y55659D01*
G01X26368Y55568D01*
G01X26302Y55468D01*
G01X26247Y55360D01*
G01X26202Y55242D01*
G01X26166Y55116D01*
G01X26141Y54982D01*
G01X26126Y54838D01*
G01X26121Y54686D01*
G01X26126Y54542D01*
G01X26141Y54406D01*
G01X26166Y54278D01*
G01X26202Y54158D01*
G01X26247Y54046D01*
G01X26302Y53940D01*
G01X26368Y53843D01*
G01X26443Y53754D01*
G01X26526Y53674D01*
G01X26615Y53605D01*
G01X26709Y53546D01*
G01X26809Y53499D01*
G01X26914Y53461D01*
G01X27025Y53434D01*
G01X27141Y53419D01*
G01X27264Y53413D01*
G01X27394Y53419D01*
G01X27517Y53436D01*
G01X27632Y53463D01*
G01X27739Y53503D01*
G01X27838Y53552D01*
G01X27929Y53614D01*
G01X28012Y53686D01*
G01X28087Y53769D01*
G01X28153Y53865D01*
G01X28212Y53971D01*
G01X28261Y54090D01*
G01X28303Y54221D01*
G01X27813Y54378D01*
G01X27775Y54249D01*
G01X27729Y54139D01*
G01X27671Y54047D01*
G01X27604Y53975D01*
G01X27529Y53918D01*
G01X27445Y53877D01*
G01X27356Y53853D01*
G01X27259Y53845D01*
G01X27128Y53858D01*
G01X27010Y53896D01*
G01X26906Y53959D01*
G01X26814Y54048D01*
G01X26761Y54123D01*
G01X26718Y54212D01*
G01X26685Y54317D01*
G01X26661Y54438D01*
G01X26646Y54573D01*
G01X26642Y54724D01*
G01X26647Y54867D01*
G01X26661Y54996D01*
G01X26685Y55110D01*
G01X26719Y55211D01*
G01X26763Y55298D01*
G01X26817Y55372D01*
G01X26910Y55459D01*
G01X27016Y55522D01*
G01X27136Y55559D01*
G01X27269Y55572D01*
G01X27365Y55565D01*
G01X27455Y55544D01*
G01X27537Y55509D01*
G01X27612Y55460D01*
G01X27676Y55398D01*
G01X27728Y55326D01*
G01X27768Y55243D01*
G01X27797Y55151D01*
G01X28298Y55272D01*
G01X28249Y55414D01*
G01X28190Y55537D01*
G01X28121Y55643D01*
G01X28041Y55732D01*
G01X27941Y55815D01*
G01X27831Y55883D01*
G01X27711Y55936D01*
G01X27582Y55974D01*
G01X27443Y55996D01*
G37*

%LPD*%

%LPD*%
G36*
G01X47769Y52778D02*
G01X46705Y52778D01*
G01X46705Y50274D01*
G01X47210Y50274D01*
G01X47210Y51320D01*
G01X47312Y51320D01*
G01X47464Y51313D01*
G01X47569Y51292D01*
G01X47608Y51275D01*
G01X47646Y51252D01*
G01X47684Y51223D01*
G01X47721Y51188D01*
G01X47764Y51136D01*
G01X47823Y51058D01*
G01X47898Y50952D01*
G01X47988Y50820D01*
G01X48353Y50274D01*
G01X48958Y50274D01*
G01X48651Y50761D01*
G01X48565Y50897D01*
G01X48489Y51010D01*
G01X48422Y51101D01*
G01X48364Y51170D01*
G01X48242Y51280D01*
G01X48092Y51379D01*
G01X48247Y51411D01*
G01X48381Y51460D01*
G01X48494Y51527D01*
G01X48587Y51610D01*
G01X48660Y51708D01*
G01X48713Y51819D01*
G01X48744Y51942D01*
G01X48755Y52077D01*
G01X48748Y52185D01*
G01X48727Y52286D01*
G01X48693Y52381D01*
G01X48646Y52471D01*
G01X48586Y52551D01*
G01X48518Y52618D01*
G01X48440Y52671D01*
G01X48353Y52712D01*
G01X48248Y52741D01*
G01X48116Y52761D01*
G01X47956Y52774D01*
G01X47769Y52778D01*
G37*

%LPC*%
G36*
G01X47607Y52354D02*
G01X47210Y52354D01*
G01X47210Y51719D01*
G01X47584Y51719D01*
G01X47749Y51721D01*
G01X47881Y51727D01*
G01X47977Y51736D01*
G01X48039Y51749D01*
G01X48082Y51768D01*
G01X48120Y51791D01*
G01X48153Y51821D01*
G01X48181Y51856D01*
G01X48203Y51896D01*
G01X48219Y51941D01*
G01X48229Y51990D01*
G01X48232Y52044D01*
G01X48227Y52105D01*
G01X48215Y52158D01*
G01X48194Y52206D01*
G01X48166Y52247D01*
G01X48128Y52283D01*
G01X48084Y52311D01*
G01X48032Y52333D01*
G01X47975Y52346D01*
G01X47853Y52352D01*
G01X47607Y52354D01*
G37*

%LPD*%
G36*
G01X43698Y52778D02*
G01X41841Y52778D01*
G01X41841Y50274D01*
G01X43746Y50274D01*
G01X43746Y50695D01*
G01X42346Y50695D01*
G01X42346Y51379D01*
G01X43604Y51379D01*
G01X43604Y51800D01*
G01X42346Y51800D01*
G01X42346Y52354D01*
G01X43698Y52354D01*
G01X43698Y52778D01*
G37*

%LPD*%
G36*
G01X41516Y52778D02*
G01X39524Y52778D01*
G01X39524Y52354D01*
G01X40266Y52354D01*
G01X40266Y50274D01*
G01X40774Y50274D01*
G01X40774Y52354D01*
G01X41516Y52354D01*
G01X41516Y52778D01*
G37*

%LPD*%
G36*
G01X38691Y52778D02*
G01X38155Y52778D01*
G01X37180Y50274D01*
G01X37719Y50274D01*
G01X37924Y50843D01*
G01X38925Y50843D01*
G01X39143Y50274D01*
G01X39695Y50274D01*
G01X38691Y52778D01*
G37*

%LPC*%
G36*
G01X38762Y51264D02*
G01X38417Y52194D01*
G01X38079Y51264D01*
G01X38762Y51264D01*
G37*

%LPD*%
G36*
G01X35910Y52778D02*
G01X34909Y52778D01*
G01X34909Y50274D01*
G01X35763Y50274D01*
G01X35982Y50276D01*
G01X36156Y50279D01*
G01X36286Y50285D01*
G01X36372Y50292D01*
G01X36558Y50331D01*
G01X36713Y50408D01*
G01X36835Y50521D01*
G01X36929Y50667D01*
G01X36987Y50832D01*
G01X37007Y51000D01*
G01X37000Y51105D01*
G01X36977Y51203D01*
G01X36939Y51294D01*
G01X36885Y51379D01*
G01X36817Y51453D01*
G01X36735Y51515D01*
G01X36640Y51566D01*
G01X36532Y51605D01*
G01X36678Y51697D01*
G01X36791Y51826D01*
G01X36862Y51980D01*
G01X36885Y52148D01*
G01X36866Y52303D01*
G01X36809Y52440D01*
G01X36721Y52559D01*
G01X36616Y52651D01*
G01X36492Y52717D01*
G01X36355Y52755D01*
G01X36272Y52765D01*
G01X36170Y52773D01*
G01X36049Y52777D01*
G01X35910Y52778D01*
G37*

%LPC*%
G36*
G01X35707Y52362D02*
G01X35415Y52362D01*
G01X35415Y51782D01*
G01X35747Y51782D01*
G01X35986Y51785D01*
G01X36113Y51790D01*
G01X36176Y51802D01*
G01X36231Y51822D01*
G01X36278Y51848D01*
G01X36319Y51882D01*
G01X36351Y51921D01*
G01X36374Y51967D01*
G01X36388Y52019D01*
G01X36393Y52077D01*
G01X36389Y52132D01*
G01X36377Y52182D01*
G01X36357Y52226D01*
G01X36329Y52265D01*
G01X36294Y52298D01*
G01X36250Y52324D01*
G01X36198Y52343D01*
G01X36139Y52354D01*
G01X36083Y52358D01*
G01X35992Y52360D01*
G01X35867Y52361D01*
G01X35707Y52362D01*
G37*
G36*
G01X35824Y51366D02*
G01X35415Y51366D01*
G01X35415Y50695D01*
G01X35885Y50695D01*
G01X36107Y50699D01*
G01X36230Y50711D01*
G01X36284Y50724D01*
G01X36334Y50746D01*
G01X36377Y50775D01*
G01X36415Y50812D01*
G01X36445Y50855D01*
G01X36467Y50904D01*
G01X36480Y50961D01*
G01X36484Y51023D01*
G01X36481Y51078D01*
G01X36471Y51128D01*
G01X36454Y51174D01*
G01X36431Y51216D01*
G01X36400Y51253D01*
G01X36363Y51284D01*
G01X36321Y51310D01*
G01X36273Y51330D01*
G01X36206Y51346D01*
G01X36109Y51357D01*
G01X35981Y51364D01*
G01X35824Y51366D01*
G37*

%LPD*%
G36*
G01X27823Y52778D02*
G01X27330Y52778D01*
G01X27330Y50274D01*
G01X27800Y50274D01*
G01X27800Y51907D01*
G01X28811Y50274D01*
G01X29319Y50274D01*
G01X29319Y52778D01*
G01X28849Y52778D01*
G01X28849Y51107D01*
G01X27823Y52778D01*
G37*

%LPD*%
G36*
G01X26842Y52778D02*
G01X26337Y52778D01*
G01X26337Y50274D01*
G01X26842Y50274D01*
G01X26842Y52778D01*
G37*

%LPD*%
G36*
G01X44678Y52778D02*
G01X44173Y52778D01*
G01X44173Y51442D01*
G01X44174Y51308D01*
G01X44178Y51185D01*
G01X44185Y51074D01*
G01X44194Y50974D01*
G01X44206Y50885D01*
G01X44221Y50807D01*
G01X44274Y50665D01*
G01X44363Y50530D01*
G01X44491Y50409D01*
G01X44658Y50314D01*
G01X44761Y50278D01*
G01X44886Y50251D01*
G01X45033Y50236D01*
G01X45201Y50231D01*
G01X45343Y50235D01*
G01X45471Y50249D01*
G01X45584Y50273D01*
G01X45684Y50307D01*
G01X45849Y50396D01*
G01X45979Y50512D01*
G01X46071Y50654D01*
G01X46128Y50825D01*
G01X46141Y50895D01*
G01X46151Y50979D01*
G01X46159Y51078D01*
G01X46165Y51192D01*
G01X46168Y51320D01*
G01X46169Y51462D01*
G01X46169Y52778D01*
G01X45664Y52778D01*
G01X45664Y51394D01*
G01X45662Y51256D01*
G01X45658Y51138D01*
G01X45651Y51042D01*
G01X45641Y50967D01*
G01X45598Y50850D01*
G01X45511Y50751D01*
G01X45375Y50685D01*
G01X45186Y50662D01*
G01X44996Y50686D01*
G01X44851Y50756D01*
G01X44751Y50865D01*
G01X44696Y51003D01*
G01X44688Y51065D01*
G01X44683Y51156D01*
G01X44679Y51274D01*
G01X44678Y51422D01*
G01X44678Y52778D01*
G37*

%LPD*%
G36*
G01X32882Y52778D02*
G01X32377Y52778D01*
G01X32377Y51442D01*
G01X32378Y51308D01*
G01X32382Y51185D01*
G01X32389Y51074D01*
G01X32398Y50974D01*
G01X32410Y50885D01*
G01X32425Y50807D01*
G01X32478Y50665D01*
G01X32567Y50530D01*
G01X32695Y50409D01*
G01X32862Y50314D01*
G01X32966Y50278D01*
G01X33091Y50251D01*
G01X33237Y50236D01*
G01X33406Y50231D01*
G01X33547Y50235D01*
G01X33675Y50249D01*
G01X33789Y50273D01*
G01X33888Y50307D01*
G01X34053Y50396D01*
G01X34183Y50512D01*
G01X34275Y50654D01*
G01X34333Y50825D01*
G01X34345Y50895D01*
G01X34355Y50979D01*
G01X34363Y51078D01*
G01X34369Y51192D01*
G01X34372Y51320D01*
G01X34373Y51462D01*
G01X34373Y52778D01*
G01X33868Y52778D01*
G01X33868Y51394D01*
G01X33866Y51256D01*
G01X33863Y51138D01*
G01X33856Y51042D01*
G01X33848Y50967D01*
G01X33803Y50850D01*
G01X33715Y50751D01*
G01X33579Y50685D01*
G01X33390Y50662D01*
G01X33201Y50686D01*
G01X33055Y50756D01*
G01X32956Y50865D01*
G01X32903Y51003D01*
G01X32894Y51065D01*
G01X32887Y51156D01*
G01X32883Y51274D01*
G01X32882Y51422D01*
G01X32882Y52778D01*
G37*

%LPD*%
G36*
G01X31085Y52814D02*
G01X30937Y52821D01*
G01X30808Y52816D01*
G01X30686Y52799D01*
G01X30570Y52773D01*
G01X30461Y52735D01*
G01X30358Y52686D01*
G01X30261Y52627D01*
G01X30170Y52557D01*
G01X30086Y52476D01*
G01X30010Y52385D01*
G01X29945Y52285D01*
G01X29889Y52177D01*
G01X29844Y52060D01*
G01X29808Y51934D01*
G01X29784Y51799D01*
G01X29768Y51655D01*
G01X29763Y51503D01*
G01X29768Y51360D01*
G01X29784Y51224D01*
G01X29808Y51096D01*
G01X29844Y50975D01*
G01X29889Y50862D01*
G01X29945Y50758D01*
G01X30010Y50660D01*
G01X30086Y50571D01*
G01X30169Y50491D01*
G01X30257Y50422D01*
G01X30351Y50364D01*
G01X30451Y50315D01*
G01X30556Y50278D01*
G01X30667Y50252D01*
G01X30784Y50236D01*
G01X30906Y50231D01*
G01X31036Y50236D01*
G01X31159Y50253D01*
G01X31273Y50281D01*
G01X31380Y50320D01*
G01X31480Y50370D01*
G01X31572Y50431D01*
G01X31655Y50503D01*
G01X31730Y50587D01*
G01X31796Y50682D01*
G01X31854Y50789D01*
G01X31903Y50908D01*
G01X31945Y51038D01*
G01X31455Y51196D01*
G01X31418Y51067D01*
G01X31371Y50956D01*
G01X31314Y50865D01*
G01X31247Y50792D01*
G01X31171Y50735D01*
G01X31088Y50695D01*
G01X30998Y50670D01*
G01X30901Y50662D01*
G01X30771Y50675D01*
G01X30653Y50713D01*
G01X30548Y50777D01*
G01X30457Y50866D01*
G01X30404Y50940D01*
G01X30361Y51030D01*
G01X30327Y51135D01*
G01X30303Y51255D01*
G01X30288Y51390D01*
G01X30284Y51541D01*
G01X30289Y51683D01*
G01X30303Y51812D01*
G01X30328Y51927D01*
G01X30362Y52028D01*
G01X30406Y52115D01*
G01X30459Y52189D01*
G01X30552Y52277D01*
G01X30658Y52339D01*
G01X30778Y52377D01*
G01X30911Y52390D01*
G01X31008Y52382D01*
G01X31097Y52362D01*
G01X31180Y52327D01*
G01X31254Y52278D01*
G01X31318Y52215D01*
G01X31371Y52143D01*
G01X31411Y52060D01*
G01X31440Y51968D01*
G01X31940Y52090D01*
G01X31892Y52231D01*
G01X31833Y52354D01*
G01X31763Y52461D01*
G01X31683Y52550D01*
G01X31583Y52632D01*
G01X31473Y52700D01*
G01X31353Y52753D01*
G01X31224Y52791D01*
G01X31085Y52814D01*
G37*

%LPD*%

%LPD*%
G36*
G01X45542Y23182D02*
G01X43268Y23182D01*
G01X43268Y22699D01*
G01X44117Y22699D01*
G01X44117Y20320D01*
G01X44696Y20320D01*
G01X44696Y22699D01*
G01X45542Y22699D01*
G01X45542Y23182D01*
G37*

%LPD*%
G36*
G01X41803Y23182D02*
G01X40586Y23182D01*
G01X40586Y20320D01*
G01X41163Y20320D01*
G01X41163Y21516D01*
G01X41282Y21516D01*
G01X41453Y21508D01*
G01X41572Y21483D01*
G01X41617Y21463D01*
G01X41661Y21437D01*
G01X41705Y21403D01*
G01X41747Y21363D01*
G01X41796Y21305D01*
G01X41863Y21215D01*
G01X41948Y21094D01*
G01X42049Y20942D01*
G01X42468Y20320D01*
G01X43159Y20320D01*
G01X42811Y20878D01*
G01X42713Y21032D01*
G01X42625Y21161D01*
G01X42548Y21264D01*
G01X42481Y21343D01*
G01X42416Y21407D01*
G01X42343Y21468D01*
G01X42261Y21528D01*
G01X42171Y21584D01*
G01X42292Y21607D01*
G01X42402Y21637D01*
G01X42502Y21677D01*
G01X42591Y21726D01*
G01X42669Y21783D01*
G01X42738Y21849D01*
G01X42821Y21960D01*
G01X42880Y22085D01*
G01X42916Y22226D01*
G01X42928Y22379D01*
G01X42920Y22503D01*
G01X42897Y22619D01*
G01X42858Y22729D01*
G01X42804Y22832D01*
G01X42735Y22923D01*
G01X42656Y22999D01*
G01X42567Y23060D01*
G01X42468Y23106D01*
G01X42393Y23129D01*
G01X42303Y23148D01*
G01X42199Y23163D01*
G01X42081Y23173D01*
G01X41949Y23180D01*
G01X41803Y23182D01*
G37*

%LPC*%
G36*
G01X41773Y22699D02*
G01X41163Y22699D01*
G01X41163Y21973D01*
G01X41592Y21973D01*
G01X41780Y21975D01*
G01X41930Y21981D01*
G01X42040Y21992D01*
G01X42110Y22006D01*
G01X42159Y22027D01*
G01X42203Y22054D01*
G01X42241Y22088D01*
G01X42273Y22128D01*
G01X42298Y22174D01*
G01X42316Y22225D01*
G01X42328Y22282D01*
G01X42331Y22344D01*
G01X42312Y22474D01*
G01X42255Y22578D01*
G01X42161Y22650D01*
G01X42037Y22689D01*
G01X41984Y22694D01*
G01X41895Y22697D01*
G01X41773Y22699D01*
G37*

%LPD*%
G36*
G01X39131Y23182D02*
G01X38519Y23182D01*
G01X37404Y20320D01*
G01X38018Y20320D01*
G01X38254Y20970D01*
G01X39397Y20970D01*
G01X39649Y20320D01*
G01X40276Y20320D01*
G01X39131Y23182D01*
G37*

%LPC*%
G36*
G01X39212Y21452D02*
G01X38818Y22514D01*
G01X38432Y21452D01*
G01X39212Y21452D01*
G37*

%LPD*%
G36*
G01X35659Y23182D02*
G01X35031Y23182D01*
G01X36055Y20320D01*
G01X36672Y20320D01*
G01X37698Y23182D01*
G01X37084Y23182D01*
G01X36382Y21064D01*
G01X35659Y23182D01*
G37*

%LPD*%
G36*
G01X34780Y23182D02*
G01X32656Y23182D01*
G01X32656Y20320D01*
G01X34833Y20320D01*
G01X34833Y20802D01*
G01X33233Y20802D01*
G01X33233Y21582D01*
G01X34671Y21582D01*
G01X34671Y22064D01*
G01X33233Y22064D01*
G01X33233Y22699D01*
G01X34780Y22699D01*
G01X34780Y23182D01*
G37*

%LPD*%
G36*
G01X30822Y23182D02*
G01X29766Y23182D01*
G01X29766Y20320D01*
G01X30853Y20320D01*
G01X31005Y20323D01*
G01X31141Y20335D01*
G01X31261Y20354D01*
G01X31366Y20380D01*
G01X31487Y20425D01*
G01X31595Y20478D01*
G01X31690Y20539D01*
G01X31772Y20609D01*
G01X31866Y20713D01*
G01X31948Y20832D01*
G01X32018Y20966D01*
G01X32077Y21115D01*
G01X32116Y21249D01*
G01X32144Y21395D01*
G01X32160Y21553D01*
G01X32166Y21724D01*
G01X32164Y21854D01*
G01X32155Y21978D01*
G01X32143Y22093D01*
G01X32124Y22203D01*
G01X32101Y22305D01*
G01X32072Y22400D01*
G01X32020Y22532D01*
G01X31957Y22653D01*
G01X31883Y22764D01*
G01X31798Y22865D01*
G01X31704Y22952D01*
G01X31601Y23026D01*
G01X31488Y23085D01*
G01X31366Y23129D01*
G01X31262Y23152D01*
G01X31137Y23169D01*
G01X30991Y23179D01*
G01X30822Y23182D01*
G37*

%LPC*%
G36*
G01X30604Y22699D02*
G01X30342Y22699D01*
G01X30342Y20802D01*
G01X30774Y20802D01*
G01X30984Y20809D01*
G01X31125Y20830D01*
G01X31253Y20878D01*
G01X31358Y20949D01*
G01X31442Y21060D01*
G01X31508Y21224D01*
G01X31535Y21329D01*
G01X31554Y21452D01*
G01X31566Y21592D01*
G01X31569Y21750D01*
G01X31566Y21906D01*
G01X31554Y22044D01*
G01X31535Y22162D01*
G01X31508Y22260D01*
G01X31439Y22418D01*
G01X31346Y22537D01*
G01X31226Y22620D01*
G01X31079Y22672D01*
G01X31004Y22684D01*
G01X30899Y22692D01*
G01X30766Y22698D01*
G01X30604Y22699D01*
G37*

%LPD*%
G36*
G01X47049Y23227D02*
G01X46918Y23230D01*
G01X46759Y23224D01*
G01X46613Y23205D01*
G01X46477Y23174D01*
G01X46355Y23131D01*
G01X46244Y23076D01*
G01X46148Y23009D01*
G01X46065Y22931D01*
G01X45996Y22842D01*
G01X45942Y22745D01*
G01X45903Y22644D01*
G01X45880Y22540D01*
G01X45872Y22433D01*
G01X45879Y22322D01*
G01X45901Y22217D01*
G01X45938Y22118D01*
G01X45989Y22025D01*
G01X46055Y21938D01*
G01X46136Y21856D01*
G01X46206Y21802D01*
G01X46292Y21751D01*
G01X46393Y21702D01*
G01X46510Y21657D01*
G01X46642Y21614D01*
G01X46789Y21574D01*
G01X46953Y21532D01*
G01X47084Y21497D01*
G01X47184Y21469D01*
G01X47251Y21447D01*
G01X47320Y21420D01*
G01X47378Y21391D01*
G01X47424Y21359D01*
G01X47459Y21325D01*
G01X47486Y21288D01*
G01X47505Y21247D01*
G01X47517Y21201D01*
G01X47520Y21153D01*
G01X47485Y21003D01*
G01X47378Y20876D01*
G01X47298Y20823D01*
G01X47202Y20786D01*
G01X47088Y20764D01*
G01X46956Y20756D01*
G01X46831Y20765D01*
G01X46720Y20790D01*
G01X46622Y20832D01*
G01X46537Y20891D01*
G01X46466Y20966D01*
G01X46408Y21061D01*
G01X46364Y21173D01*
G01X46332Y21305D01*
G01X45770Y21252D01*
G01X45795Y21098D01*
G01X45833Y20957D01*
G01X45885Y20829D01*
G01X45949Y20713D01*
G01X46026Y20610D01*
G01X46116Y20520D01*
G01X46192Y20461D01*
G01X46277Y20410D01*
G01X46370Y20367D01*
G01X46471Y20332D01*
G01X46579Y20304D01*
G01X46695Y20284D01*
G01X46819Y20273D01*
G01X46951Y20269D01*
G01X47072Y20272D01*
G01X47187Y20280D01*
G01X47294Y20295D01*
G01X47394Y20315D01*
G01X47487Y20341D01*
G01X47574Y20373D01*
G01X47691Y20432D01*
G01X47795Y20505D01*
G01X47884Y20592D01*
G01X47960Y20693D01*
G01X48020Y20802D01*
G01X48063Y20914D01*
G01X48088Y21032D01*
G01X48097Y21153D01*
G01X48090Y21283D01*
G01X48068Y21403D01*
G01X48032Y21512D01*
G01X47983Y21610D01*
G01X47920Y21697D01*
G01X47847Y21775D01*
G01X47763Y21842D01*
G01X47668Y21899D01*
G01X47594Y21935D01*
G01X47508Y21970D01*
G01X47410Y22005D01*
G01X47300Y22040D01*
G01X47177Y22074D01*
G01X47043Y22108D01*
G01X46851Y22157D01*
G01X46699Y22205D01*
G01X46586Y22252D01*
G01X46512Y22298D01*
G01X46474Y22336D01*
G01X46447Y22377D01*
G01X46431Y22422D01*
G01X46426Y22471D01*
G01X46431Y22524D01*
G01X46448Y22571D01*
G01X46477Y22613D01*
G01X46517Y22649D01*
G01X46595Y22694D01*
G01X46687Y22727D01*
G01X46792Y22746D01*
G01X46911Y22753D01*
G01X47026Y22747D01*
G01X47126Y22728D01*
G01X47210Y22698D01*
G01X47279Y22656D01*
G01X47380Y22529D01*
G01X47437Y22339D01*
G01X48016Y22364D01*
G01X48003Y22491D01*
G01X47977Y22609D01*
G01X47936Y22718D01*
G01X47882Y22819D01*
G01X47812Y22911D01*
G01X47729Y22994D01*
G01X47657Y23049D01*
G01X47576Y23097D01*
G01X47487Y23138D01*
G01X47390Y23171D01*
G01X47285Y23197D01*
G01X47171Y23216D01*
G01X47049Y23227D01*
G37*

%LPD*%

%LPD*%
G36*
G01X82679Y5405D02*
G01X82232Y5405D01*
G01X82175Y5278D01*
G01X82098Y5159D01*
G01X82002Y5050D01*
G01X81887Y4947D01*
G01X81763Y4856D01*
G01X81644Y4782D01*
G01X81529Y4723D01*
G01X81419Y4681D01*
G01X81419Y4183D01*
G01X81552Y4232D01*
G01X81680Y4289D01*
G01X81801Y4354D01*
G01X81917Y4427D01*
G01X82027Y4508D01*
G01X82130Y4597D01*
G01X82130Y2529D01*
G01X82679Y2529D01*
G01X82679Y5405D01*
G37*

%LPD*%
G36*
G01X78920Y5392D02*
G01X78054Y5392D01*
G01X78054Y2529D01*
G01X78592Y2529D01*
G01X78592Y4782D01*
G01X79159Y2529D01*
G01X79715Y2529D01*
G01X80284Y4782D01*
G01X80284Y2529D01*
G01X80820Y2529D01*
G01X80820Y5392D01*
G01X79954Y5392D01*
G01X79441Y3439D01*
G01X78920Y5392D01*
G37*

%LPD*%

%LPD*%
G36*
G01X2952Y65448D02*
G01X2819Y65455D01*
G01X2686Y65448D01*
G01X2562Y65426D01*
G01X2446Y65389D01*
G01X2337Y65338D01*
G01X2236Y65272D01*
G01X2143Y65191D01*
G01X2061Y65099D01*
G01X1994Y64999D01*
G01X1942Y64890D01*
G01X1904Y64774D01*
G01X1882Y64649D01*
G01X1874Y64516D01*
G01X1882Y64385D01*
G01X1904Y64262D01*
G01X1941Y64144D01*
G01X1993Y64033D01*
G01X2058Y63931D01*
G01X2137Y63842D01*
G01X2229Y63765D01*
G01X2334Y63700D01*
G01X2447Y63648D01*
G01X2562Y63611D01*
G01X2679Y63588D01*
G01X2799Y63581D01*
G01X2949Y63588D01*
G01X3088Y63611D01*
G01X3214Y63648D01*
G01X3329Y63700D01*
G01X3431Y63765D01*
G01X3520Y63844D01*
G01X3596Y63937D01*
G01X3660Y64043D01*
G01X3708Y64158D01*
G01X3743Y64276D01*
G01X3764Y64397D01*
G01X3771Y64521D01*
G01X3764Y64651D01*
G01X3741Y64773D01*
G01X3703Y64888D01*
G01X3650Y64996D01*
G01X3582Y65096D01*
G01X3500Y65189D01*
G01X3406Y65270D01*
G01X3305Y65337D01*
G01X3195Y65389D01*
G01X3077Y65426D01*
G01X2952Y65448D01*
G37*

%LPC*%
G36*
G01X2948Y64952D02*
G01X2819Y64960D01*
G01X2693Y64952D01*
G01X2583Y64929D01*
G01X2489Y64888D01*
G01X2410Y64833D01*
G01X2301Y64691D01*
G01X2265Y64518D01*
G01X2274Y64428D01*
G01X2301Y64345D01*
G01X2346Y64269D01*
G01X2410Y64201D01*
G01X2489Y64145D01*
G01X2585Y64106D01*
G01X2696Y64082D01*
G01X2824Y64074D01*
G01X2951Y64082D01*
G01X3062Y64106D01*
G01X3158Y64145D01*
G01X3238Y64201D01*
G01X3345Y64345D01*
G01X3380Y64518D01*
G01X3345Y64691D01*
G01X3238Y64833D01*
G01X3158Y64888D01*
G01X3061Y64929D01*
G01X2948Y64952D01*
G37*

%LPD*%
G36*
G01X3731Y63200D02*
G01X1915Y63200D01*
G01X1915Y62720D01*
G01X3731Y62720D01*
G01X3731Y63200D01*
G37*

%LPD*%
G36*
G01X1671Y63200D02*
G01X1226Y63200D01*
G01X1226Y62720D01*
G01X1671Y62720D01*
G01X1671Y63200D01*
G37*

%LPD*%
G36*
G01X3731Y62227D02*
G01X3251Y62227D01*
G01X3251Y61747D01*
G01X3731Y61747D01*
G01X3731Y62227D01*
G37*

%LPD*%
G36*
G01X3284Y61315D02*
G01X3164Y61328D01*
G01X3055Y61318D01*
G01X2959Y61290D01*
G01X2876Y61242D01*
G01X2806Y61175D01*
G01X2745Y61086D01*
G01X2689Y60967D01*
G01X2639Y60819D01*
G01X2593Y60642D01*
G01X2552Y60469D01*
G01X2516Y60337D01*
G01X2485Y60244D01*
G01X2458Y60192D01*
G01X2439Y60171D01*
G01X2418Y60156D01*
G01X2395Y60147D01*
G01X2369Y60144D01*
G01X2341Y60148D01*
G01X2316Y60158D01*
G01X2293Y60176D01*
G01X2273Y60200D01*
G01X2233Y60309D01*
G01X2219Y60472D01*
G01X2223Y60542D01*
G01X2234Y60604D01*
G01X2251Y60658D01*
G01X2275Y60703D01*
G01X2307Y60740D01*
G01X2345Y60771D01*
G01X2389Y60795D01*
G01X2438Y60812D01*
G01X2354Y61264D01*
G01X2243Y61224D01*
G01X2146Y61169D01*
G01X2064Y61100D01*
G01X1996Y61015D01*
G01X1943Y60913D01*
G01X1905Y60787D01*
G01X1882Y60636D01*
G01X1874Y60462D01*
G01X1879Y60337D01*
G01X1892Y60224D01*
G01X1915Y60122D01*
G01X1946Y60031D01*
G01X1987Y59953D01*
G01X2037Y59885D01*
G01X2121Y59803D01*
G01X2216Y59744D01*
G01X2320Y59709D01*
G01X2433Y59697D01*
G01X2556Y59711D01*
G01X2665Y59751D01*
G01X2759Y59819D01*
G01X2839Y59913D01*
G01X2875Y59977D01*
G01X2913Y60064D01*
G01X2951Y60175D01*
G01X2992Y60309D01*
G01X3033Y60468D01*
G01X3075Y60650D01*
G01X3090Y60707D01*
G01X3105Y60752D01*
G01X3122Y60786D01*
G01X3139Y60810D01*
G01X3158Y60825D01*
G01X3179Y60837D01*
G01X3202Y60843D01*
G01X3228Y60845D01*
G01X3266Y60841D01*
G01X3301Y60829D01*
G01X3331Y60810D01*
G01X3357Y60782D01*
G01X3409Y60665D01*
G01X3426Y60502D01*
G01X3408Y60351D01*
G01X3352Y60238D01*
G01X3262Y60160D01*
G01X3139Y60114D01*
G01X3213Y59631D01*
G01X3336Y59674D01*
G01X3444Y59735D01*
G01X3540Y59816D01*
G01X3622Y59916D01*
G01X3687Y60033D01*
G01X3734Y60170D01*
G01X3762Y60327D01*
G01X3771Y60502D01*
G01X3766Y60633D01*
G01X3752Y60753D01*
G01X3726Y60861D01*
G01X3691Y60958D01*
G01X3646Y61044D01*
G01X3591Y61120D01*
G01X3498Y61210D01*
G01X3395Y61276D01*
G01X3284Y61315D01*
G37*

%LPD*%
G36*
G01X3731Y59420D02*
G01X3700Y59507D01*
G01X3327Y59466D01*
G01X3347Y59407D01*
G01X3361Y59354D01*
G01X3370Y59310D01*
G01X3373Y59273D01*
G01X3371Y59250D01*
G01X3367Y59229D01*
G01X3360Y59209D01*
G01X3350Y59192D01*
G01X3338Y59176D01*
G01X3323Y59164D01*
G01X3307Y59155D01*
G01X3289Y59148D01*
G01X3207Y59141D01*
G01X3030Y59138D01*
G01X2298Y59138D01*
G01X2298Y59469D01*
G01X1915Y59469D01*
G01X1915Y59138D01*
G01X1275Y59138D01*
G01X1554Y58658D01*
G01X1915Y58658D01*
G01X1915Y58437D01*
G01X2298Y58437D01*
G01X2298Y58658D01*
G01X3091Y58658D01*
G01X3302Y58662D01*
G01X3429Y58674D01*
G01X3484Y58684D01*
G01X3534Y58699D01*
G01X3578Y58717D01*
G01X3616Y58740D01*
G01X3649Y58768D01*
G01X3679Y58804D01*
G01X3705Y58846D01*
G01X3728Y58894D01*
G01X3747Y58948D01*
G01X3761Y59005D01*
G01X3769Y59065D01*
G01X3771Y59128D01*
G01X3767Y59231D01*
G01X3754Y59328D01*
G01X3731Y59420D01*
G37*

%LPD*%
G36*
G01X2385Y58280D02*
G01X1965Y58430D01*
G01X1897Y58274D01*
G01X1874Y58112D01*
G01X1878Y58055D01*
G01X1889Y58002D01*
G01X1907Y57951D01*
G01X1932Y57904D01*
G01X2022Y57807D01*
G01X2174Y57698D01*
G01X1915Y57698D01*
G01X1915Y57254D01*
G01X3731Y57254D01*
G01X3731Y57734D01*
G01X3169Y57734D01*
G01X2958Y57736D01*
G01X2786Y57744D01*
G01X2655Y57757D01*
G01X2562Y57774D01*
G01X2495Y57796D01*
G01X2440Y57821D01*
G01X2395Y57850D01*
G01X2362Y57884D01*
G01X2337Y57921D01*
G01X2320Y57962D01*
G01X2309Y58006D01*
G01X2306Y58054D01*
G01X2311Y58107D01*
G01X2326Y58162D01*
G01X2350Y58220D01*
G01X2385Y58280D01*
G37*

%LPD*%
G36*
G01X3731Y56428D02*
G01X3731Y56903D01*
G01X3605Y56851D01*
G01X3487Y56817D01*
G01X3342Y56799D01*
G01X3134Y56794D01*
G01X2573Y56799D01*
G01X2429Y56795D01*
G01X2309Y56783D01*
G01X2214Y56763D01*
G01X2143Y56735D01*
G01X2037Y56649D01*
G01X1950Y56515D01*
G01X1917Y56426D01*
G01X1893Y56316D01*
G01X1879Y56187D01*
G01X1874Y56037D01*
G01X1882Y55870D01*
G01X1906Y55726D01*
G01X1946Y55604D01*
G01X2001Y55504D01*
G01X2073Y55420D01*
G01X2162Y55350D01*
G01X2267Y55293D01*
G01X2390Y55250D01*
G01X2468Y55686D01*
G01X2411Y55710D01*
G01X2362Y55737D01*
G01X2323Y55767D01*
G01X2293Y55801D01*
G01X2271Y55841D01*
G01X2255Y55888D01*
G01X2245Y55941D01*
G01X2242Y56001D01*
G01X2257Y56161D01*
G01X2301Y56261D01*
G01X2335Y56290D01*
G01X2379Y56312D01*
G01X2434Y56325D01*
G01X2499Y56329D01*
G01X2547Y56329D01*
G01X2575Y56251D01*
G01X2603Y56148D01*
G01X2633Y56018D01*
G01X2664Y55862D01*
G01X2689Y55744D01*
G01X2716Y55642D01*
G01X2745Y55554D01*
G01X2776Y55481D01*
G01X2854Y55362D01*
G01X2961Y55275D01*
G01X3090Y55220D01*
G01X3235Y55201D01*
G01X3346Y55211D01*
G01X3447Y55241D01*
G01X3538Y55291D01*
G01X3619Y55361D01*
G01X3686Y55450D01*
G01X3733Y55553D01*
G01X3762Y55671D01*
G01X3771Y55803D01*
G01X3757Y55958D01*
G01X3713Y56103D01*
G01X3637Y56238D01*
G01X3533Y56365D01*
G01X3541Y56368D01*
G01X3553Y56372D01*
G01X3569Y56376D01*
G01X3589Y56382D01*
G01X3633Y56396D01*
G01X3671Y56408D01*
G01X3704Y56418D01*
G01X3731Y56428D01*
G37*

%LPC*%
G36*
G01X2956Y56329D02*
G01X2860Y56329D01*
G01X2893Y56209D01*
G01X2933Y56037D01*
G01X2976Y55871D01*
G01X3017Y55775D01*
G01X3052Y55734D01*
G01X3092Y55705D01*
G01X3136Y55687D01*
G01X3185Y55681D01*
G01X3234Y55686D01*
G01X3279Y55700D01*
G01X3321Y55723D01*
G01X3360Y55755D01*
G01X3392Y55796D01*
G01X3415Y55841D01*
G01X3429Y55892D01*
G01X3434Y55948D01*
G01X3412Y56075D01*
G01X3347Y56194D01*
G01X3314Y56234D01*
G01X3276Y56266D01*
G01X3235Y56291D01*
G01X3190Y56309D01*
G01X3151Y56318D01*
G01X3100Y56324D01*
G01X3034Y56328D01*
G01X2956Y56329D01*
G37*

%LPD*%
G36*
G01X3731Y54312D02*
G01X1915Y55034D01*
G01X1915Y54538D01*
G01X2842Y54193D01*
G01X2880Y54180D01*
G01X2918Y54168D01*
G01X2997Y54142D01*
G01X3020Y54136D01*
G01X3053Y54125D01*
G01X3097Y54111D01*
G01X3152Y54094D01*
G01X2842Y53995D01*
G01X1915Y53652D01*
G01X1915Y53149D01*
G01X3731Y53878D01*
G01X3731Y54312D01*
G37*

%LPD*%
G36*
G01X2961Y52989D02*
G01X2915Y52989D01*
G01X2750Y52983D01*
G01X2599Y52964D01*
G01X2463Y52933D01*
G01X2341Y52889D01*
G01X2234Y52834D01*
G01X2141Y52765D01*
G01X2059Y52683D01*
G01X1992Y52591D01*
G01X1941Y52489D01*
G01X1903Y52377D01*
G01X1882Y52256D01*
G01X1874Y52125D01*
G01X1881Y52009D01*
G01X1902Y51899D01*
G01X1938Y51796D01*
G01X1988Y51700D01*
G01X2052Y51611D01*
G01X2131Y51528D01*
G01X2221Y51457D01*
G01X2322Y51398D01*
G01X2434Y51353D01*
G01X2557Y51321D01*
G01X2691Y51301D01*
G01X2837Y51295D01*
G01X2959Y51300D01*
G01X3074Y51315D01*
G01X3182Y51340D01*
G01X3283Y51374D01*
G01X3376Y51418D01*
G01X3462Y51473D01*
G01X3556Y51555D01*
G01X3634Y51652D01*
G01X3694Y51762D01*
G01X3737Y51886D01*
G01X3763Y52023D01*
G01X3771Y52174D01*
G01X3763Y52317D01*
G01X3737Y52448D01*
G01X3694Y52566D01*
G01X3634Y52671D01*
G01X3558Y52765D01*
G01X3466Y52845D01*
G01X3357Y52911D01*
G01X3233Y52964D01*
G01X3154Y52484D01*
G01X3217Y52462D01*
G01X3271Y52436D01*
G01X3316Y52405D01*
G01X3352Y52369D01*
G01X3379Y52328D01*
G01X3398Y52282D01*
G01X3410Y52233D01*
G01X3413Y52179D01*
G01X3383Y52027D01*
G01X3294Y51902D01*
G01X3151Y51817D01*
G01X2961Y51785D01*
G01X2961Y52989D01*
G37*

%LPC*%
G36*
G01X2667Y51795D02*
G01X2667Y52511D01*
G01X2484Y52483D01*
G01X2352Y52405D01*
G01X2270Y52290D01*
G01X2242Y52156D01*
G01X2271Y52012D01*
G01X2357Y51894D01*
G01X2489Y51820D01*
G01X2661Y51795D01*
G01X2667Y51795D01*
G37*

%LPD*%
G36*
G01X3731Y50960D02*
G01X1226Y50960D01*
G01X1226Y50479D01*
G01X2128Y50479D01*
G01X2050Y50403D01*
G01X1987Y50323D01*
G01X1938Y50238D01*
G01X1902Y50148D01*
G01X1881Y50053D01*
G01X1874Y49954D01*
G01X1881Y49846D01*
G01X1901Y49745D01*
G01X1934Y49650D01*
G01X1981Y49562D01*
G01X2042Y49480D01*
G01X2115Y49405D01*
G01X2201Y49339D01*
G01X2299Y49285D01*
G01X2410Y49243D01*
G01X2533Y49213D01*
G01X2669Y49195D01*
G01X2816Y49189D01*
G01X2962Y49195D01*
G01X3095Y49214D01*
G01X3218Y49245D01*
G01X3330Y49287D01*
G01X3431Y49343D01*
G01X3520Y49410D01*
G01X3597Y49487D01*
G01X3660Y49569D01*
G01X3708Y49656D01*
G01X3743Y49747D01*
G01X3764Y49844D01*
G01X3771Y49946D01*
G01X3753Y50100D01*
G01X3695Y50251D01*
G01X3599Y50393D01*
G01X3464Y50515D01*
G01X3731Y50515D01*
G01X3731Y50960D01*
G37*

%LPC*%
G36*
G01X2961Y50475D02*
G01X2829Y50482D01*
G01X2684Y50475D01*
G01X2560Y50454D01*
G01X2459Y50419D01*
G01X2379Y50370D01*
G01X2276Y50241D01*
G01X2242Y50081D01*
G01X2276Y49924D01*
G01X2377Y49794D01*
G01X2454Y49744D01*
G01X2547Y49708D01*
G01X2657Y49686D01*
G01X2783Y49679D01*
G01X2919Y49684D01*
G01X3035Y49699D01*
G01X3130Y49724D01*
G01X3205Y49758D01*
G01X3287Y49822D01*
G01X3346Y49898D01*
G01X3381Y49985D01*
G01X3393Y50083D01*
G01X3357Y50236D01*
G01X3251Y50365D01*
G01X3172Y50416D01*
G01X3075Y50453D01*
G01X2961Y50475D01*
G37*

%LPD*%
G36*
G01X3774Y48420D02*
G01X1183Y49047D01*
G01X1183Y48686D01*
G01X3774Y48066D01*
G01X3774Y48420D01*
G37*

%LPD*%
G36*
G01X3774Y47449D02*
G01X1183Y48077D01*
G01X1183Y47716D01*
G01X3774Y47094D01*
G01X3774Y47449D01*
G37*

%LPD*%
G36*
G01X3731Y46758D02*
G01X3251Y46758D01*
G01X3251Y46278D01*
G01X3731Y46278D01*
G01X3731Y46758D01*
G37*

%LPD*%
G36*
G01X2397Y46758D02*
G01X1915Y46758D01*
G01X1915Y46278D01*
G01X2397Y46278D01*
G01X2397Y46758D01*
G37*

%LPD*%
G36*
G01X3284Y45752D02*
G01X3164Y45765D01*
G01X3055Y45756D01*
G01X2959Y45727D01*
G01X2876Y45679D01*
G01X2806Y45613D01*
G01X2745Y45523D01*
G01X2689Y45405D01*
G01X2639Y45257D01*
G01X2593Y45079D01*
G01X2552Y44908D01*
G01X2516Y44775D01*
G01X2485Y44683D01*
G01X2458Y44630D01*
G01X2439Y44609D01*
G01X2418Y44594D01*
G01X2395Y44585D01*
G01X2369Y44582D01*
G01X2341Y44585D01*
G01X2316Y44596D01*
G01X2293Y44613D01*
G01X2273Y44637D01*
G01X2233Y44746D01*
G01X2219Y44909D01*
G01X2223Y44980D01*
G01X2234Y45042D01*
G01X2251Y45096D01*
G01X2275Y45140D01*
G01X2307Y45177D01*
G01X2345Y45208D01*
G01X2389Y45232D01*
G01X2438Y45250D01*
G01X2354Y45704D01*
G01X2243Y45663D01*
G01X2146Y45607D01*
G01X2064Y45537D01*
G01X1996Y45453D01*
G01X1943Y45351D01*
G01X1905Y45224D01*
G01X1882Y45074D01*
G01X1874Y44899D01*
G01X1879Y44775D01*
G01X1892Y44661D01*
G01X1915Y44559D01*
G01X1946Y44469D01*
G01X1987Y44390D01*
G01X2037Y44323D01*
G01X2121Y44241D01*
G01X2216Y44183D01*
G01X2320Y44149D01*
G01X2433Y44137D01*
G01X2556Y44150D01*
G01X2665Y44190D01*
G01X2759Y44257D01*
G01X2839Y44350D01*
G01X2875Y44414D01*
G01X2913Y44502D01*
G01X2951Y44614D01*
G01X2992Y44748D01*
G01X3033Y44906D01*
G01X3075Y45087D01*
G01X3090Y45144D01*
G01X3105Y45191D01*
G01X3122Y45225D01*
G01X3139Y45247D01*
G01X3158Y45263D01*
G01X3179Y45274D01*
G01X3202Y45281D01*
G01X3228Y45283D01*
G01X3266Y45279D01*
G01X3301Y45267D01*
G01X3331Y45247D01*
G01X3357Y45219D01*
G01X3409Y45102D01*
G01X3426Y44940D01*
G01X3408Y44789D01*
G01X3352Y44676D01*
G01X3262Y44597D01*
G01X3139Y44551D01*
G01X3213Y44069D01*
G01X3336Y44112D01*
G01X3444Y44174D01*
G01X3540Y44254D01*
G01X3622Y44353D01*
G01X3687Y44471D01*
G01X3734Y44607D01*
G01X3762Y44764D01*
G01X3771Y44940D01*
G01X3766Y45070D01*
G01X3752Y45190D01*
G01X3726Y45298D01*
G01X3691Y45396D01*
G01X3646Y45482D01*
G01X3591Y45557D01*
G01X3498Y45648D01*
G01X3395Y45713D01*
G01X3284Y45752D01*
G37*

%LPD*%
G36*
G01X2960Y43852D02*
G01X2814Y43858D01*
G01X2671Y43852D01*
G01X2540Y43833D01*
G01X2419Y43802D01*
G01X2309Y43760D01*
G01X2211Y43704D01*
G01X2123Y43637D01*
G01X2047Y43561D01*
G01X1985Y43479D01*
G01X1937Y43392D01*
G01X1901Y43300D01*
G01X1881Y43203D01*
G01X1874Y43101D01*
G01X1896Y42928D01*
G01X1960Y42771D01*
G01X2059Y42638D01*
G01X2181Y42534D01*
G01X1915Y42534D01*
G01X1915Y42087D01*
G01X4422Y42087D01*
G01X4422Y42567D01*
G01X3507Y42567D01*
G01X3631Y42699D01*
G01X3713Y42824D01*
G01X3757Y42953D01*
G01X3771Y43098D01*
G01X3764Y43201D01*
G01X3743Y43298D01*
G01X3708Y43390D01*
G01X3660Y43478D01*
G01X3597Y43559D01*
G01X3520Y43637D01*
G01X3431Y43704D01*
G01X3330Y43760D01*
G01X3218Y43802D01*
G01X3094Y43833D01*
G01X2960Y43852D01*
G37*

%LPC*%
G36*
G01X2958Y43363D02*
G01X2816Y43370D01*
G01X2683Y43363D01*
G01X2568Y43342D01*
G01X2471Y43305D01*
G01X2392Y43256D01*
G01X2290Y43126D01*
G01X2255Y42971D01*
G01X2289Y42811D01*
G01X2390Y42679D01*
G01X2466Y42628D01*
G01X2559Y42592D01*
G01X2668Y42569D01*
G01X2794Y42562D01*
G01X2936Y42570D01*
G01X3059Y42593D01*
G01X3162Y42631D01*
G01X3246Y42684D01*
G01X3354Y42819D01*
G01X3390Y42979D01*
G01X3357Y43133D01*
G01X3256Y43258D01*
G01X3178Y43307D01*
G01X3078Y43342D01*
G01X2958Y43363D01*
G37*

%LPD*%
G36*
G01X3731Y41721D02*
G01X3700Y41808D01*
G01X3327Y41765D01*
G01X3347Y41706D01*
G01X3361Y41654D01*
G01X3370Y41609D01*
G01X3373Y41572D01*
G01X3371Y41549D01*
G01X3367Y41529D01*
G01X3360Y41509D01*
G01X3350Y41490D01*
G01X3338Y41476D01*
G01X3323Y41464D01*
G01X3307Y41455D01*
G01X3289Y41450D01*
G01X3207Y41442D01*
G01X3030Y41440D01*
G01X2298Y41440D01*
G01X2298Y41767D01*
G01X1915Y41767D01*
G01X1915Y41440D01*
G01X1275Y41440D01*
G01X1554Y40957D01*
G01X1915Y40957D01*
G01X1915Y40736D01*
G01X2298Y40736D01*
G01X2298Y40957D01*
G01X3091Y40957D01*
G01X3302Y40961D01*
G01X3429Y40972D01*
G01X3484Y40984D01*
G01X3534Y41000D01*
G01X3578Y41018D01*
G01X3616Y41041D01*
G01X3649Y41068D01*
G01X3679Y41103D01*
G01X3705Y41144D01*
G01X3728Y41193D01*
G01X3747Y41247D01*
G01X3761Y41304D01*
G01X3769Y41364D01*
G01X3771Y41427D01*
G01X3767Y41531D01*
G01X3754Y41629D01*
G01X3731Y41721D01*
G37*

%LPD*%
G36*
G01X3731Y40555D02*
G01X3700Y40642D01*
G01X3327Y40601D01*
G01X3347Y40542D01*
G01X3361Y40490D01*
G01X3370Y40445D01*
G01X3373Y40408D01*
G01X3371Y40385D01*
G01X3367Y40364D01*
G01X3360Y40344D01*
G01X3350Y40327D01*
G01X3338Y40312D01*
G01X3323Y40300D01*
G01X3307Y40291D01*
G01X3289Y40284D01*
G01X3207Y40276D01*
G01X3030Y40274D01*
G01X2298Y40274D01*
G01X2298Y40601D01*
G01X1915Y40601D01*
G01X1915Y40274D01*
G01X1275Y40274D01*
G01X1554Y39791D01*
G01X1915Y39791D01*
G01X1915Y39573D01*
G01X2298Y39573D01*
G01X2298Y39791D01*
G01X3091Y39791D01*
G01X3302Y39795D01*
G01X3429Y39806D01*
G01X3484Y39818D01*
G01X3534Y39834D01*
G01X3578Y39853D01*
G01X3616Y39875D01*
G01X3649Y39902D01*
G01X3679Y39937D01*
G01X3705Y39979D01*
G01X3728Y40027D01*
G01X3747Y40081D01*
G01X3761Y40138D01*
G01X3769Y40198D01*
G01X3771Y40261D01*
G01X3767Y40365D01*
G01X3754Y40463D01*
G01X3731Y40555D01*
G37*

%LPD*%
G36*
G01X3731Y39283D02*
G01X2667Y39283D01*
G01X2455Y39277D01*
G01X2306Y39258D01*
G01X2249Y39243D01*
G01X2194Y39222D01*
G01X2142Y39197D01*
G01X2092Y39166D01*
G01X2007Y39082D01*
G01X1938Y38966D01*
G01X1890Y38823D01*
G01X1874Y38666D01*
G01X1882Y38561D01*
G01X1904Y38461D01*
G01X1942Y38366D01*
G01X1995Y38275D01*
G01X2063Y38190D01*
G01X2146Y38110D01*
G01X1226Y38110D01*
G01X1226Y37630D01*
G01X3731Y37630D01*
G01X3731Y38110D01*
G01X2821Y38110D01*
G01X2621Y38120D01*
G01X2476Y38153D01*
G01X2421Y38179D01*
G01X2374Y38211D01*
G01X2334Y38248D01*
G01X2301Y38293D01*
G01X2275Y38341D01*
G01X2257Y38393D01*
G01X2246Y38448D01*
G01X2242Y38506D01*
G01X2245Y38556D01*
G01X2254Y38601D01*
G01X2268Y38642D01*
G01X2288Y38679D01*
G01X2313Y38711D01*
G01X2341Y38737D01*
G01X2374Y38759D01*
G01X2410Y38775D01*
G01X2539Y38796D01*
G01X2773Y38803D01*
G01X3731Y38803D01*
G01X3731Y39283D01*
G37*

%LPD*%

%LPD*%
G36*
G01X27434Y87553D02*
G01X27271Y87571D01*
G01X27165Y87563D01*
G01X27063Y87539D01*
G01X26966Y87498D01*
G01X26874Y87443D01*
G01X26787Y87370D01*
G01X26705Y87282D01*
G01X26705Y87530D01*
G01X26263Y87530D01*
G01X26263Y85714D01*
G01X26743Y85714D01*
G01X26743Y86596D01*
G01X26746Y86717D01*
G01X26753Y86820D01*
G01X26764Y86905D01*
G01X26781Y86972D01*
G01X26804Y87024D01*
G01X26832Y87070D01*
G01X26867Y87109D01*
G01X26908Y87142D01*
G01X26954Y87168D01*
G01X27003Y87188D01*
G01X27055Y87199D01*
G01X27109Y87203D01*
G01X27152Y87200D01*
G01X27191Y87193D01*
G01X27225Y87181D01*
G01X27254Y87165D01*
G01X27280Y87143D01*
G01X27302Y87117D01*
G01X27320Y87086D01*
G01X27335Y87050D01*
G01X27354Y86927D01*
G01X27360Y86710D01*
G01X27360Y85714D01*
G01X27840Y85714D01*
G01X27840Y86586D01*
G01X27843Y86705D01*
G01X27850Y86808D01*
G01X27862Y86893D01*
G01X27879Y86961D01*
G01X27902Y87017D01*
G01X27931Y87066D01*
G01X27966Y87108D01*
G01X28008Y87142D01*
G01X28053Y87168D01*
G01X28100Y87188D01*
G01X28147Y87199D01*
G01X28196Y87203D01*
G01X28317Y87177D01*
G01X28402Y87101D01*
G01X28440Y86974D01*
G01X28453Y86751D01*
G01X28453Y85714D01*
G01X28933Y85714D01*
G01X28933Y86875D01*
G01X28930Y86996D01*
G01X28920Y87099D01*
G01X28904Y87184D01*
G01X28882Y87251D01*
G01X28796Y87390D01*
G01X28676Y87490D01*
G01X28522Y87551D01*
G01X28338Y87571D01*
G01X28185Y87553D01*
G01X28041Y87497D01*
G01X27909Y87408D01*
G01X27785Y87282D01*
G01X27690Y87408D01*
G01X27574Y87497D01*
G01X27434Y87553D01*
G37*

%LPD*%
G36*
G01X25937Y87548D02*
G01X25775Y87571D01*
G01X25719Y87568D01*
G01X25665Y87556D01*
G01X25614Y87538D01*
G01X25567Y87513D01*
G01X25470Y87423D01*
G01X25361Y87271D01*
G01X25361Y87530D01*
G01X24917Y87530D01*
G01X24917Y85714D01*
G01X25397Y85714D01*
G01X25397Y86276D01*
G01X25400Y86487D01*
G01X25407Y86659D01*
G01X25418Y86790D01*
G01X25435Y86883D01*
G01X25457Y86950D01*
G01X25483Y87005D01*
G01X25513Y87050D01*
G01X25547Y87083D01*
G01X25583Y87108D01*
G01X25624Y87125D01*
G01X25668Y87136D01*
G01X25717Y87139D01*
G01X25770Y87134D01*
G01X25826Y87119D01*
G01X25883Y87095D01*
G01X25943Y87061D01*
G01X26093Y87480D01*
G01X25937Y87548D01*
G37*

%LPD*%
G36*
G01X21330Y88219D02*
G01X20850Y88219D01*
G01X20850Y85714D01*
G01X21330Y85714D01*
G01X21330Y86624D01*
G01X21341Y86824D01*
G01X21374Y86969D01*
G01X21398Y87024D01*
G01X21429Y87071D01*
G01X21467Y87111D01*
G01X21511Y87144D01*
G01X21560Y87170D01*
G01X21611Y87188D01*
G01X21666Y87199D01*
G01X21724Y87203D01*
G01X21774Y87200D01*
G01X21820Y87191D01*
G01X21862Y87177D01*
G01X21899Y87157D01*
G01X21931Y87132D01*
G01X21958Y87104D01*
G01X21980Y87071D01*
G01X21996Y87035D01*
G01X22015Y86906D01*
G01X22021Y86672D01*
G01X22021Y85714D01*
G01X22504Y85714D01*
G01X22504Y86779D01*
G01X22497Y86990D01*
G01X22479Y87139D01*
G01X22463Y87196D01*
G01X22442Y87251D01*
G01X22416Y87303D01*
G01X22385Y87353D01*
G01X22301Y87438D01*
G01X22184Y87508D01*
G01X22044Y87555D01*
G01X21887Y87571D01*
G01X21782Y87563D01*
G01X21681Y87541D01*
G01X21586Y87503D01*
G01X21496Y87450D01*
G01X21411Y87382D01*
G01X21330Y87299D01*
G01X21330Y88219D01*
G37*

%LPD*%
G36*
G01X20528Y88219D02*
G01X18539Y88219D01*
G01X18539Y87797D01*
G01X19281Y87797D01*
G01X19281Y85714D01*
G01X19786Y85714D01*
G01X19786Y87797D01*
G01X20528Y87797D01*
G01X20528Y88219D01*
G37*

%LPD*%
G36*
G01X37111Y87530D02*
G01X37111Y88171D01*
G01X36629Y87891D01*
G01X36629Y87530D01*
G01X36408Y87530D01*
G01X36408Y87147D01*
G01X36629Y87147D01*
G01X36629Y86354D01*
G01X36633Y86143D01*
G01X36644Y86017D01*
G01X36656Y85961D01*
G01X36672Y85911D01*
G01X36690Y85867D01*
G01X36713Y85829D01*
G01X36740Y85796D01*
G01X36775Y85766D01*
G01X36816Y85740D01*
G01X36865Y85717D01*
G01X36919Y85698D01*
G01X36976Y85684D01*
G01X37036Y85676D01*
G01X37099Y85674D01*
G01X37202Y85678D01*
G01X37301Y85691D01*
G01X37393Y85714D01*
G01X37480Y85745D01*
G01X37437Y86118D01*
G01X37378Y86098D01*
G01X37326Y86084D01*
G01X37281Y86076D01*
G01X37244Y86072D01*
G01X37221Y86074D01*
G01X37200Y86078D01*
G01X37181Y86085D01*
G01X37162Y86095D01*
G01X37148Y86108D01*
G01X37135Y86122D01*
G01X37127Y86138D01*
G01X37122Y86156D01*
G01X37114Y86239D01*
G01X37111Y86415D01*
G01X37111Y87147D01*
G01X37439Y87147D01*
G01X37439Y87530D01*
G01X37111Y87530D01*
G37*

%LPD*%
G36*
G01X35520Y87567D02*
G01X35369Y87571D01*
G01X35203Y87563D01*
G01X35059Y87539D01*
G01X34937Y87499D01*
G01X34836Y87444D01*
G01X34753Y87372D01*
G01X34684Y87283D01*
G01X34627Y87176D01*
G01X34584Y87053D01*
G01X35018Y86977D01*
G01X35043Y87034D01*
G01X35071Y87083D01*
G01X35101Y87122D01*
G01X35135Y87152D01*
G01X35174Y87174D01*
G01X35221Y87190D01*
G01X35275Y87200D01*
G01X35336Y87203D01*
G01X35495Y87188D01*
G01X35593Y87144D01*
G01X35622Y87110D01*
G01X35644Y87066D01*
G01X35657Y87011D01*
G01X35661Y86946D01*
G01X35661Y86898D01*
G01X35583Y86871D01*
G01X35480Y86842D01*
G01X35351Y86812D01*
G01X35196Y86781D01*
G01X35078Y86756D01*
G01X34975Y86729D01*
G01X34886Y86700D01*
G01X34813Y86669D01*
G01X34695Y86591D01*
G01X34607Y86484D01*
G01X34552Y86355D01*
G01X34533Y86210D01*
G01X34544Y86099D01*
G01X34574Y85998D01*
G01X34625Y85907D01*
G01X34696Y85826D01*
G01X34784Y85760D01*
G01X34886Y85712D01*
G01X35005Y85683D01*
G01X35138Y85674D01*
G01X35292Y85688D01*
G01X35438Y85732D01*
G01X35573Y85808D01*
G01X35699Y85912D01*
G01X35702Y85904D01*
G01X35706Y85892D01*
G01X35711Y85876D01*
G01X35717Y85857D01*
G01X35730Y85812D01*
G01X35742Y85774D01*
G01X35753Y85741D01*
G01X35763Y85714D01*
G01X36238Y85714D01*
G01X36184Y85840D01*
G01X36151Y85958D01*
G01X36134Y86103D01*
G01X36128Y86311D01*
G01X36134Y86873D01*
G01X36129Y87016D01*
G01X36118Y87136D01*
G01X36098Y87231D01*
G01X36070Y87302D01*
G01X35983Y87409D01*
G01X35849Y87495D01*
G01X35760Y87528D01*
G01X35650Y87552D01*
G01X35520Y87567D01*
G37*

%LPC*%
G36*
G01X35661Y86489D02*
G01X35661Y86586D01*
G01X35542Y86552D01*
G01X35369Y86512D01*
G01X35204Y86469D01*
G01X35107Y86428D01*
G01X35066Y86393D01*
G01X35037Y86353D01*
G01X35019Y86309D01*
G01X35013Y86260D01*
G01X35018Y86211D01*
G01X35032Y86166D01*
G01X35056Y86124D01*
G01X35090Y86085D01*
G01X35130Y86053D01*
G01X35175Y86030D01*
G01X35225Y86016D01*
G01X35280Y86012D01*
G01X35407Y86033D01*
G01X35529Y86098D01*
G01X35569Y86131D01*
G01X35601Y86169D01*
G01X35626Y86210D01*
G01X35643Y86255D01*
G01X35651Y86294D01*
G01X35657Y86345D01*
G01X35660Y86411D01*
G01X35661Y86489D01*
G37*

%LPD*%
G36*
G01X34000Y87530D02*
G01X34000Y88171D01*
G01X33517Y87891D01*
G01X33517Y87530D01*
G01X33296Y87530D01*
G01X33296Y87147D01*
G01X33517Y87147D01*
G01X33517Y86354D01*
G01X33521Y86143D01*
G01X33533Y86017D01*
G01X33544Y85961D01*
G01X33558Y85911D01*
G01X33578Y85867D01*
G01X33601Y85829D01*
G01X33629Y85796D01*
G01X33663Y85766D01*
G01X33705Y85740D01*
G01X33754Y85717D01*
G01X33807Y85698D01*
G01X33864Y85684D01*
G01X33924Y85676D01*
G01X33987Y85674D01*
G01X34090Y85678D01*
G01X34187Y85691D01*
G01X34279Y85714D01*
G01X34366Y85745D01*
G01X34325Y86118D01*
G01X34265Y86098D01*
G01X34213Y86084D01*
G01X34169Y86076D01*
G01X34132Y86072D01*
G01X34109Y86074D01*
G01X34087Y86078D01*
G01X34068Y86085D01*
G01X34051Y86095D01*
G01X34036Y86108D01*
G01X34023Y86122D01*
G01X34014Y86138D01*
G01X34008Y86156D01*
G01X34002Y86239D01*
G01X34000Y86415D01*
G01X34000Y87147D01*
G01X34328Y87147D01*
G01X34328Y87530D01*
G01X34000Y87530D01*
G37*

%LPD*%
G36*
G01X32384Y87563D02*
G01X32209Y87571D01*
G01X32085Y87567D01*
G01X31971Y87553D01*
G01X31869Y87530D01*
G01X31779Y87499D01*
G01X31700Y87458D01*
G01X31633Y87409D01*
G01X31550Y87324D01*
G01X31492Y87229D01*
G01X31456Y87126D01*
G01X31445Y87012D01*
G01X31458Y86889D01*
G01X31499Y86780D01*
G01X31566Y86686D01*
G01X31661Y86606D01*
G01X31724Y86570D01*
G01X31811Y86532D01*
G01X31922Y86494D01*
G01X32057Y86453D01*
G01X32215Y86412D01*
G01X32397Y86370D01*
G01X32454Y86355D01*
G01X32499Y86340D01*
G01X32534Y86323D01*
G01X32557Y86306D01*
G01X32573Y86287D01*
G01X32584Y86266D01*
G01X32591Y86243D01*
G01X32593Y86217D01*
G01X32589Y86179D01*
G01X32577Y86144D01*
G01X32557Y86114D01*
G01X32529Y86088D01*
G01X32412Y86036D01*
G01X32250Y86019D01*
G01X32098Y86037D01*
G01X31986Y86093D01*
G01X31907Y86183D01*
G01X31861Y86306D01*
G01X31379Y86233D01*
G01X31421Y86110D01*
G01X31483Y86001D01*
G01X31564Y85905D01*
G01X31663Y85824D01*
G01X31781Y85758D01*
G01X31918Y85711D01*
G01X32074Y85683D01*
G01X32250Y85674D01*
G01X32380Y85679D01*
G01X32500Y85694D01*
G01X32609Y85718D01*
G01X32706Y85753D01*
G01X32792Y85797D01*
G01X32867Y85852D01*
G01X32958Y85946D01*
G01X33024Y86049D01*
G01X33062Y86160D01*
G01X33075Y86281D01*
G01X33066Y86390D01*
G01X33037Y86486D01*
G01X32990Y86569D01*
G01X32923Y86639D01*
G01X32834Y86700D01*
G01X32715Y86756D01*
G01X32567Y86807D01*
G01X32390Y86852D01*
G01X32217Y86893D01*
G01X32084Y86929D01*
G01X31992Y86960D01*
G01X31940Y86987D01*
G01X31919Y87006D01*
G01X31904Y87027D01*
G01X31895Y87050D01*
G01X31892Y87076D01*
G01X31895Y87104D01*
G01X31906Y87129D01*
G01X31923Y87152D01*
G01X31948Y87172D01*
G01X32056Y87212D01*
G01X32219Y87226D01*
G01X32290Y87222D01*
G01X32352Y87211D01*
G01X32406Y87194D01*
G01X32451Y87170D01*
G01X32488Y87138D01*
G01X32519Y87100D01*
G01X32542Y87056D01*
G01X32560Y87007D01*
G01X33012Y87091D01*
G01X32972Y87202D01*
G01X32916Y87299D01*
G01X32847Y87381D01*
G01X32763Y87449D01*
G01X32661Y87503D01*
G01X32534Y87541D01*
G01X32384Y87563D01*
G37*

%LPD*%
G36*
G01X30367Y87563D02*
G01X30233Y87571D01*
G01X30103Y87563D01*
G01X29979Y87541D01*
G01X29862Y87504D01*
G01X29751Y87452D01*
G01X29649Y87387D01*
G01X29560Y87308D01*
G01X29482Y87216D01*
G01X29418Y87111D01*
G01X29365Y86999D01*
G01X29328Y86883D01*
G01X29306Y86766D01*
G01X29298Y86647D01*
G01X29306Y86496D01*
G01X29328Y86357D01*
G01X29365Y86231D01*
G01X29418Y86116D01*
G01X29483Y86014D01*
G01X29562Y85925D01*
G01X29655Y85849D01*
G01X29761Y85785D01*
G01X29877Y85737D01*
G01X29994Y85702D01*
G01X30115Y85681D01*
G01X30238Y85674D01*
G01X30369Y85681D01*
G01X30492Y85704D01*
G01X30607Y85741D01*
G01X30715Y85794D01*
G01X30814Y85861D01*
G01X30906Y85943D01*
G01X30988Y86037D01*
G01X31055Y86140D01*
G01X31106Y86250D01*
G01X31143Y86368D01*
G01X31165Y86493D01*
G01X31173Y86626D01*
G01X31166Y86759D01*
G01X31143Y86883D01*
G01X31107Y87000D01*
G01X31056Y87108D01*
G01X30990Y87209D01*
G01X30909Y87302D01*
G01X30817Y87384D01*
G01X30717Y87451D01*
G01X30609Y87504D01*
G01X30492Y87541D01*
G01X30367Y87563D01*
G37*

%LPC*%
G36*
G01X30408Y87144D02*
G01X30236Y87180D01*
G01X30063Y87144D01*
G01X29921Y87035D01*
G01X29864Y86956D01*
G01X29824Y86860D01*
G01X29799Y86749D01*
G01X29791Y86621D01*
G01X29799Y86494D01*
G01X29824Y86383D01*
G01X29864Y86287D01*
G01X29921Y86207D01*
G01X30063Y86100D01*
G01X30236Y86065D01*
G01X30408Y86100D01*
G01X30551Y86207D01*
G01X30606Y86287D01*
G01X30646Y86384D01*
G01X30669Y86497D01*
G01X30678Y86626D01*
G01X30669Y86752D01*
G01X30646Y86862D01*
G01X30606Y86956D01*
G01X30551Y87035D01*
G01X30408Y87144D01*
G37*

%LPD*%
G36*
G01X23813Y87563D02*
G01X23682Y87571D01*
G01X23566Y87564D01*
G01X23456Y87543D01*
G01X23353Y87507D01*
G01X23257Y87457D01*
G01X23168Y87393D01*
G01X23086Y87315D01*
G01X23013Y87224D01*
G01X22954Y87123D01*
G01X22908Y87011D01*
G01X22876Y86888D01*
G01X22856Y86754D01*
G01X22849Y86608D01*
G01X22854Y86486D01*
G01X22869Y86371D01*
G01X22895Y86263D01*
G01X22930Y86162D01*
G01X22975Y86069D01*
G01X23030Y85984D01*
G01X23112Y85889D01*
G01X23208Y85811D01*
G01X23318Y85751D01*
G01X23442Y85708D01*
G01X23579Y85682D01*
G01X23731Y85674D01*
G01X23873Y85682D01*
G01X24004Y85708D01*
G01X24122Y85751D01*
G01X24229Y85811D01*
G01X24321Y85888D01*
G01X24400Y85980D01*
G01X24466Y86088D01*
G01X24518Y86212D01*
G01X24041Y86291D01*
G01X24019Y86228D01*
G01X23992Y86174D01*
G01X23961Y86129D01*
G01X23924Y86093D01*
G01X23884Y86066D01*
G01X23839Y86047D01*
G01X23790Y86035D01*
G01X23736Y86032D01*
G01X23583Y86062D01*
G01X23459Y86151D01*
G01X23374Y86294D01*
G01X23342Y86484D01*
G01X24546Y86484D01*
G01X24546Y86530D01*
G01X24540Y86695D01*
G01X24521Y86846D01*
G01X24490Y86982D01*
G01X24445Y87104D01*
G01X24389Y87211D01*
G01X24320Y87304D01*
G01X24237Y87386D01*
G01X24145Y87453D01*
G01X24044Y87505D01*
G01X23933Y87542D01*
G01X23813Y87563D01*
G37*

%LPC*%
G36*
G01X23846Y87175D02*
G01X23710Y87203D01*
G01X23567Y87174D01*
G01X23451Y87088D01*
G01X23375Y86956D01*
G01X23350Y86784D01*
G01X23350Y86776D01*
G01X24069Y86776D01*
G01X24039Y86961D01*
G01X23959Y87094D01*
G01X23846Y87175D01*
G37*

%LPD*%

%LPD*%
G36*
G01X26834Y84373D02*
G01X26672Y84396D01*
G01X26616Y84393D01*
G01X26563Y84381D01*
G01X26514Y84363D01*
G01X26466Y84338D01*
G01X26369Y84248D01*
G01X26261Y84096D01*
G01X26261Y84355D01*
G01X25814Y84355D01*
G01X25814Y82539D01*
G01X26294Y82539D01*
G01X26294Y83101D01*
G01X26296Y83312D01*
G01X26304Y83484D01*
G01X26316Y83615D01*
G01X26334Y83708D01*
G01X26356Y83775D01*
G01X26382Y83830D01*
G01X26411Y83875D01*
G01X26443Y83908D01*
G01X26481Y83933D01*
G01X26522Y83950D01*
G01X26567Y83961D01*
G01X26616Y83964D01*
G01X26669Y83959D01*
G01X26724Y83944D01*
G01X26781Y83920D01*
G01X26840Y83886D01*
G01X26990Y84305D01*
G01X26834Y84373D01*
G37*

%LPD*%
G36*
G01X19733Y85044D02*
G01X19227Y85044D01*
G01X19227Y82539D01*
G01X19733Y82539D01*
G01X19733Y83634D01*
G01X20723Y83634D01*
G01X20723Y82539D01*
G01X21229Y82539D01*
G01X21229Y85044D01*
G01X20723Y85044D01*
G01X20723Y84058D01*
G01X19733Y84058D01*
G01X19733Y85044D01*
G37*

%LPD*%
G36*
G01X34897Y84355D02*
G01X34897Y84996D01*
G01X34414Y84716D01*
G01X34414Y84355D01*
G01X34196Y84355D01*
G01X34196Y83972D01*
G01X34414Y83972D01*
G01X34414Y83179D01*
G01X34418Y82968D01*
G01X34429Y82842D01*
G01X34441Y82786D01*
G01X34457Y82736D01*
G01X34475Y82692D01*
G01X34498Y82654D01*
G01X34525Y82621D01*
G01X34560Y82591D01*
G01X34601Y82565D01*
G01X34650Y82542D01*
G01X34704Y82523D01*
G01X34761Y82509D01*
G01X34821Y82501D01*
G01X34884Y82499D01*
G01X34987Y82503D01*
G01X35086Y82516D01*
G01X35178Y82539D01*
G01X35265Y82570D01*
G01X35224Y82943D01*
G01X35164Y82923D01*
G01X35112Y82909D01*
G01X35068Y82901D01*
G01X35031Y82897D01*
G01X35008Y82899D01*
G01X34987Y82903D01*
G01X34967Y82910D01*
G01X34950Y82920D01*
G01X34934Y82933D01*
G01X34921Y82947D01*
G01X34912Y82963D01*
G01X34907Y82981D01*
G01X34899Y83064D01*
G01X34897Y83240D01*
G01X34897Y83972D01*
G01X35224Y83972D01*
G01X35224Y84355D01*
G01X34897Y84355D01*
G37*

%LPD*%
G36*
G01X33305Y84392D02*
G01X33154Y84396D01*
G01X32989Y84388D01*
G01X32845Y84364D01*
G01X32723Y84324D01*
G01X32623Y84269D01*
G01X32540Y84197D01*
G01X32470Y84108D01*
G01X32413Y84001D01*
G01X32369Y83878D01*
G01X32806Y83802D01*
G01X32830Y83859D01*
G01X32856Y83908D01*
G01X32886Y83947D01*
G01X32920Y83977D01*
G01X32961Y83999D01*
G01X33007Y84015D01*
G01X33061Y84025D01*
G01X33121Y84028D01*
G01X33281Y84013D01*
G01X33380Y83969D01*
G01X33410Y83935D01*
G01X33431Y83891D01*
G01X33445Y83836D01*
G01X33449Y83771D01*
G01X33449Y83723D01*
G01X33370Y83696D01*
G01X33266Y83667D01*
G01X33136Y83637D01*
G01X32981Y83606D01*
G01X32864Y83581D01*
G01X32761Y83554D01*
G01X32673Y83525D01*
G01X32598Y83494D01*
G01X32481Y83416D01*
G01X32392Y83309D01*
G01X32337Y83180D01*
G01X32318Y83035D01*
G01X32329Y82924D01*
G01X32359Y82823D01*
G01X32410Y82732D01*
G01X32481Y82651D01*
G01X32569Y82585D01*
G01X32673Y82537D01*
G01X32790Y82508D01*
G01X32923Y82499D01*
G01X33078Y82513D01*
G01X33223Y82557D01*
G01X33358Y82633D01*
G01X33484Y82737D01*
G01X33487Y82729D01*
G01X33491Y82717D01*
G01X33496Y82701D01*
G01X33502Y82682D01*
G01X33515Y82637D01*
G01X33528Y82599D01*
G01X33538Y82566D01*
G01X33548Y82539D01*
G01X34023Y82539D01*
G01X33969Y82665D01*
G01X33936Y82783D01*
G01X33919Y82928D01*
G01X33914Y83136D01*
G01X33919Y83698D01*
G01X33915Y83841D01*
G01X33903Y83961D01*
G01X33883Y84056D01*
G01X33855Y84127D01*
G01X33768Y84234D01*
G01X33634Y84320D01*
G01X33545Y84353D01*
G01X33436Y84377D01*
G01X33305Y84392D01*
G37*

%LPC*%
G36*
G01X33449Y83314D02*
G01X33449Y83411D01*
G01X33328Y83377D01*
G01X33154Y83337D01*
G01X32990Y83294D01*
G01X32895Y83253D01*
G01X32854Y83218D01*
G01X32824Y83178D01*
G01X32807Y83134D01*
G01X32801Y83085D01*
G01X32806Y83036D01*
G01X32819Y82991D01*
G01X32843Y82949D01*
G01X32875Y82910D01*
G01X32915Y82878D01*
G01X32961Y82855D01*
G01X33010Y82841D01*
G01X33065Y82837D01*
G01X33194Y82858D01*
G01X33314Y82923D01*
G01X33354Y82956D01*
G01X33386Y82994D01*
G01X33411Y83035D01*
G01X33428Y83080D01*
G01X33438Y83119D01*
G01X33444Y83170D01*
G01X33448Y83236D01*
G01X33449Y83314D01*
G37*

%LPD*%
G36*
G01X31785Y84355D02*
G01X31785Y84996D01*
G01X31302Y84716D01*
G01X31302Y84355D01*
G01X31081Y84355D01*
G01X31081Y83972D01*
G01X31302Y83972D01*
G01X31302Y83179D01*
G01X31306Y82968D01*
G01X31318Y82842D01*
G01X31329Y82786D01*
G01X31345Y82736D01*
G01X31364Y82692D01*
G01X31386Y82654D01*
G01X31414Y82621D01*
G01X31449Y82591D01*
G01X31490Y82565D01*
G01X31539Y82542D01*
G01X31593Y82523D01*
G01X31649Y82509D01*
G01X31709Y82501D01*
G01X31772Y82499D01*
G01X31876Y82503D01*
G01X31974Y82516D01*
G01X32066Y82539D01*
G01X32153Y82570D01*
G01X32110Y82943D01*
G01X32051Y82923D01*
G01X32000Y82909D01*
G01X31955Y82901D01*
G01X31917Y82897D01*
G01X31894Y82899D01*
G01X31873Y82903D01*
G01X31853Y82910D01*
G01X31836Y82920D01*
G01X31821Y82933D01*
G01X31809Y82947D01*
G01X31801Y82963D01*
G01X31795Y82981D01*
G01X31788Y83064D01*
G01X31785Y83240D01*
G01X31785Y83972D01*
G01X32113Y83972D01*
G01X32113Y84355D01*
G01X31785Y84355D01*
G37*

%LPD*%
G36*
G01X30169Y84388D02*
G01X29994Y84396D01*
G01X29870Y84392D01*
G01X29757Y84378D01*
G01X29655Y84355D01*
G01X29564Y84324D01*
G01X29485Y84283D01*
G01X29418Y84234D01*
G01X29337Y84149D01*
G01X29279Y84054D01*
G01X29244Y83951D01*
G01X29232Y83837D01*
G01X29246Y83714D01*
G01X29286Y83605D01*
G01X29352Y83511D01*
G01X29446Y83431D01*
G01X29510Y83395D01*
G01X29598Y83357D01*
G01X29709Y83319D01*
G01X29843Y83278D01*
G01X30001Y83237D01*
G01X30182Y83195D01*
G01X30240Y83180D01*
G01X30286Y83165D01*
G01X30320Y83148D01*
G01X30342Y83131D01*
G01X30358Y83112D01*
G01X30369Y83091D01*
G01X30376Y83068D01*
G01X30378Y83042D01*
G01X30374Y83004D01*
G01X30362Y82969D01*
G01X30342Y82939D01*
G01X30314Y82913D01*
G01X30198Y82861D01*
G01X30035Y82844D01*
G01X29884Y82862D01*
G01X29771Y82918D01*
G01X29693Y83008D01*
G01X29646Y83131D01*
G01X29164Y83058D01*
G01X29207Y82935D01*
G01X29269Y82826D01*
G01X29350Y82730D01*
G01X29448Y82649D01*
G01X29566Y82583D01*
G01X29703Y82536D01*
G01X29859Y82508D01*
G01X30035Y82499D01*
G01X30166Y82504D01*
G01X30285Y82519D01*
G01X30394Y82543D01*
G01X30491Y82578D01*
G01X30577Y82622D01*
G01X30652Y82677D01*
G01X30743Y82771D01*
G01X30808Y82874D01*
G01X30847Y82985D01*
G01X30861Y83106D01*
G01X30851Y83215D01*
G01X30822Y83311D01*
G01X30775Y83394D01*
G01X30708Y83464D01*
G01X30619Y83525D01*
G01X30500Y83581D01*
G01X30352Y83632D01*
G01X30175Y83677D01*
G01X30003Y83718D01*
G01X29870Y83754D01*
G01X29778Y83785D01*
G01X29725Y83812D01*
G01X29704Y83831D01*
G01X29689Y83852D01*
G01X29680Y83875D01*
G01X29677Y83901D01*
G01X29680Y83929D01*
G01X29691Y83954D01*
G01X29708Y83977D01*
G01X29733Y83997D01*
G01X29841Y84037D01*
G01X30005Y84051D01*
G01X30075Y84047D01*
G01X30137Y84036D01*
G01X30191Y84019D01*
G01X30236Y83995D01*
G01X30273Y83963D01*
G01X30304Y83925D01*
G01X30328Y83881D01*
G01X30345Y83832D01*
G01X30800Y83916D01*
G01X30758Y84027D01*
G01X30703Y84124D01*
G01X30632Y84206D01*
G01X30548Y84274D01*
G01X30446Y84328D01*
G01X30319Y84366D01*
G01X30169Y84388D01*
G37*

%LPD*%
G36*
G01X28154Y84388D02*
G01X28021Y84396D01*
G01X27891Y84388D01*
G01X27767Y84366D01*
G01X27649Y84329D01*
G01X27538Y84277D01*
G01X27436Y84212D01*
G01X27345Y84133D01*
G01X27268Y84041D01*
G01X27203Y83936D01*
G01X27152Y83824D01*
G01X27115Y83708D01*
G01X27093Y83591D01*
G01X27086Y83472D01*
G01X27093Y83321D01*
G01X27115Y83182D01*
G01X27152Y83056D01*
G01X27203Y82941D01*
G01X27268Y82839D01*
G01X27348Y82750D01*
G01X27441Y82674D01*
G01X27548Y82610D01*
G01X27663Y82562D01*
G01X27780Y82527D01*
G01X27900Y82506D01*
G01X28023Y82499D01*
G01X28154Y82506D01*
G01X28277Y82529D01*
G01X28392Y82566D01*
G01X28500Y82619D01*
G01X28599Y82686D01*
G01X28691Y82768D01*
G01X28773Y82862D01*
G01X28840Y82965D01*
G01X28891Y83075D01*
G01X28929Y83193D01*
G01X28950Y83318D01*
G01X28958Y83451D01*
G01X28951Y83584D01*
G01X28929Y83708D01*
G01X28892Y83825D01*
G01X28841Y83933D01*
G01X28775Y84034D01*
G01X28694Y84127D01*
G01X28602Y84209D01*
G01X28503Y84276D01*
G01X28395Y84329D01*
G01X28278Y84366D01*
G01X28154Y84388D01*
G37*

%LPC*%
G36*
G01X28194Y83969D02*
G01X28021Y84005D01*
G01X27848Y83969D01*
G01X27706Y83860D01*
G01X27649Y83781D01*
G01X27609Y83685D01*
G01X27584Y83574D01*
G01X27576Y83446D01*
G01X27584Y83319D01*
G01X27609Y83208D01*
G01X27649Y83112D01*
G01X27706Y83032D01*
G01X27848Y82925D01*
G01X28021Y82890D01*
G01X28194Y82925D01*
G01X28336Y83032D01*
G01X28393Y83112D01*
G01X28433Y83209D01*
G01X28457Y83322D01*
G01X28465Y83451D01*
G01X28457Y83577D01*
G01X28433Y83687D01*
G01X28393Y83781D01*
G01X28336Y83860D01*
G01X28194Y83969D01*
G37*

%LPD*%
G36*
G01X24462Y84388D02*
G01X24353Y84396D01*
G01X24247Y84389D01*
G01X24148Y84369D01*
G01X24054Y84336D01*
G01X23966Y84289D01*
G01X23884Y84228D01*
G01X23807Y84155D01*
G01X23740Y84068D01*
G01X23686Y83970D01*
G01X23643Y83860D01*
G01X23613Y83737D01*
G01X23595Y83603D01*
G01X23588Y83456D01*
G01X23593Y83338D01*
G01X23607Y83227D01*
G01X23631Y83123D01*
G01X23663Y83025D01*
G01X23705Y82934D01*
G01X23756Y82849D01*
G01X23831Y82755D01*
G01X23915Y82677D01*
G01X24008Y82617D01*
G01X24108Y82574D01*
G01X24217Y82548D01*
G01X24335Y82539D01*
G01X24441Y82547D01*
G01X24541Y82572D01*
G01X24635Y82613D01*
G01X24722Y82670D01*
G01X24804Y82744D01*
G01X24879Y82834D01*
G01X24879Y82567D01*
G01X24877Y82494D01*
G01X24873Y82433D01*
G01X24866Y82384D01*
G01X24856Y82349D01*
G01X24838Y82310D01*
G01X24816Y82276D01*
G01X24791Y82249D01*
G01X24762Y82227D01*
G01X24645Y82185D01*
G01X24480Y82171D01*
G01X24411Y82174D01*
G01X24353Y82184D01*
G01X24303Y82199D01*
G01X24264Y82222D01*
G01X24241Y82243D01*
G01X24223Y82273D01*
G01X24209Y82310D01*
G01X24201Y82354D01*
G01X23652Y82420D01*
G01X23651Y82403D01*
G01X23650Y82387D01*
G01X23649Y82374D01*
G01X23649Y82362D01*
G01X23662Y82245D01*
G01X23698Y82139D01*
G01X23758Y82045D01*
G01X23842Y81960D01*
G01X23914Y81912D01*
G01X24001Y81873D01*
G01X24103Y81842D01*
G01X24219Y81820D01*
G01X24351Y81807D01*
G01X24498Y81803D01*
G01X24615Y81806D01*
G01X24721Y81815D01*
G01X24816Y81831D01*
G01X24902Y81854D01*
G01X25046Y81915D01*
G01X25158Y81996D01*
G01X25242Y82103D01*
G01X25306Y82245D01*
G01X25329Y82335D01*
G01X25346Y82445D01*
G01X25355Y82575D01*
G01X25359Y82725D01*
G01X25359Y84355D01*
G01X24909Y84355D01*
G01X24909Y84099D01*
G01X24833Y84190D01*
G01X24750Y84264D01*
G01X24661Y84322D01*
G01X24565Y84363D01*
G01X24462Y84388D01*
G37*

%LPC*%
G36*
G01X24640Y83994D02*
G01X24477Y84028D01*
G01X24320Y83994D01*
G01X24193Y83893D01*
G01X24144Y83817D01*
G01X24109Y83723D01*
G01X24088Y83613D01*
G01X24081Y83484D01*
G01X24088Y83349D01*
G01X24109Y83234D01*
G01X24144Y83138D01*
G01X24193Y83063D01*
G01X24317Y82961D01*
G01X24467Y82928D01*
G01X24631Y82962D01*
G01X24767Y83065D01*
G01X24819Y83142D01*
G01X24856Y83235D01*
G01X24879Y83345D01*
G01X24886Y83472D01*
G01X24879Y83604D01*
G01X24858Y83717D01*
G01X24822Y83813D01*
G01X24772Y83891D01*
G01X24640Y83994D01*
G37*

%LPD*%
G36*
G01X22034Y84355D02*
G01X21523Y84355D01*
G01X22212Y82534D01*
G01X22161Y82395D01*
G01X22090Y82283D01*
G01X21987Y82210D01*
G01X21841Y82186D01*
G01X21795Y82187D01*
G01X21746Y82191D01*
G01X21693Y82197D01*
G01X21638Y82207D01*
G01X21681Y81831D01*
G01X21816Y81810D01*
G01X21953Y81803D01*
G01X22020Y81804D01*
G01X22083Y81810D01*
G01X22143Y81818D01*
G01X22199Y81831D01*
G01X22250Y81847D01*
G01X22298Y81866D01*
G01X22342Y81888D01*
G01X22382Y81912D01*
G01X22418Y81940D01*
G01X22451Y81973D01*
G01X22483Y82009D01*
G01X22512Y82049D01*
G01X22571Y82151D01*
G01X22633Y82290D01*
G01X22748Y82608D01*
G01X23388Y84355D01*
G01X22890Y84355D01*
G01X22468Y83065D01*
G01X22034Y84355D01*
G37*

%LPD*%

%LPD*%
G36*
G01X31953Y81615D02*
G01X31473Y81615D01*
G01X31473Y81170D01*
G01X31953Y81170D01*
G01X31953Y81615D01*
G37*

%LPD*%
G36*
G01X28841Y81615D02*
G01X28361Y81615D01*
G01X28361Y81170D01*
G01X28841Y81170D01*
G01X28841Y81615D01*
G37*

%LPD*%
G36*
G01X44536Y80952D02*
G01X44383Y80967D01*
G01X44267Y80958D01*
G01X44156Y80933D01*
G01X44053Y80890D01*
G01X43957Y80830D01*
G01X43867Y80754D01*
G01X43784Y80660D01*
G01X43784Y80926D01*
G01X43340Y80926D01*
G01X43340Y79110D01*
G01X43820Y79110D01*
G01X43820Y79933D01*
G01X43822Y80072D01*
G01X43829Y80188D01*
G01X43839Y80281D01*
G01X43855Y80350D01*
G01X43878Y80403D01*
G01X43908Y80451D01*
G01X43947Y80493D01*
G01X43992Y80530D01*
G01X44044Y80560D01*
G01X44097Y80582D01*
G01X44155Y80595D01*
G01X44216Y80599D01*
G01X44263Y80596D01*
G01X44306Y80587D01*
G01X44346Y80572D01*
G01X44383Y80551D01*
G01X44415Y80524D01*
G01X44442Y80493D01*
G01X44465Y80457D01*
G01X44483Y80416D01*
G01X44496Y80360D01*
G01X44505Y80278D01*
G01X44511Y80171D01*
G01X44513Y80037D01*
G01X44513Y79110D01*
G01X44993Y79110D01*
G01X44993Y80238D01*
G01X44987Y80424D01*
G01X44968Y80561D01*
G01X44951Y80616D01*
G01X44930Y80668D01*
G01X44904Y80718D01*
G01X44874Y80764D01*
G01X44789Y80845D01*
G01X44673Y80909D01*
G01X44536Y80952D01*
G37*

%LPD*%
G36*
G01X39419Y80949D02*
G01X39255Y80967D01*
G01X39149Y80959D01*
G01X39047Y80935D01*
G01X38950Y80894D01*
G01X38859Y80839D01*
G01X38773Y80766D01*
G01X38691Y80678D01*
G01X38691Y80926D01*
G01X38247Y80926D01*
G01X38247Y79110D01*
G01X38729Y79110D01*
G01X38729Y79992D01*
G01X38732Y80113D01*
G01X38739Y80216D01*
G01X38751Y80301D01*
G01X38768Y80368D01*
G01X38790Y80420D01*
G01X38818Y80466D01*
G01X38853Y80505D01*
G01X38895Y80538D01*
G01X38940Y80564D01*
G01X38989Y80584D01*
G01X39041Y80595D01*
G01X39095Y80599D01*
G01X39138Y80596D01*
G01X39177Y80589D01*
G01X39211Y80577D01*
G01X39240Y80561D01*
G01X39265Y80539D01*
G01X39286Y80513D01*
G01X39304Y80482D01*
G01X39319Y80446D01*
G01X39338Y80323D01*
G01X39344Y80106D01*
G01X39344Y79110D01*
G01X39827Y79110D01*
G01X39827Y79982D01*
G01X39829Y80101D01*
G01X39836Y80204D01*
G01X39848Y80289D01*
G01X39865Y80357D01*
G01X39887Y80413D01*
G01X39916Y80462D01*
G01X39951Y80504D01*
G01X39992Y80538D01*
G01X40037Y80564D01*
G01X40084Y80584D01*
G01X40133Y80595D01*
G01X40182Y80599D01*
G01X40304Y80573D01*
G01X40388Y80497D01*
G01X40424Y80370D01*
G01X40436Y80147D01*
G01X40436Y79110D01*
G01X40916Y79110D01*
G01X40916Y80271D01*
G01X40913Y80392D01*
G01X40904Y80495D01*
G01X40889Y80580D01*
G01X40868Y80647D01*
G01X40782Y80786D01*
G01X40662Y80886D01*
G01X40507Y80947D01*
G01X40322Y80967D01*
G01X40170Y80949D01*
G01X40027Y80893D01*
G01X39893Y80804D01*
G01X39768Y80678D01*
G01X39676Y80804D01*
G01X39560Y80893D01*
G01X39419Y80949D01*
G37*

%LPD*%
G36*
G01X31953Y80926D02*
G01X31473Y80926D01*
G01X31473Y79110D01*
G01X31953Y79110D01*
G01X31953Y80926D01*
G37*

%LPD*%
G36*
G01X28841Y80926D02*
G01X28361Y80926D01*
G01X28361Y79110D01*
G01X28841Y79110D01*
G01X28841Y80926D01*
G37*

%LPD*%
G36*
G01X25862Y80944D02*
G01X25702Y80967D01*
G01X25645Y80964D01*
G01X25592Y80952D01*
G01X25541Y80934D01*
G01X25493Y80909D01*
G01X25396Y80819D01*
G01X25288Y80667D01*
G01X25288Y80926D01*
G01X24841Y80926D01*
G01X24841Y79110D01*
G01X25321Y79110D01*
G01X25321Y79672D01*
G01X25323Y79883D01*
G01X25331Y80055D01*
G01X25344Y80186D01*
G01X25361Y80279D01*
G01X25383Y80346D01*
G01X25409Y80401D01*
G01X25438Y80446D01*
G01X25471Y80479D01*
G01X25508Y80504D01*
G01X25549Y80521D01*
G01X25595Y80532D01*
G01X25643Y80535D01*
G01X25697Y80530D01*
G01X25752Y80515D01*
G01X25809Y80491D01*
G01X25869Y80457D01*
G01X26017Y80876D01*
G01X25862Y80944D01*
G37*

%LPD*%
G36*
G01X24413Y81654D02*
G01X24312Y81658D01*
G01X24129Y81640D01*
G01X23980Y81587D01*
G01X23870Y81506D01*
G01X23802Y81404D01*
G01X23766Y81262D01*
G01X23754Y81061D01*
G01X23754Y80926D01*
G01X23487Y80926D01*
G01X23487Y80548D01*
G01X23754Y80548D01*
G01X23754Y79110D01*
G01X24234Y79110D01*
G01X24234Y80548D01*
G01X24592Y80548D01*
G01X24592Y80926D01*
G01X24234Y80926D01*
G01X24234Y81053D01*
G01X24236Y81117D01*
G01X24244Y81170D01*
G01X24258Y81211D01*
G01X24277Y81241D01*
G01X24303Y81263D01*
G01X24337Y81277D01*
G01X24378Y81287D01*
G01X24427Y81290D01*
G01X24481Y81288D01*
G01X24535Y81283D01*
G01X24591Y81274D01*
G01X24648Y81262D01*
G01X24714Y81597D01*
G01X24614Y81623D01*
G01X24515Y81643D01*
G01X24413Y81654D01*
G37*

%LPD*%
G36*
G01X20292Y81615D02*
G01X19227Y81615D01*
G01X19227Y79110D01*
G01X19733Y79110D01*
G01X19733Y80157D01*
G01X19834Y80157D01*
G01X19986Y80150D01*
G01X20091Y80129D01*
G01X20130Y80112D01*
G01X20169Y80089D01*
G01X20206Y80060D01*
G01X20243Y80025D01*
G01X20286Y79973D01*
G01X20345Y79895D01*
G01X20420Y79789D01*
G01X20510Y79656D01*
G01X20876Y79110D01*
G01X21480Y79110D01*
G01X21173Y79598D01*
G01X21088Y79733D01*
G01X21011Y79846D01*
G01X20944Y79937D01*
G01X20886Y80007D01*
G01X20765Y80116D01*
G01X20614Y80215D01*
G01X20769Y80248D01*
G01X20903Y80297D01*
G01X21016Y80364D01*
G01X21109Y80446D01*
G01X21183Y80545D01*
G01X21235Y80656D01*
G01X21266Y80779D01*
G01X21277Y80914D01*
G01X21270Y81021D01*
G01X21250Y81123D01*
G01X21216Y81218D01*
G01X21168Y81307D01*
G01X21108Y81387D01*
G01X21040Y81454D01*
G01X20963Y81508D01*
G01X20876Y81549D01*
G01X20771Y81578D01*
G01X20639Y81598D01*
G01X20479Y81611D01*
G01X20292Y81615D01*
G37*

%LPC*%
G36*
G01X20129Y81193D02*
G01X19733Y81193D01*
G01X19733Y80556D01*
G01X20106Y80556D01*
G01X20272Y80558D01*
G01X20403Y80563D01*
G01X20499Y80573D01*
G01X20561Y80586D01*
G01X20604Y80604D01*
G01X20642Y80628D01*
G01X20675Y80658D01*
G01X20703Y80693D01*
G01X20725Y80733D01*
G01X20741Y80778D01*
G01X20751Y80827D01*
G01X20754Y80881D01*
G01X20750Y80941D01*
G01X20738Y80995D01*
G01X20717Y81043D01*
G01X20688Y81084D01*
G01X20650Y81119D01*
G01X20606Y81148D01*
G01X20555Y81169D01*
G01X20497Y81183D01*
G01X20375Y81191D01*
G01X20129Y81193D01*
G37*

%LPD*%
G36*
G01X45984Y80926D02*
G01X45984Y81567D01*
G01X45504Y81287D01*
G01X45504Y80926D01*
G01X45283Y80926D01*
G01X45283Y80543D01*
G01X45504Y80543D01*
G01X45504Y79750D01*
G01X45508Y79539D01*
G01X45519Y79413D01*
G01X45530Y79357D01*
G01X45544Y79307D01*
G01X45563Y79263D01*
G01X45585Y79225D01*
G01X45612Y79192D01*
G01X45647Y79162D01*
G01X45689Y79136D01*
G01X45737Y79113D01*
G01X45792Y79094D01*
G01X45850Y79080D01*
G01X45910Y79072D01*
G01X45974Y79070D01*
G01X46076Y79074D01*
G01X46174Y79087D01*
G01X46266Y79110D01*
G01X46352Y79141D01*
G01X46311Y79514D01*
G01X46252Y79494D01*
G01X46200Y79480D01*
G01X46155Y79472D01*
G01X46118Y79468D01*
G01X46095Y79470D01*
G01X46074Y79474D01*
G01X46054Y79481D01*
G01X46037Y79491D01*
G01X46022Y79504D01*
G01X46010Y79518D01*
G01X46000Y79534D01*
G01X45994Y79552D01*
G01X45986Y79635D01*
G01X45984Y79811D01*
G01X45984Y80543D01*
G01X46314Y80543D01*
G01X46314Y80926D01*
G01X45984Y80926D01*
G37*

%LPD*%
G36*
G01X42218Y80959D02*
G01X42087Y80967D01*
G01X41970Y80960D01*
G01X41861Y80939D01*
G01X41759Y80903D01*
G01X41663Y80853D01*
G01X41574Y80789D01*
G01X41493Y80711D01*
G01X41421Y80620D01*
G01X41362Y80519D01*
G01X41316Y80407D01*
G01X41283Y80284D01*
G01X41263Y80150D01*
G01X41257Y80004D01*
G01X41262Y79882D01*
G01X41277Y79767D01*
G01X41301Y79659D01*
G01X41336Y79558D01*
G01X41380Y79465D01*
G01X41435Y79380D01*
G01X41517Y79285D01*
G01X41614Y79207D01*
G01X41724Y79147D01*
G01X41848Y79104D01*
G01X41985Y79078D01*
G01X42136Y79070D01*
G01X42279Y79078D01*
G01X42410Y79104D01*
G01X42528Y79147D01*
G01X42633Y79207D01*
G01X42727Y79284D01*
G01X42807Y79376D01*
G01X42873Y79484D01*
G01X42926Y79608D01*
G01X42448Y79687D01*
G01X42426Y79624D01*
G01X42399Y79570D01*
G01X42367Y79525D01*
G01X42331Y79489D01*
G01X42291Y79462D01*
G01X42245Y79443D01*
G01X42196Y79431D01*
G01X42141Y79428D01*
G01X41989Y79458D01*
G01X41864Y79547D01*
G01X41779Y79690D01*
G01X41747Y79880D01*
G01X42951Y79880D01*
G01X42951Y79926D01*
G01X42945Y80091D01*
G01X42926Y80242D01*
G01X42895Y80378D01*
G01X42851Y80500D01*
G01X42795Y80607D01*
G01X42727Y80700D01*
G01X42645Y80782D01*
G01X42553Y80849D01*
G01X42451Y80901D01*
G01X42339Y80938D01*
G01X42218Y80959D01*
G37*

%LPC*%
G36*
G01X42254Y80571D02*
G01X42118Y80599D01*
G01X41975Y80570D01*
G01X41859Y80484D01*
G01X41783Y80352D01*
G01X41757Y80180D01*
G01X41757Y80172D01*
G01X42473Y80172D01*
G01X42444Y80357D01*
G01X42367Y80490D01*
G01X42254Y80571D01*
G37*

%LPD*%
G36*
G01X37160Y80959D02*
G01X37030Y80967D01*
G01X36913Y80960D01*
G01X36804Y80939D01*
G01X36700Y80903D01*
G01X36604Y80853D01*
G01X36516Y80789D01*
G01X36433Y80711D01*
G01X36361Y80620D01*
G01X36302Y80519D01*
G01X36256Y80407D01*
G01X36223Y80284D01*
G01X36204Y80150D01*
G01X36197Y80004D01*
G01X36202Y79882D01*
G01X36217Y79767D01*
G01X36242Y79659D01*
G01X36277Y79558D01*
G01X36323Y79465D01*
G01X36377Y79380D01*
G01X36460Y79285D01*
G01X36556Y79207D01*
G01X36666Y79147D01*
G01X36789Y79104D01*
G01X36927Y79078D01*
G01X37078Y79070D01*
G01X37221Y79078D01*
G01X37352Y79104D01*
G01X37470Y79147D01*
G01X37576Y79207D01*
G01X37669Y79284D01*
G01X37748Y79376D01*
G01X37813Y79484D01*
G01X37866Y79608D01*
G01X37388Y79687D01*
G01X37367Y79624D01*
G01X37340Y79570D01*
G01X37308Y79525D01*
G01X37271Y79489D01*
G01X37231Y79462D01*
G01X37187Y79443D01*
G01X37137Y79431D01*
G01X37084Y79428D01*
G01X36931Y79458D01*
G01X36807Y79547D01*
G01X36722Y79690D01*
G01X36690Y79880D01*
G01X37894Y79880D01*
G01X37894Y79926D01*
G01X37888Y80091D01*
G01X37869Y80242D01*
G01X37837Y80378D01*
G01X37793Y80500D01*
G01X37737Y80607D01*
G01X37668Y80700D01*
G01X37585Y80782D01*
G01X37493Y80849D01*
G01X37391Y80901D01*
G01X37281Y80938D01*
G01X37160Y80959D01*
G37*

%LPC*%
G36*
G01X37194Y80571D02*
G01X37058Y80599D01*
G01X36914Y80570D01*
G01X36799Y80484D01*
G01X36723Y80352D01*
G01X36697Y80180D01*
G01X36697Y80172D01*
G01X37416Y80172D01*
G01X37386Y80357D01*
G01X37307Y80490D01*
G01X37194Y80571D01*
G37*

%LPD*%
G36*
G01X35226Y80959D02*
G01X35052Y80967D01*
G01X34927Y80963D01*
G01X34814Y80949D01*
G01X34712Y80926D01*
G01X34621Y80895D01*
G01X34542Y80854D01*
G01X34475Y80805D01*
G01X34394Y80720D01*
G01X34336Y80625D01*
G01X34301Y80522D01*
G01X34290Y80408D01*
G01X34303Y80285D01*
G01X34343Y80176D01*
G01X34409Y80082D01*
G01X34503Y80002D01*
G01X34567Y79966D01*
G01X34655Y79928D01*
G01X34765Y79890D01*
G01X34900Y79849D01*
G01X35058Y79808D01*
G01X35239Y79766D01*
G01X35296Y79751D01*
G01X35342Y79736D01*
G01X35376Y79719D01*
G01X35399Y79702D01*
G01X35415Y79683D01*
G01X35426Y79662D01*
G01X35433Y79639D01*
G01X35435Y79613D01*
G01X35431Y79575D01*
G01X35419Y79540D01*
G01X35399Y79510D01*
G01X35372Y79484D01*
G01X35255Y79432D01*
G01X35092Y79415D01*
G01X34941Y79433D01*
G01X34828Y79489D01*
G01X34750Y79579D01*
G01X34704Y79702D01*
G01X34221Y79629D01*
G01X34265Y79506D01*
G01X34327Y79397D01*
G01X34407Y79301D01*
G01X34505Y79220D01*
G01X34623Y79154D01*
G01X34760Y79107D01*
G01X34916Y79079D01*
G01X35092Y79070D01*
G01X35223Y79075D01*
G01X35343Y79090D01*
G01X35451Y79114D01*
G01X35548Y79149D01*
G01X35634Y79193D01*
G01X35709Y79248D01*
G01X35800Y79342D01*
G01X35865Y79445D01*
G01X35904Y79556D01*
G01X35918Y79677D01*
G01X35908Y79786D01*
G01X35880Y79882D01*
G01X35832Y79965D01*
G01X35765Y80035D01*
G01X35676Y80096D01*
G01X35557Y80152D01*
G01X35409Y80203D01*
G01X35232Y80248D01*
G01X35060Y80289D01*
G01X34928Y80325D01*
G01X34835Y80356D01*
G01X34782Y80383D01*
G01X34761Y80402D01*
G01X34746Y80423D01*
G01X34737Y80446D01*
G01X34734Y80472D01*
G01X34738Y80500D01*
G01X34748Y80525D01*
G01X34765Y80548D01*
G01X34790Y80568D01*
G01X34899Y80608D01*
G01X35062Y80622D01*
G01X35132Y80618D01*
G01X35194Y80607D01*
G01X35248Y80590D01*
G01X35293Y80566D01*
G01X35330Y80534D01*
G01X35361Y80496D01*
G01X35385Y80452D01*
G01X35402Y80403D01*
G01X35857Y80487D01*
G01X35815Y80598D01*
G01X35760Y80695D01*
G01X35690Y80777D01*
G01X35605Y80845D01*
G01X35503Y80899D01*
G01X35377Y80937D01*
G01X35226Y80959D01*
G37*

%LPD*%
G36*
G01X33281Y80959D02*
G01X33106Y80967D01*
G01X32981Y80963D01*
G01X32868Y80949D01*
G01X32766Y80926D01*
G01X32676Y80895D01*
G01X32597Y80854D01*
G01X32529Y80805D01*
G01X32447Y80720D01*
G01X32389Y80625D01*
G01X32353Y80522D01*
G01X32341Y80408D01*
G01X32355Y80285D01*
G01X32395Y80176D01*
G01X32463Y80082D01*
G01X32557Y80002D01*
G01X32621Y79966D01*
G01X32708Y79928D01*
G01X32819Y79890D01*
G01X32953Y79849D01*
G01X33112Y79808D01*
G01X33294Y79766D01*
G01X33351Y79751D01*
G01X33396Y79736D01*
G01X33430Y79719D01*
G01X33454Y79702D01*
G01X33470Y79683D01*
G01X33481Y79662D01*
G01X33487Y79639D01*
G01X33489Y79613D01*
G01X33485Y79575D01*
G01X33474Y79540D01*
G01X33454Y79510D01*
G01X33426Y79484D01*
G01X33309Y79432D01*
G01X33144Y79415D01*
G01X32995Y79433D01*
G01X32882Y79489D01*
G01X32804Y79579D01*
G01X32758Y79702D01*
G01X32275Y79629D01*
G01X32317Y79506D01*
G01X32379Y79397D01*
G01X32459Y79301D01*
G01X32557Y79220D01*
G01X32675Y79154D01*
G01X32812Y79107D01*
G01X32968Y79079D01*
G01X33144Y79070D01*
G01X33275Y79075D01*
G01X33394Y79090D01*
G01X33503Y79114D01*
G01X33600Y79149D01*
G01X33686Y79193D01*
G01X33761Y79248D01*
G01X33852Y79342D01*
G01X33918Y79445D01*
G01X33956Y79556D01*
G01X33969Y79677D01*
G01X33960Y79786D01*
G01X33932Y79882D01*
G01X33885Y79965D01*
G01X33820Y80035D01*
G01X33729Y80096D01*
G01X33609Y80152D01*
G01X33461Y80203D01*
G01X33284Y80248D01*
G01X33112Y80289D01*
G01X32980Y80325D01*
G01X32888Y80356D01*
G01X32837Y80383D01*
G01X32815Y80402D01*
G01X32801Y80423D01*
G01X32791Y80446D01*
G01X32788Y80472D01*
G01X32792Y80500D01*
G01X32802Y80525D01*
G01X32818Y80548D01*
G01X32842Y80568D01*
G01X32951Y80608D01*
G01X33113Y80622D01*
G01X33185Y80618D01*
G01X33248Y80607D01*
G01X33300Y80590D01*
G01X33345Y80566D01*
G01X33382Y80534D01*
G01X33413Y80496D01*
G01X33438Y80452D01*
G01X33456Y80403D01*
G01X33909Y80487D01*
G01X33867Y80598D01*
G01X33812Y80695D01*
G01X33743Y80777D01*
G01X33660Y80845D01*
G01X33557Y80899D01*
G01X33431Y80937D01*
G01X33281Y80959D01*
G37*

%LPD*%
G36*
G01X30998Y81615D02*
G01X30518Y81615D01*
G01X30518Y80713D01*
G01X30441Y80791D01*
G01X30361Y80854D01*
G01X30276Y80904D01*
G01X30186Y80939D01*
G01X30091Y80960D01*
G01X29992Y80967D01*
G01X29885Y80960D01*
G01X29784Y80940D01*
G01X29690Y80907D01*
G01X29601Y80860D01*
G01X29519Y80799D01*
G01X29443Y80726D01*
G01X29377Y80640D01*
G01X29323Y80542D01*
G01X29281Y80431D01*
G01X29251Y80308D01*
G01X29233Y80173D01*
G01X29227Y80025D01*
G01X29233Y79879D01*
G01X29252Y79746D01*
G01X29283Y79623D01*
G01X29325Y79511D01*
G01X29381Y79411D01*
G01X29448Y79321D01*
G01X29525Y79244D01*
G01X29607Y79181D01*
G01X29694Y79133D01*
G01X29786Y79098D01*
G01X29883Y79077D01*
G01X29984Y79070D01*
G01X30138Y79088D01*
G01X30289Y79146D01*
G01X30431Y79242D01*
G01X30553Y79377D01*
G01X30553Y79110D01*
G01X30998Y79110D01*
G01X30998Y81615D01*
G37*

%LPC*%
G36*
G01X30279Y80565D02*
G01X30119Y80599D01*
G01X29962Y80565D01*
G01X29832Y80464D01*
G01X29782Y80387D01*
G01X29746Y80294D01*
G01X29725Y80184D01*
G01X29718Y80058D01*
G01X29723Y79922D01*
G01X29737Y79806D01*
G01X29762Y79711D01*
G01X29796Y79636D01*
G01X29860Y79554D01*
G01X29936Y79495D01*
G01X30023Y79460D01*
G01X30121Y79448D01*
G01X30274Y79484D01*
G01X30403Y79590D01*
G01X30455Y79669D01*
G01X30491Y79766D01*
G01X30513Y79880D01*
G01X30520Y80012D01*
G01X30513Y80157D01*
G01X30492Y80281D01*
G01X30457Y80382D01*
G01X30408Y80462D01*
G01X30279Y80565D01*
G37*

%LPD*%
G36*
G01X27181Y80959D02*
G01X27048Y80967D01*
G01X26918Y80959D01*
G01X26794Y80937D01*
G01X26677Y80900D01*
G01X26565Y80848D01*
G01X26463Y80783D01*
G01X26374Y80704D01*
G01X26296Y80612D01*
G01X26230Y80507D01*
G01X26179Y80395D01*
G01X26143Y80279D01*
G01X26120Y80162D01*
G01X26113Y80043D01*
G01X26120Y79892D01*
G01X26142Y79753D01*
G01X26179Y79627D01*
G01X26230Y79512D01*
G01X26297Y79410D01*
G01X26376Y79321D01*
G01X26469Y79245D01*
G01X26576Y79181D01*
G01X26690Y79133D01*
G01X26807Y79098D01*
G01X26928Y79077D01*
G01X27051Y79070D01*
G01X27182Y79077D01*
G01X27305Y79100D01*
G01X27420Y79137D01*
G01X27528Y79190D01*
G01X27629Y79257D01*
G01X27721Y79339D01*
G01X27802Y79433D01*
G01X27868Y79536D01*
G01X27919Y79646D01*
G01X27956Y79764D01*
G01X27978Y79889D01*
G01X27985Y80022D01*
G01X27978Y80155D01*
G01X27956Y80279D01*
G01X27920Y80396D01*
G01X27869Y80504D01*
G01X27803Y80605D01*
G01X27724Y80698D01*
G01X27632Y80780D01*
G01X27531Y80847D01*
G01X27422Y80900D01*
G01X27306Y80937D01*
G01X27181Y80959D01*
G37*

%LPC*%
G36*
G01X27138Y80567D02*
G01X27048Y80576D01*
G01X26875Y80540D01*
G01X26733Y80431D01*
G01X26678Y80352D01*
G01X26638Y80256D01*
G01X26614Y80145D01*
G01X26606Y80017D01*
G01X26614Y79890D01*
G01X26638Y79779D01*
G01X26678Y79683D01*
G01X26733Y79603D01*
G01X26875Y79496D01*
G01X27048Y79461D01*
G01X27221Y79496D01*
G01X27365Y79603D01*
G01X27421Y79683D01*
G01X27461Y79780D01*
G01X27484Y79893D01*
G01X27492Y80022D01*
G01X27484Y80148D01*
G01X27461Y80258D01*
G01X27421Y80352D01*
G01X27365Y80431D01*
G01X27297Y80495D01*
G01X27221Y80540D01*
G01X27138Y80567D01*
G37*

%LPD*%
G36*
G01X22573Y80959D02*
G01X22443Y80967D01*
G01X22326Y80960D01*
G01X22216Y80939D01*
G01X22113Y80903D01*
G01X22017Y80853D01*
G01X21928Y80789D01*
G01X21846Y80711D01*
G01X21774Y80620D01*
G01X21715Y80519D01*
G01X21669Y80407D01*
G01X21636Y80284D01*
G01X21616Y80150D01*
G01X21610Y80004D01*
G01X21615Y79882D01*
G01X21630Y79767D01*
G01X21654Y79659D01*
G01X21689Y79558D01*
G01X21733Y79465D01*
G01X21788Y79380D01*
G01X21870Y79285D01*
G01X21967Y79207D01*
G01X22077Y79147D01*
G01X22201Y79104D01*
G01X22338Y79078D01*
G01X22489Y79070D01*
G01X22632Y79078D01*
G01X22763Y79104D01*
G01X22881Y79147D01*
G01X22987Y79207D01*
G01X23080Y79284D01*
G01X23160Y79376D01*
G01X23226Y79484D01*
G01X23279Y79608D01*
G01X22801Y79687D01*
G01X22779Y79624D01*
G01X22751Y79570D01*
G01X22720Y79525D01*
G01X22684Y79489D01*
G01X22644Y79462D01*
G01X22598Y79443D01*
G01X22549Y79431D01*
G01X22494Y79428D01*
G01X22342Y79458D01*
G01X22217Y79547D01*
G01X22134Y79690D01*
G01X22103Y79880D01*
G01X23304Y79880D01*
G01X23304Y79926D01*
G01X23298Y80091D01*
G01X23279Y80242D01*
G01X23248Y80378D01*
G01X23204Y80500D01*
G01X23149Y80607D01*
G01X23080Y80700D01*
G01X22998Y80782D01*
G01X22906Y80849D01*
G01X22804Y80901D01*
G01X22693Y80938D01*
G01X22573Y80959D01*
G37*

%LPC*%
G36*
G01X22607Y80571D02*
G01X22471Y80599D01*
G01X22328Y80570D01*
G01X22212Y80484D01*
G01X22136Y80352D01*
G01X22110Y80180D01*
G01X22110Y80172D01*
G01X22829Y80172D01*
G01X22799Y80357D01*
G01X22720Y80490D01*
G01X22607Y80571D01*
G37*

%LPD*%

%LPD*%
G36*
G01X5163Y64566D02*
G01X4815Y64566D01*
G01X4815Y62923D01*
G01X5262Y62923D01*
G01X5262Y64015D01*
G01X5370Y63933D01*
G01X5482Y63855D01*
G01X5597Y63781D01*
G01X5716Y63711D01*
G01X5838Y63645D01*
G01X5964Y63584D01*
G01X6094Y63527D01*
G01X6228Y63474D01*
G01X6362Y63427D01*
G01X6496Y63386D01*
G01X6629Y63350D01*
G01X6761Y63320D01*
G01X6894Y63297D01*
G01X7025Y63279D01*
G01X7156Y63267D01*
G01X7287Y63261D01*
G01X7287Y63723D01*
G01X7277Y63723D01*
G01X7165Y63726D01*
G01X7049Y63735D01*
G01X6927Y63750D01*
G01X6800Y63772D01*
G01X6669Y63799D01*
G01X6532Y63832D01*
G01X6394Y63871D01*
G01X6258Y63917D01*
G01X6124Y63967D01*
G01X5993Y64023D01*
G01X5864Y64085D01*
G01X5737Y64152D01*
G01X5617Y64222D01*
G01X5508Y64292D01*
G01X5407Y64361D01*
G01X5316Y64430D01*
G01X5235Y64498D01*
G01X5163Y64566D01*
G37*

%LPD*%
G36*
G01X5634Y62583D02*
G01X5468Y62598D01*
G01X5325Y62585D01*
G01X5195Y62545D01*
G01X5076Y62479D01*
G01X4970Y62387D01*
G01X4910Y62312D01*
G01X4860Y62228D01*
G01X4822Y62136D01*
G01X4794Y62035D01*
G01X4778Y61925D01*
G01X4772Y61805D01*
G01X4783Y61642D01*
G01X4815Y61494D01*
G01X4869Y61360D01*
G01X4945Y61241D01*
G01X5009Y61171D01*
G01X5085Y61111D01*
G01X5173Y61061D01*
G01X5275Y61021D01*
G01X5388Y60992D01*
G01X5514Y60972D01*
G01X5560Y61450D01*
G01X5381Y61483D01*
G01X5260Y61554D01*
G01X5191Y61658D01*
G01X5168Y61793D01*
G01X5190Y61928D01*
G01X5255Y62031D01*
G01X5360Y62096D01*
G01X5504Y62118D01*
G01X5649Y62093D01*
G01X5796Y62019D01*
G01X5862Y61966D01*
G01X5953Y61882D01*
G01X6068Y61767D01*
G01X6207Y61620D01*
G01X6328Y61493D01*
G01X6440Y61380D01*
G01X6544Y61283D01*
G01X6640Y61200D01*
G01X6727Y61132D01*
G01X6807Y61079D01*
G01X6922Y61018D01*
G01X7040Y60971D01*
G01X7161Y60937D01*
G01X7287Y60916D01*
G01X7287Y62598D01*
G01X6840Y62598D01*
G01X6840Y61645D01*
G01X6808Y61666D01*
G01X6775Y61689D01*
G01X6742Y61715D01*
G01X6708Y61744D01*
G01X6664Y61785D01*
G01X6604Y61846D01*
G01X6526Y61929D01*
G01X6431Y62031D01*
G01X6333Y62137D01*
G01X6246Y62224D01*
G01X6173Y62294D01*
G01X6111Y62346D01*
G01X5947Y62461D01*
G01X5791Y62539D01*
G01X5634Y62583D01*
G37*

%LPD*%
G36*
G01X5163Y60672D02*
G01X4815Y60672D01*
G01X4815Y59032D01*
G01X5262Y59032D01*
G01X5262Y60124D01*
G01X5370Y60041D01*
G01X5482Y59962D01*
G01X5597Y59888D01*
G01X5716Y59819D01*
G01X5838Y59753D01*
G01X5964Y59692D01*
G01X6094Y59635D01*
G01X6228Y59583D01*
G01X6362Y59535D01*
G01X6496Y59493D01*
G01X6629Y59457D01*
G01X6761Y59427D01*
G01X6894Y59403D01*
G01X7025Y59385D01*
G01X7156Y59373D01*
G01X7287Y59367D01*
G01X7287Y59832D01*
G01X7277Y59832D01*
G01X7165Y59835D01*
G01X7049Y59844D01*
G01X6927Y59859D01*
G01X6800Y59881D01*
G01X6669Y59907D01*
G01X6532Y59941D01*
G01X6394Y59980D01*
G01X6258Y60025D01*
G01X6124Y60075D01*
G01X5993Y60130D01*
G01X5864Y60192D01*
G01X5737Y60258D01*
G01X5617Y60329D01*
G01X5508Y60398D01*
G01X5407Y60467D01*
G01X5316Y60536D01*
G01X5235Y60604D01*
G01X5163Y60672D01*
G37*

%LPD*%
G36*
G01X6642Y58725D02*
G01X6535Y58732D01*
G01X6425Y58724D01*
G01X6324Y58699D01*
G01X6231Y58659D01*
G01X6146Y58602D01*
G01X6074Y58532D01*
G01X6015Y58452D01*
G01X5971Y58361D01*
G01X5941Y58259D01*
G01X5871Y58369D01*
G01X5794Y58459D01*
G01X5710Y58528D01*
G01X5619Y58578D01*
G01X5520Y58607D01*
G01X5415Y58618D01*
G01X5301Y58606D01*
G01X5193Y58574D01*
G01X5091Y58519D01*
G01X4996Y58442D01*
G01X4928Y58367D01*
G01X4872Y58284D01*
G01X4828Y58194D01*
G01X4797Y58096D01*
G01X4778Y57990D01*
G01X4772Y57876D01*
G01X4777Y57774D01*
G01X4791Y57678D01*
G01X4815Y57588D01*
G01X4848Y57503D01*
G01X4941Y57354D01*
G01X5062Y57243D01*
G01X5136Y57199D01*
G01X5221Y57162D01*
G01X5317Y57130D01*
G01X5425Y57104D01*
G01X5501Y57546D01*
G01X5356Y57581D01*
G01X5252Y57652D01*
G01X5215Y57698D01*
G01X5188Y57748D01*
G01X5171Y57802D01*
G01X5166Y57861D01*
G01X5170Y57921D01*
G01X5185Y57974D01*
G01X5209Y58021D01*
G01X5242Y58061D01*
G01X5282Y58095D01*
G01X5329Y58118D01*
G01X5383Y58133D01*
G01X5443Y58138D01*
G01X5577Y58112D01*
G01X5681Y58033D01*
G01X5744Y57916D01*
G01X5765Y57757D01*
G01X5765Y57736D01*
G01X6156Y57683D01*
G01X6141Y57745D01*
G01X6130Y57803D01*
G01X6123Y57856D01*
G01X6121Y57904D01*
G01X6148Y58033D01*
G01X6228Y58143D01*
G01X6353Y58215D01*
G01X6515Y58239D01*
G01X6686Y58214D01*
G01X6819Y58138D01*
G01X6903Y58024D01*
G01X6931Y57889D01*
G01X6908Y57760D01*
G01X6837Y57652D01*
G01X6722Y57573D01*
G01X6565Y57533D01*
G01X6621Y57068D01*
G01X6773Y57098D01*
G01X6908Y57151D01*
G01X7029Y57227D01*
G01X7134Y57327D01*
G01X7194Y57405D01*
G01X7243Y57489D01*
G01X7281Y57580D01*
G01X7308Y57677D01*
G01X7324Y57781D01*
G01X7330Y57891D01*
G01X7323Y58008D01*
G01X7304Y58117D01*
G01X7272Y58220D01*
G01X7226Y58317D01*
G01X7168Y58407D01*
G01X7096Y58491D01*
G01X7017Y58564D01*
G01X6931Y58625D01*
G01X6840Y58671D01*
G01X6744Y58705D01*
G01X6642Y58725D01*
G37*

%LPD*%
G36*
G01X6784Y56855D02*
G01X6360Y56855D01*
G01X6360Y56545D01*
G01X4772Y56545D01*
G01X4772Y56141D01*
G01X6362Y55054D01*
G01X6784Y55054D01*
G01X6784Y56080D01*
G01X7287Y56080D01*
G01X7287Y56545D01*
G01X6784Y56545D01*
G01X6784Y56855D01*
G37*

%LPC*%
G36*
G01X6360Y56080D02*
G01X5504Y56080D01*
G01X6360Y55504D01*
G01X6360Y56080D01*
G37*

%LPD*%
G36*
G01X5163Y54833D02*
G01X4815Y54833D01*
G01X4815Y53192D01*
G01X5262Y53192D01*
G01X5262Y54284D01*
G01X5370Y54202D01*
G01X5482Y54123D01*
G01X5597Y54049D01*
G01X5716Y53979D01*
G01X5838Y53914D01*
G01X5964Y53853D01*
G01X6094Y53796D01*
G01X6228Y53743D01*
G01X6362Y53696D01*
G01X6496Y53653D01*
G01X6629Y53618D01*
G01X6761Y53588D01*
G01X6894Y53564D01*
G01X7025Y53546D01*
G01X7156Y53534D01*
G01X7287Y53527D01*
G01X7287Y53990D01*
G01X7277Y53990D01*
G01X7165Y53993D01*
G01X7049Y54002D01*
G01X6927Y54018D01*
G01X6800Y54040D01*
G01X6669Y54067D01*
G01X6532Y54102D01*
G01X6394Y54141D01*
G01X6258Y54185D01*
G01X6124Y54236D01*
G01X5993Y54291D01*
G01X5864Y54352D01*
G01X5737Y54419D01*
G01X5617Y54489D01*
G01X5508Y54559D01*
G01X5407Y54628D01*
G01X5316Y54697D01*
G01X5235Y54765D01*
G01X5163Y54833D01*
G37*

%LPD*%
G36*
G01X6784Y52961D02*
G01X6360Y52961D01*
G01X6360Y52651D01*
G01X4772Y52651D01*
G01X4772Y52247D01*
G01X6362Y51160D01*
G01X6784Y51160D01*
G01X6784Y52186D01*
G01X7287Y52186D01*
G01X7287Y52651D01*
G01X6784Y52651D01*
G01X6784Y52961D01*
G37*

%LPC*%
G36*
G01X6360Y52186D02*
G01X5504Y52186D01*
G01X6360Y51610D01*
G01X6360Y52186D01*
G37*

%LPD*%
G36*
G01X6201Y50930D02*
G01X6035Y50934D01*
G01X5872Y50931D01*
G01X5722Y50919D01*
G01X5583Y50900D01*
G01X5456Y50873D01*
G01X5341Y50839D01*
G01X5238Y50797D01*
G01X5147Y50748D01*
G01X5067Y50690D01*
G01X4977Y50604D01*
G01X4903Y50511D01*
G01X4846Y50410D01*
G01X4805Y50302D01*
G01X4780Y50186D01*
G01X4772Y50063D01*
G01X4779Y49950D01*
G01X4798Y49843D01*
G01X4830Y49743D01*
G01X4875Y49651D01*
G01X4933Y49565D01*
G01X5003Y49486D01*
G01X5085Y49417D01*
G01X5176Y49361D01*
G01X5274Y49317D01*
G01X5380Y49285D01*
G01X5495Y49266D01*
G01X5618Y49260D01*
G01X5736Y49266D01*
G01X5847Y49284D01*
G01X5950Y49314D01*
G01X6045Y49356D01*
G01X6133Y49410D01*
G01X6212Y49476D01*
G01X6312Y49588D01*
G01X6384Y49710D01*
G01X6427Y49842D01*
G01X6441Y49984D01*
G01X6428Y50115D01*
G01X6388Y50234D01*
G01X6323Y50342D01*
G01X6230Y50439D01*
G01X6428Y50419D01*
G01X6588Y50390D01*
G01X6712Y50351D01*
G01X6799Y50304D01*
G01X6900Y50189D01*
G01X6934Y50053D01*
G01X6930Y49996D01*
G01X6916Y49946D01*
G01X6895Y49901D01*
G01X6865Y49862D01*
G01X6828Y49830D01*
G01X6780Y49804D01*
G01X6723Y49786D01*
G01X6657Y49773D01*
G01X6708Y49309D01*
G01X6853Y49342D01*
G01X6979Y49392D01*
G01X7087Y49457D01*
G01X7175Y49540D01*
G01X7243Y49638D01*
G01X7291Y49750D01*
G01X7320Y49875D01*
G01X7330Y50015D01*
G01X7321Y50147D01*
G01X7296Y50270D01*
G01X7254Y50385D01*
G01X7196Y50492D01*
G01X7120Y50590D01*
G01X7028Y50680D01*
G01X6945Y50740D01*
G01X6851Y50791D01*
G01X6745Y50835D01*
G01X6627Y50871D01*
G01X6497Y50899D01*
G01X6355Y50918D01*
G01X6201Y50930D01*
G37*

%LPC*%
G36*
G01X5844Y50371D02*
G01X5659Y50396D01*
G01X5548Y50389D01*
G01X5452Y50369D01*
G01X5368Y50336D01*
G01X5298Y50289D01*
G01X5201Y50174D01*
G01X5168Y50043D01*
G01X5195Y49920D01*
G01X5275Y49819D01*
G01X5413Y49754D01*
G01X5618Y49733D01*
G01X5732Y49739D01*
G01X5829Y49756D01*
G01X5911Y49786D01*
G01X5976Y49827D01*
G01X6060Y49935D01*
G01X6088Y50068D01*
G01X6060Y50194D01*
G01X5979Y50299D01*
G01X5844Y50371D01*
G37*

%LPD*%
G36*
G01X6474Y47992D02*
G01X6355Y47995D01*
G01X6213Y47991D01*
G01X6073Y47980D01*
G01X5933Y47960D01*
G01X5795Y47932D01*
G01X5657Y47897D01*
G01X5519Y47853D01*
G01X5382Y47802D01*
G01X5248Y47745D01*
G01X5117Y47682D01*
G01X4989Y47611D01*
G01X4863Y47535D01*
G01X4739Y47452D01*
G01X4739Y47127D01*
G01X4866Y47183D01*
G01X4989Y47234D01*
G01X5106Y47281D01*
G01X5219Y47323D01*
G01X5326Y47361D01*
G01X5429Y47394D01*
G01X5527Y47423D01*
G01X5621Y47447D01*
G01X5743Y47474D01*
G01X5867Y47496D01*
G01X5994Y47513D01*
G01X6124Y47526D01*
G01X6256Y47533D01*
G01X6390Y47536D01*
G01X6489Y47534D01*
G01X6587Y47530D01*
G01X6684Y47521D01*
G01X6781Y47510D01*
G01X6878Y47497D01*
G01X6977Y47480D01*
G01X7078Y47460D01*
G01X7183Y47437D01*
G01X7285Y47412D01*
G01X7381Y47386D01*
G01X7472Y47358D01*
G01X7556Y47330D01*
G01X7646Y47295D01*
G01X7754Y47251D01*
G01X7880Y47195D01*
G01X8023Y47129D01*
G01X8023Y47462D01*
G01X7912Y47533D01*
G01X7799Y47598D01*
G01X7687Y47658D01*
G01X7574Y47713D01*
G01X7460Y47764D01*
G01X7347Y47809D01*
G01X7233Y47849D01*
G01X7119Y47884D01*
G01X6985Y47918D01*
G01X6852Y47946D01*
G01X6723Y47967D01*
G01X6597Y47983D01*
G01X6474Y47992D01*
G37*

%LPD*%
G36*
G01X5163Y46855D02*
G01X4815Y46855D01*
G01X4815Y45214D01*
G01X5262Y45214D01*
G01X5262Y46306D01*
G01X5370Y46224D01*
G01X5482Y46146D01*
G01X5597Y46072D01*
G01X5716Y46002D01*
G01X5838Y45936D01*
G01X5964Y45875D01*
G01X6094Y45818D01*
G01X6228Y45765D01*
G01X6362Y45717D01*
G01X6496Y45675D01*
G01X6629Y45640D01*
G01X6761Y45610D01*
G01X6894Y45585D01*
G01X7025Y45568D01*
G01X7156Y45555D01*
G01X7287Y45549D01*
G01X7287Y46014D01*
G01X7277Y46014D01*
G01X7165Y46017D01*
G01X7049Y46026D01*
G01X6927Y46042D01*
G01X6800Y46063D01*
G01X6669Y46090D01*
G01X6532Y46123D01*
G01X6394Y46162D01*
G01X6258Y46208D01*
G01X6124Y46258D01*
G01X5993Y46314D01*
G01X5864Y46376D01*
G01X5737Y46443D01*
G01X5617Y46512D01*
G01X5508Y46582D01*
G01X5407Y46650D01*
G01X5316Y46719D01*
G01X5235Y46787D01*
G01X5163Y46855D01*
G37*

%LPD*%
G36*
G01X5634Y44874D02*
G01X5468Y44889D01*
G01X5325Y44876D01*
G01X5195Y44836D01*
G01X5076Y44771D01*
G01X4970Y44678D01*
G01X4910Y44602D01*
G01X4860Y44519D01*
G01X4822Y44425D01*
G01X4794Y44324D01*
G01X4778Y44213D01*
G01X4772Y44094D01*
G01X4783Y43932D01*
G01X4815Y43784D01*
G01X4869Y43650D01*
G01X4945Y43530D01*
G01X5009Y43460D01*
G01X5085Y43399D01*
G01X5173Y43350D01*
G01X5275Y43310D01*
G01X5388Y43280D01*
G01X5514Y43261D01*
G01X5560Y43741D01*
G01X5381Y43772D01*
G01X5260Y43842D01*
G01X5191Y43947D01*
G01X5168Y44081D01*
G01X5190Y44217D01*
G01X5255Y44320D01*
G01X5360Y44385D01*
G01X5504Y44406D01*
G01X5649Y44381D01*
G01X5796Y44307D01*
G01X5862Y44255D01*
G01X5953Y44171D01*
G01X6068Y44055D01*
G01X6207Y43908D01*
G01X6328Y43782D01*
G01X6440Y43670D01*
G01X6544Y43573D01*
G01X6640Y43491D01*
G01X6727Y43423D01*
G01X6807Y43370D01*
G01X6922Y43308D01*
G01X7040Y43260D01*
G01X7161Y43226D01*
G01X7287Y43205D01*
G01X7287Y44889D01*
G01X6840Y44889D01*
G01X6840Y43936D01*
G01X6808Y43956D01*
G01X6775Y43978D01*
G01X6742Y44004D01*
G01X6708Y44033D01*
G01X6664Y44074D01*
G01X6604Y44136D01*
G01X6526Y44219D01*
G01X6431Y44323D01*
G01X6333Y44427D01*
G01X6246Y44514D01*
G01X6173Y44583D01*
G01X6111Y44635D01*
G01X5947Y44749D01*
G01X5791Y44828D01*
G01X5634Y44874D01*
G37*

%LPD*%
G36*
G01X5634Y42928D02*
G01X5468Y42943D01*
G01X5325Y42930D01*
G01X5195Y42890D01*
G01X5076Y42823D01*
G01X4970Y42730D01*
G01X4910Y42655D01*
G01X4860Y42571D01*
G01X4822Y42479D01*
G01X4794Y42378D01*
G01X4778Y42268D01*
G01X4772Y42148D01*
G01X4783Y41986D01*
G01X4815Y41838D01*
G01X4869Y41704D01*
G01X4945Y41584D01*
G01X5009Y41514D01*
G01X5085Y41454D01*
G01X5173Y41404D01*
G01X5275Y41364D01*
G01X5388Y41334D01*
G01X5514Y41315D01*
G01X5560Y41793D01*
G01X5381Y41826D01*
G01X5260Y41897D01*
G01X5191Y42001D01*
G01X5168Y42136D01*
G01X5190Y42271D01*
G01X5255Y42374D01*
G01X5360Y42439D01*
G01X5504Y42461D01*
G01X5649Y42436D01*
G01X5796Y42362D01*
G01X5862Y42309D01*
G01X5953Y42225D01*
G01X6068Y42110D01*
G01X6207Y41963D01*
G01X6328Y41836D01*
G01X6440Y41723D01*
G01X6544Y41626D01*
G01X6640Y41543D01*
G01X6727Y41475D01*
G01X6807Y41422D01*
G01X6922Y41361D01*
G01X7040Y41314D01*
G01X7161Y41280D01*
G01X7287Y41259D01*
G01X7287Y42943D01*
G01X6840Y42943D01*
G01X6840Y41988D01*
G01X6808Y42009D01*
G01X6775Y42032D01*
G01X6742Y42058D01*
G01X6708Y42087D01*
G01X6664Y42128D01*
G01X6604Y42189D01*
G01X6526Y42272D01*
G01X6431Y42374D01*
G01X6333Y42479D01*
G01X6246Y42567D01*
G01X6173Y42637D01*
G01X6111Y42689D01*
G01X5947Y42804D01*
G01X5791Y42882D01*
G01X5634Y42928D01*
G37*

%LPD*%
G36*
G01X6276Y41026D02*
G01X5826Y41026D01*
G01X5826Y40368D01*
G01X5173Y40368D01*
G01X5173Y39928D01*
G01X5826Y39928D01*
G01X5826Y39273D01*
G01X6276Y39273D01*
G01X6276Y39928D01*
G01X6926Y39928D01*
G01X6926Y40368D01*
G01X6276Y40368D01*
G01X6276Y41026D01*
G37*

%LPD*%
G36*
G01X4866Y38958D02*
G01X4739Y39014D01*
G01X4739Y38686D01*
G01X4848Y38613D01*
G01X4961Y38545D01*
G01X5077Y38481D01*
G01X5196Y38421D01*
G01X5319Y38366D01*
G01X5445Y38315D01*
G01X5556Y38275D01*
G01X5668Y38241D01*
G01X5783Y38212D01*
G01X5899Y38188D01*
G01X6016Y38169D01*
G01X6136Y38156D01*
G01X6257Y38148D01*
G01X6380Y38145D01*
G01X6513Y38149D01*
G01X6648Y38160D01*
G01X6784Y38179D01*
G01X6922Y38206D01*
G01X7062Y38240D01*
G01X7203Y38282D01*
G01X7309Y38318D01*
G01X7414Y38359D01*
G01X7518Y38403D01*
G01X7622Y38451D01*
G01X7724Y38502D01*
G01X7824Y38558D01*
G01X7924Y38618D01*
G01X8023Y38681D01*
G01X8023Y39009D01*
G01X7869Y38940D01*
G01X7734Y38882D01*
G01X7619Y38836D01*
G01X7523Y38801D01*
G01X7389Y38757D01*
G01X7251Y38719D01*
G01X7109Y38686D01*
G01X6964Y38658D01*
G01X6818Y38635D01*
G01X6674Y38618D01*
G01X6531Y38609D01*
G01X6390Y38605D01*
G01X6256Y38608D01*
G01X6124Y38615D01*
G01X5994Y38627D01*
G01X5867Y38645D01*
G01X5743Y38667D01*
G01X5621Y38694D01*
G01X5527Y38718D01*
G01X5429Y38746D01*
G01X5326Y38779D01*
G01X5219Y38817D01*
G01X5106Y38859D01*
G01X4989Y38906D01*
G01X4866Y38958D01*
G37*

%LPD*%
G54D12*
G01X62834Y86720D03*
G01X52420Y86720D03*
G01X77312Y26649D03*
G01X85313Y26649D03*
G01X51023Y40873D03*
G01X42768Y40873D03*
G01X25623Y26395D03*
G01X16733Y26522D03*
G01X29687Y45445D03*
G01X37434Y40873D03*
G01X21559Y51033D03*
G01X21559Y58145D03*
G54D13*
G01X3477Y3545D03*
G01X3477Y100827D03*
G01X89710Y100700D03*
G01X89583Y3672D03*
G54D14*
G01X72740Y32618D03*
G01X72740Y40238D03*
G01X72740Y46969D03*
G01X72740Y54589D03*
G01X72740Y67543D03*
G01X72740Y75163D03*
G01X28544Y61701D03*
G01X31592Y61701D03*
G01X28290Y66654D03*
G01X31338Y66654D03*
G54D15*
G01X38069Y61803D03*
G54D14*
G01X38069Y66680D03*
G01X61310Y49509D03*
G01X61310Y52049D03*
G01X61310Y54589D03*
G01X61310Y57129D03*
G01X61310Y59669D03*
G01X61310Y62209D03*
G01X61310Y64749D03*
G01X61310Y67289D03*
G01X61310Y69829D03*
G01X61310Y72369D03*
G01X61310Y74909D03*
G01X61310Y77449D03*
G01X61310Y79989D03*
G01X61310Y82529D03*
G01X53690Y49509D03*
G01X53690Y52049D03*
G01X53690Y54589D03*
G01X53690Y57129D03*
G01X53690Y59669D03*
G01X53690Y62209D03*
G01X53690Y64749D03*
G01X53690Y67289D03*
G01X53690Y69829D03*
G01X53690Y72369D03*
G01X53690Y74909D03*
G01X53690Y77449D03*
G01X53690Y79989D03*
G54D15*
G01X53690Y82529D03*
G54D12*
G01X47086Y94340D03*
G01X52166Y94340D03*
G01X57246Y94340D03*
G01X80106Y70083D03*
G01X80106Y75163D03*
G01X80106Y80243D03*
G01X80106Y49509D03*
G01X80106Y54589D03*
G01X80106Y59669D03*
G01X47213Y10012D03*
G01X42133Y10012D03*
G01X37053Y10012D03*
G01X62580Y10012D03*
G01X57500Y10012D03*
G01X52420Y10012D03*
G01X69946Y94340D03*
G01X75026Y94340D03*
G01X80233Y94340D03*
G01X85313Y94340D03*
G01X79852Y34396D03*
G01X79852Y39476D03*
G54D14*
G01X86837Y18013D03*
G01X86837Y10393D03*
G01X65628Y29824D03*
G01X65628Y22204D03*
G01X45181Y32618D03*
G01X45181Y24998D03*
G01X25369Y14838D03*
G01X25369Y22458D03*
G01X8986Y30078D03*
G01X16606Y30078D03*
G01X9113Y48874D03*
G01X16733Y48874D03*
G54D12*
G01X73121Y9631D03*
G01X68041Y9631D03*
G01X14145Y97906D03*
G01X9065Y97906D03*
G54D14*
G01X20749Y94858D03*
G01X20749Y98922D03*
G01X40434Y99176D03*
G01X40434Y95112D03*
G54D15*
G01X12113Y74792D03*
G54D14*
G01X12113Y77332D03*
G01X12113Y79872D03*
G01X12113Y82412D03*
G01X15590Y35031D02*
G01X15590Y35031D01*
G01X15590Y40111D02*
G01X15590Y40111D01*
G01X15590Y37571D02*
G01X15590Y37571D01*
G01X20543Y22458D02*
G01X20543Y22458D01*
G01X15463Y22458D02*
G01X15463Y22458D01*
G01X18003Y22458D02*
G01X18003Y22458D01*
G01X40609Y34777D02*
G01X40609Y34777D01*
G01X35529Y34777D02*
G01X35529Y34777D01*
G01X38069Y34777D02*
G01X38069Y34777D01*
G01X60929Y34777D02*
G01X60929Y34777D01*
G01X55849Y34777D02*
G01X55849Y34777D01*
G01X58389Y34777D02*
G01X58389Y34777D01*
G01X81122Y22458D02*
G01X81122Y22458D01*
G01X76042Y22458D02*
G01X76042Y22458D01*
G01X78582Y22458D02*
G01X78582Y22458D01*
G01X15590Y54462D02*
G01X15590Y54462D01*
G01X15590Y59542D02*
G01X15590Y59542D01*
G01X15590Y57002D02*
G01X15590Y57002D01*
G01X28496Y96890D02*
G01X28496Y96890D01*
G01X33576Y96890D02*
G01X33576Y96890D01*
G01X31036Y96890D02*
G01X31036Y96890D01*
M00*
M02*
