G04 Layer: TopSilkLayer*
G04 EasyEDA v6.3.43, 2020-05-25T08:10:49+01:00*
G04 809d050b7b404b088306c213adac8bc8,fe6cc42eb16a44418a09de5ec01cb9e8,10*
G04 Gerber Generator version 0.2*
G04 Scale: 100 percent, Rotated: No, Reflected: No *
G04 Dimensions in millimeters *
G04 leading zeros omitted , absolute positions ,3 integer and 3 decimal *
%FSLAX33Y33*%
%MOMM*%
G90*
G71D02*

%ADD18C,0.254000*%
%ADD19C,0.203200*%
%ADD20C,0.202999*%
%ADD21C,0.599999*%
%ADD22C,0.299999*%
%ADD23C,0.399999*%
%ADD24C,0.152400*%

%LPD*%
G54D18*
G01X71978Y33888D02*
G01X71978Y38968D01*
G01X71978Y38968D02*
G01X72740Y38968D01*
G01X72740Y38968D02*
G01X73502Y38968D01*
G01X73502Y38968D02*
G01X73502Y33888D01*
G01X73502Y33888D02*
G01X72740Y33888D01*
G01X72740Y33888D02*
G01X71978Y33888D01*
G01X72740Y38968D02*
G01X72740Y39222D01*
G01X72740Y33888D02*
G01X72740Y33634D01*
G01X71978Y48239D02*
G01X71978Y53319D01*
G01X71978Y53319D02*
G01X72740Y53319D01*
G01X72740Y53319D02*
G01X73502Y53319D01*
G01X73502Y53319D02*
G01X73502Y48239D01*
G01X73502Y48239D02*
G01X72740Y48239D01*
G01X72740Y48239D02*
G01X71978Y48239D01*
G01X72740Y53319D02*
G01X72740Y53573D01*
G01X72740Y48239D02*
G01X72740Y47985D01*
G01X71978Y68813D02*
G01X71978Y73893D01*
G01X71978Y73893D02*
G01X72740Y73893D01*
G01X72740Y73893D02*
G01X73502Y73893D01*
G01X73502Y73893D02*
G01X73502Y68813D01*
G01X73502Y68813D02*
G01X72740Y68813D01*
G01X72740Y68813D02*
G01X71978Y68813D01*
G01X72740Y73893D02*
G01X72740Y74147D01*
G01X72740Y68813D02*
G01X72740Y68559D01*
G01X27528Y62717D02*
G01X32608Y62717D01*
G01X32608Y60685D01*
G01X27528Y60685D01*
G01X27528Y62717D01*
G01X29814Y62209D02*
G01X29814Y61193D01*
G01X30322Y62209D02*
G01X30322Y61193D01*
G01X30322Y61701D02*
G01X30830Y61701D01*
G01X29814Y61701D02*
G01X29052Y61701D01*
G01X27274Y67670D02*
G01X32354Y67670D01*
G01X32354Y65638D01*
G01X27274Y65638D01*
G01X27274Y67670D01*
G01X29560Y67162D02*
G01X29560Y66146D01*
G01X30068Y67162D02*
G01X30068Y66146D01*
G01X30068Y66654D02*
G01X30576Y66654D01*
G01X29560Y66654D02*
G01X28798Y66654D01*
G01X39339Y67670D02*
G01X39339Y60812D01*
G01X40101Y67670D02*
G01X40101Y60812D01*
G01X36799Y60812D02*
G01X36799Y67670D01*
G01X36037Y60812D02*
G01X36037Y67670D01*
G01X37434Y63987D02*
G01X38704Y63987D01*
G01X38704Y63987D02*
G01X38704Y64495D01*
G01X38704Y64495D02*
G01X37434Y64495D01*
G01X37434Y64495D02*
G01X37434Y63987D01*
G01X37434Y63606D02*
G01X38069Y63606D01*
G01X38069Y63606D02*
G01X38704Y63606D01*
G01X38069Y63606D02*
G01X38069Y63225D01*
G01X37434Y64876D02*
G01X38069Y64876D01*
G01X38069Y64876D02*
G01X38704Y64876D01*
G01X38069Y64876D02*
G01X38069Y65257D01*
G01X58135Y83719D02*
G01X60150Y83719D01*
G01X60150Y48319D01*
G01X54850Y48319D01*
G01X54850Y83719D01*
G01X56865Y83719D01*
G01X12790Y32271D02*
G01X12790Y42871D01*
G01X17590Y42871D01*
G01X17590Y32271D01*
G01X12790Y32271D01*
G01X13290Y42871D02*
G01X13290Y32271D01*
G01X23303Y19658D02*
G01X12703Y19658D01*
G01X12703Y24458D01*
G01X23303Y24458D01*
G01X23303Y19658D01*
G01X12703Y20158D02*
G01X23303Y20158D01*
G01X43369Y31977D02*
G01X32769Y31977D01*
G01X32769Y36777D01*
G01X43369Y36777D01*
G01X43369Y31977D01*
G01X32769Y32477D02*
G01X43369Y32477D01*
G01X44546Y90530D02*
G01X44546Y98404D01*
G01X59786Y98404D01*
G01X59786Y90530D01*
G01X44546Y90530D01*
G01X83916Y67543D02*
G01X76042Y67543D01*
G01X76042Y82783D01*
G01X83916Y82783D01*
G01X83916Y67543D01*
G01X83916Y46969D02*
G01X76042Y46969D01*
G01X76042Y62209D01*
G01X83916Y62209D01*
G01X83916Y46969D01*
G01X49753Y13822D02*
G01X49753Y5948D01*
G01X34513Y5948D01*
G01X34513Y13822D01*
G01X49753Y13822D01*
G01X65120Y13822D02*
G01X65120Y5948D01*
G01X49880Y5948D01*
G01X49880Y13822D01*
G01X65120Y13822D01*
G01X67406Y90530D02*
G01X67406Y98030D01*
G01X77566Y98030D01*
G01X77566Y90530D01*
G01X67406Y90530D01*
G01X77693Y90530D02*
G01X77693Y98030D01*
G01X87853Y98030D01*
G01X87853Y90530D01*
G01X77693Y90530D01*
G01X83662Y31856D02*
G01X76162Y31856D01*
G01X76162Y42016D01*
G01X83662Y42016D01*
G01X83662Y31856D01*
G01X63689Y31977D02*
G01X53089Y31977D01*
G01X53089Y36777D01*
G01X63689Y36777D01*
G01X63689Y31977D01*
G01X53089Y32477D02*
G01X63689Y32477D01*
G01X83882Y19658D02*
G01X73282Y19658D01*
G01X73282Y24458D01*
G01X83882Y24458D01*
G01X83882Y19658D01*
G01X73282Y20158D02*
G01X83882Y20158D01*
G01X12790Y51702D02*
G01X12790Y62302D01*
G01X17590Y62302D01*
G01X17590Y51702D01*
G01X12790Y51702D01*
G01X13290Y62302D02*
G01X13290Y51702D01*
G01X87599Y16743D02*
G01X87599Y11663D01*
G01X87599Y11663D02*
G01X86837Y11663D01*
G01X86837Y11663D02*
G01X86075Y11663D01*
G01X86075Y11663D02*
G01X86075Y16743D01*
G01X86075Y16743D02*
G01X86837Y16743D01*
G01X86837Y16743D02*
G01X87599Y16743D01*
G01X86837Y11663D02*
G01X86837Y11409D01*
G01X86837Y16743D02*
G01X86837Y16997D01*
G01X66390Y28554D02*
G01X66390Y23474D01*
G01X66390Y23474D02*
G01X65628Y23474D01*
G01X65628Y23474D02*
G01X64866Y23474D01*
G01X64866Y23474D02*
G01X64866Y28554D01*
G01X64866Y28554D02*
G01X65628Y28554D01*
G01X65628Y28554D02*
G01X66390Y28554D01*
G01X65628Y23474D02*
G01X65628Y23220D01*
G01X65628Y28554D02*
G01X65628Y28808D01*
G01X45943Y31348D02*
G01X45943Y26268D01*
G01X45943Y26268D02*
G01X45181Y26268D01*
G01X45181Y26268D02*
G01X44419Y26268D01*
G01X44419Y26268D02*
G01X44419Y31348D01*
G01X44419Y31348D02*
G01X45181Y31348D01*
G01X45181Y31348D02*
G01X45943Y31348D01*
G01X45181Y26268D02*
G01X45181Y26014D01*
G01X45181Y31348D02*
G01X45181Y31602D01*
G01X24607Y16108D02*
G01X24607Y21188D01*
G01X24607Y21188D02*
G01X25369Y21188D01*
G01X25369Y21188D02*
G01X26131Y21188D01*
G01X26131Y21188D02*
G01X26131Y16108D01*
G01X26131Y16108D02*
G01X25369Y16108D01*
G01X25369Y16108D02*
G01X24607Y16108D01*
G01X25369Y21188D02*
G01X25369Y21442D01*
G01X25369Y16108D02*
G01X25369Y15854D01*
G01X10256Y30840D02*
G01X15336Y30840D01*
G01X15336Y30840D02*
G01X15336Y30078D01*
G01X15336Y30078D02*
G01X15336Y29316D01*
G01X15336Y29316D02*
G01X10256Y29316D01*
G01X10256Y29316D02*
G01X10256Y30078D01*
G01X10256Y30078D02*
G01X10256Y30840D01*
G01X15336Y30078D02*
G01X15590Y30078D01*
G01X10256Y30078D02*
G01X10002Y30078D01*
G01X10383Y49636D02*
G01X15463Y49636D01*
G01X15463Y49636D02*
G01X15463Y48874D01*
G01X15463Y48874D02*
G01X15463Y48112D01*
G01X15463Y48112D02*
G01X10383Y48112D01*
G01X10383Y48112D02*
G01X10383Y48874D01*
G01X10383Y48874D02*
G01X10383Y49636D01*
G01X15463Y48874D02*
G01X15717Y48874D01*
G01X10383Y48874D02*
G01X10129Y48874D01*
G01X75661Y13441D02*
G01X75661Y5941D01*
G01X65501Y5941D01*
G01X65501Y13441D01*
G01X75661Y13441D01*
G01X6525Y94096D02*
G01X6525Y101596D01*
G01X16685Y101596D01*
G01X16685Y94096D01*
G01X6525Y94096D01*
G01X25736Y99690D02*
G01X36336Y99690D01*
G01X36336Y94890D01*
G01X25736Y94890D01*
G01X25736Y99690D01*
G01X36336Y99190D02*
G01X25736Y99190D01*
G54D19*
G01X10843Y83682D02*
G01X13383Y83682D01*
G01X13383Y73522D01*
G01X10843Y73522D01*
G01X10843Y75427D01*
G54D20*
G01X10843Y83682D02*
G01X10843Y75427D01*
G54D24*
G01X74264Y33530D02*
G01X75354Y33530D01*
G01X74264Y33530D02*
G01X74264Y33997D01*
G01X74315Y34152D01*
G01X74366Y34206D01*
G01X74470Y34257D01*
G01X74574Y34257D01*
G01X74678Y34206D01*
G01X74731Y34152D01*
G01X74782Y33997D01*
G01X74782Y33530D01*
G01X74782Y33893D02*
G01X75354Y34257D01*
G01X74264Y34704D02*
G01X74264Y35275D01*
G01X74678Y34965D01*
G01X74678Y35120D01*
G01X74731Y35224D01*
G01X74782Y35275D01*
G01X74937Y35328D01*
G01X75041Y35328D01*
G01X75199Y35275D01*
G01X75303Y35171D01*
G01X75354Y35016D01*
G01X75354Y34861D01*
G01X75303Y34704D01*
G01X75250Y34653D01*
G01X75145Y34599D01*
G01X75717Y35671D02*
G01X75717Y36606D01*
G01X74470Y36949D02*
G01X74419Y37053D01*
G01X74264Y37208D01*
G01X75354Y37208D01*
G01X74264Y37863D02*
G01X74315Y37708D01*
G01X74470Y37604D01*
G01X74731Y37551D01*
G01X74886Y37551D01*
G01X75145Y37604D01*
G01X75303Y37708D01*
G01X75354Y37863D01*
G01X75354Y37967D01*
G01X75303Y38122D01*
G01X75145Y38227D01*
G01X74886Y38280D01*
G01X74731Y38280D01*
G01X74470Y38227D01*
G01X74315Y38122D01*
G01X74264Y37967D01*
G01X74264Y37863D01*
G01X74264Y38623D02*
G01X75354Y38623D01*
G01X74264Y39349D02*
G01X74990Y38623D01*
G01X74731Y38882D02*
G01X75354Y39349D01*
G01X74264Y47170D02*
G01X75354Y47170D01*
G01X74264Y47170D02*
G01X74264Y47637D01*
G01X74315Y47792D01*
G01X74366Y47845D01*
G01X74470Y47896D01*
G01X74574Y47896D01*
G01X74678Y47845D01*
G01X74731Y47792D01*
G01X74782Y47637D01*
G01X74782Y47170D01*
G01X74782Y47533D02*
G01X75354Y47896D01*
G01X74523Y48293D02*
G01X74470Y48293D01*
G01X74366Y48343D01*
G01X74315Y48397D01*
G01X74264Y48501D01*
G01X74264Y48707D01*
G01X74315Y48811D01*
G01X74366Y48864D01*
G01X74470Y48915D01*
G01X74574Y48915D01*
G01X74678Y48864D01*
G01X74835Y48760D01*
G01X75354Y48239D01*
G01X75354Y48968D01*
G01X75717Y49311D02*
G01X75717Y50246D01*
G01X74264Y51107D02*
G01X74990Y50589D01*
G01X74990Y51368D01*
G01X74264Y51107D02*
G01X75354Y51107D01*
G01X75145Y51816D02*
G01X75199Y51762D01*
G01X75145Y51711D01*
G01X75095Y51762D01*
G01X75145Y51816D01*
G01X75250Y51816D01*
G01X75354Y51711D01*
G01X74264Y52885D02*
G01X75354Y52364D01*
G01X74264Y52158D02*
G01X74264Y52885D01*
G01X74264Y53228D02*
G01X75354Y53228D01*
G01X74264Y53954D02*
G01X74990Y53228D01*
G01X74731Y53487D02*
G01X75354Y53954D01*
G01X69946Y68051D02*
G01X71036Y68051D01*
G01X69946Y68051D02*
G01X69946Y68519D01*
G01X69997Y68673D01*
G01X70048Y68727D01*
G01X70152Y68778D01*
G01X70256Y68778D01*
G01X70360Y68727D01*
G01X70413Y68673D01*
G01X70464Y68519D01*
G01X70464Y68051D01*
G01X70464Y68414D02*
G01X71036Y68778D01*
G01X70152Y69121D02*
G01X70101Y69225D01*
G01X69946Y69382D01*
G01X71036Y69382D01*
G01X71399Y69725D02*
G01X71399Y70660D01*
G01X69946Y71521D02*
G01X70672Y71003D01*
G01X70672Y71782D01*
G01X69946Y71521D02*
G01X71036Y71521D01*
G01X70827Y72229D02*
G01X70881Y72176D01*
G01X70827Y72125D01*
G01X70777Y72176D01*
G01X70827Y72229D01*
G01X70932Y72229D01*
G01X71036Y72125D01*
G01X69946Y73299D02*
G01X71036Y72778D01*
G01X69946Y72572D02*
G01X69946Y73299D01*
G01X69946Y73642D02*
G01X71036Y73642D01*
G01X69946Y74368D02*
G01X70672Y73642D01*
G01X70413Y73901D02*
G01X71036Y74368D01*
G01X27419Y64363D02*
G01X27365Y64467D01*
G01X27261Y64571D01*
G01X27160Y64622D01*
G01X26951Y64622D01*
G01X26847Y64571D01*
G01X26743Y64467D01*
G01X26690Y64363D01*
G01X26639Y64208D01*
G01X26639Y63949D01*
G01X26690Y63792D01*
G01X26743Y63687D01*
G01X26847Y63583D01*
G01X26951Y63533D01*
G01X27160Y63533D01*
G01X27261Y63583D01*
G01X27365Y63687D01*
G01X27419Y63792D01*
G01X27813Y64363D02*
G01X27813Y64416D01*
G01X27866Y64521D01*
G01X27917Y64571D01*
G01X28021Y64622D01*
G01X28229Y64622D01*
G01X28333Y64571D01*
G01X28384Y64521D01*
G01X28437Y64416D01*
G01X28437Y64312D01*
G01X28384Y64208D01*
G01X28280Y64051D01*
G01X27762Y63533D01*
G01X28488Y63533D01*
G01X28831Y63169D02*
G01X29766Y63169D01*
G01X30162Y64363D02*
G01X30162Y64416D01*
G01X30213Y64521D01*
G01X30266Y64571D01*
G01X30370Y64622D01*
G01X30576Y64622D01*
G01X30680Y64571D01*
G01X30734Y64521D01*
G01X30784Y64416D01*
G01X30784Y64312D01*
G01X30734Y64208D01*
G01X30629Y64051D01*
G01X30109Y63533D01*
G01X30838Y63533D01*
G01X31231Y64363D02*
G01X31231Y64416D01*
G01X31285Y64521D01*
G01X31335Y64571D01*
G01X31440Y64622D01*
G01X31648Y64622D01*
G01X31752Y64571D01*
G01X31803Y64521D01*
G01X31856Y64416D01*
G01X31856Y64312D01*
G01X31803Y64208D01*
G01X31699Y64051D01*
G01X31181Y63533D01*
G01X31907Y63533D01*
G01X32250Y64622D02*
G01X32250Y63533D01*
G01X32250Y64622D02*
G01X32717Y64622D01*
G01X32875Y64571D01*
G01X32926Y64521D01*
G01X32976Y64416D01*
G01X32976Y64259D01*
G01X32926Y64155D01*
G01X32875Y64104D01*
G01X32717Y64051D01*
G01X32250Y64051D01*
G01X27546Y69443D02*
G01X27492Y69547D01*
G01X27388Y69651D01*
G01X27287Y69702D01*
G01X27078Y69702D01*
G01X26974Y69651D01*
G01X26870Y69547D01*
G01X26817Y69443D01*
G01X26766Y69288D01*
G01X26766Y69029D01*
G01X26817Y68872D01*
G01X26870Y68767D01*
G01X26974Y68663D01*
G01X27078Y68613D01*
G01X27287Y68613D01*
G01X27388Y68663D01*
G01X27492Y68767D01*
G01X27546Y68872D01*
G01X27889Y69496D02*
G01X27993Y69547D01*
G01X28148Y69702D01*
G01X28148Y68613D01*
G01X28491Y68249D02*
G01X29425Y68249D01*
G01X29822Y69443D02*
G01X29822Y69496D01*
G01X29872Y69601D01*
G01X29926Y69651D01*
G01X30030Y69702D01*
G01X30236Y69702D01*
G01X30340Y69651D01*
G01X30393Y69601D01*
G01X30444Y69496D01*
G01X30444Y69392D01*
G01X30393Y69288D01*
G01X30289Y69131D01*
G01X29768Y68613D01*
G01X30497Y68613D01*
G01X30891Y69443D02*
G01X30891Y69496D01*
G01X30944Y69601D01*
G01X30995Y69651D01*
G01X31099Y69702D01*
G01X31308Y69702D01*
G01X31412Y69651D01*
G01X31462Y69601D01*
G01X31516Y69496D01*
G01X31516Y69392D01*
G01X31462Y69288D01*
G01X31358Y69131D01*
G01X30840Y68613D01*
G01X31567Y68613D01*
G01X31910Y69702D02*
G01X31910Y68613D01*
G01X31910Y69702D02*
G01X32377Y69702D01*
G01X32532Y69651D01*
G01X32585Y69601D01*
G01X32636Y69496D01*
G01X32636Y69339D01*
G01X32585Y69235D01*
G01X32532Y69184D01*
G01X32377Y69131D01*
G01X31910Y69131D01*
G01X34391Y58797D02*
G01X34287Y58743D01*
G01X34183Y58639D01*
G01X34132Y58538D01*
G01X34132Y58329D01*
G01X34183Y58225D01*
G01X34287Y58121D01*
G01X34391Y58068D01*
G01X34546Y58017D01*
G01X34805Y58017D01*
G01X34963Y58068D01*
G01X35067Y58121D01*
G01X35171Y58225D01*
G01X35222Y58329D01*
G01X35222Y58538D01*
G01X35171Y58639D01*
G01X35067Y58743D01*
G01X34963Y58797D01*
G01X34132Y59140D02*
G01X35222Y59140D01*
G01X34132Y59140D02*
G01X34132Y59607D01*
G01X34183Y59762D01*
G01X34234Y59815D01*
G01X34338Y59866D01*
G01X34442Y59866D01*
G01X34546Y59815D01*
G01X34599Y59762D01*
G01X34650Y59607D01*
G01X34650Y59140D01*
G01X34650Y59503D02*
G01X35222Y59866D01*
G01X34132Y60209D02*
G01X34650Y60625D01*
G01X35222Y60625D01*
G01X34132Y61039D02*
G01X34650Y60625D01*
G01X34287Y62111D02*
G01X34183Y62007D01*
G01X34132Y61852D01*
G01X34132Y61644D01*
G01X34183Y61487D01*
G01X34287Y61382D01*
G01X34391Y61382D01*
G01X34495Y61436D01*
G01X34546Y61487D01*
G01X34599Y61591D01*
G01X34704Y61903D01*
G01X34754Y62007D01*
G01X34805Y62058D01*
G01X34909Y62111D01*
G01X35067Y62111D01*
G01X35171Y62007D01*
G01X35222Y61852D01*
G01X35222Y61644D01*
G01X35171Y61487D01*
G01X35067Y61382D01*
G01X34132Y62817D02*
G01X35222Y62817D01*
G01X34132Y62454D02*
G01X34132Y63181D01*
G01X34132Y63940D02*
G01X35222Y63524D01*
G01X34132Y63940D02*
G01X35222Y64354D01*
G01X34858Y63681D02*
G01X34858Y64199D01*
G01X34132Y64697D02*
G01X35222Y64697D01*
G01X35222Y64697D02*
G01X35222Y65322D01*
G01X35585Y65665D02*
G01X35585Y66600D01*
G01X34338Y66942D02*
G01X34287Y67047D01*
G01X34132Y67202D01*
G01X35222Y67202D01*
G01X34287Y68169D02*
G01X34183Y68116D01*
G01X34132Y67961D01*
G01X34132Y67857D01*
G01X34183Y67702D01*
G01X34338Y67598D01*
G01X34599Y67544D01*
G01X34858Y67544D01*
G01X35067Y67598D01*
G01X35171Y67702D01*
G01X35222Y67857D01*
G01X35222Y67910D01*
G01X35171Y68065D01*
G01X35067Y68169D01*
G01X34909Y68220D01*
G01X34858Y68220D01*
G01X34704Y68169D01*
G01X34599Y68065D01*
G01X34546Y67910D01*
G01X34546Y67857D01*
G01X34599Y67702D01*
G01X34704Y67598D01*
G01X34858Y67544D01*
G01X34132Y68563D02*
G01X35222Y68563D01*
G01X34132Y68563D02*
G01X35222Y68980D01*
G01X34132Y69396D02*
G01X35222Y68980D01*
G01X34132Y69396D02*
G01X35222Y69396D01*
G01X34132Y69739D02*
G01X35222Y69739D01*
G01X34132Y70465D02*
G01X35222Y70465D01*
G01X34650Y69739D02*
G01X34650Y70465D01*
G01X50261Y61066D02*
G01X51351Y60652D01*
G01X50261Y61066D02*
G01X51351Y61483D01*
G01X50987Y60807D02*
G01X50987Y61328D01*
G01X50261Y62189D02*
G01X51351Y62189D01*
G01X50261Y61826D02*
G01X50261Y62552D01*
G01X50261Y62895D02*
G01X51351Y62895D01*
G01X50261Y62895D02*
G01X51351Y63312D01*
G01X50261Y63728D02*
G01X51351Y63312D01*
G01X50261Y63728D02*
G01X51351Y63728D01*
G01X50261Y64071D02*
G01X51351Y64071D01*
G01X50261Y64071D02*
G01X50261Y64747D01*
G01X50779Y64071D02*
G01X50779Y64485D01*
G01X51351Y64071D02*
G01X51351Y64747D01*
G01X50520Y65867D02*
G01X50416Y65816D01*
G01X50312Y65712D01*
G01X50261Y65608D01*
G01X50261Y65399D01*
G01X50312Y65295D01*
G01X50416Y65191D01*
G01X50520Y65140D01*
G01X50675Y65090D01*
G01X50934Y65090D01*
G01X51092Y65140D01*
G01X51196Y65191D01*
G01X51300Y65295D01*
G01X51351Y65399D01*
G01X51351Y65608D01*
G01X51300Y65712D01*
G01X51196Y65816D01*
G01X51092Y65867D01*
G01X50934Y65867D01*
G01X50934Y65608D02*
G01X50934Y65867D01*
G01X50261Y66626D02*
G01X51351Y66210D01*
G01X50261Y66626D02*
G01X51351Y67043D01*
G01X50987Y66367D02*
G01X50987Y66885D01*
G01X50261Y67490D02*
G01X50261Y68061D01*
G01X50675Y67749D01*
G01X50675Y67904D01*
G01X50728Y68008D01*
G01X50779Y68061D01*
G01X50934Y68112D01*
G01X51038Y68112D01*
G01X51196Y68061D01*
G01X51300Y67957D01*
G01X51351Y67800D01*
G01X51351Y67645D01*
G01X51300Y67490D01*
G01X51247Y67437D01*
G01X51142Y67386D01*
G01X50520Y68506D02*
G01X50467Y68506D01*
G01X50363Y68559D01*
G01X50312Y68610D01*
G01X50261Y68714D01*
G01X50261Y68922D01*
G01X50312Y69027D01*
G01X50363Y69077D01*
G01X50467Y69131D01*
G01X50571Y69131D01*
G01X50675Y69077D01*
G01X50832Y68976D01*
G01X51351Y68455D01*
G01X51351Y69181D01*
G01X50261Y69786D02*
G01X50312Y69629D01*
G01X50416Y69578D01*
G01X50520Y69578D01*
G01X50624Y69629D01*
G01X50675Y69733D01*
G01X50728Y69941D01*
G01X50779Y70096D01*
G01X50883Y70200D01*
G01X50987Y70253D01*
G01X51142Y70253D01*
G01X51247Y70200D01*
G01X51300Y70149D01*
G01X51351Y69992D01*
G01X51351Y69786D01*
G01X51300Y69629D01*
G01X51247Y69578D01*
G01X51142Y69524D01*
G01X50987Y69524D01*
G01X50883Y69578D01*
G01X50779Y69682D01*
G01X50728Y69837D01*
G01X50675Y70045D01*
G01X50624Y70149D01*
G01X50520Y70200D01*
G01X50416Y70200D01*
G01X50312Y70149D01*
G01X50261Y69992D01*
G01X50261Y69786D01*
G01X51714Y70596D02*
G01X51714Y71531D01*
G01X50261Y71874D02*
G01X51351Y71874D01*
G01X50261Y71874D02*
G01X50261Y72341D01*
G01X50312Y72496D01*
G01X50363Y72550D01*
G01X50467Y72600D01*
G01X50624Y72600D01*
G01X50728Y72550D01*
G01X50779Y72496D01*
G01X50832Y72341D01*
G01X50832Y71874D01*
G01X50261Y72943D02*
G01X51038Y72943D01*
G01X51196Y72997D01*
G01X51300Y73101D01*
G01X51351Y73256D01*
G01X51351Y73360D01*
G01X51300Y73515D01*
G01X51196Y73619D01*
G01X51038Y73672D01*
G01X50261Y73672D01*
G01X10510Y33182D02*
G01X10561Y33078D01*
G01X10665Y32974D01*
G01X10769Y32920D01*
G01X10924Y32870D01*
G01X11183Y32870D01*
G01X11341Y32920D01*
G01X11445Y32974D01*
G01X11549Y33078D01*
G01X11600Y33182D01*
G01X11600Y33390D01*
G01X11549Y33492D01*
G01X11445Y33596D01*
G01X11341Y33649D01*
G01X11183Y33700D01*
G01X10924Y33700D01*
G01X10769Y33649D01*
G01X10665Y33596D01*
G01X10561Y33492D01*
G01X10510Y33390D01*
G01X10510Y33182D01*
G01X11391Y33337D02*
G01X11704Y33649D01*
G01X10769Y34097D02*
G01X10716Y34097D01*
G01X10612Y34147D01*
G01X10561Y34201D01*
G01X10510Y34305D01*
G01X10510Y34511D01*
G01X10561Y34615D01*
G01X10612Y34668D01*
G01X10716Y34719D01*
G01X10820Y34719D01*
G01X10924Y34668D01*
G01X11082Y34564D01*
G01X11600Y34043D01*
G01X11600Y34772D01*
G01X11963Y35115D02*
G01X11963Y36050D01*
G01X10510Y36393D02*
G01X11600Y36393D01*
G01X10510Y36736D02*
G01X11600Y36736D01*
G01X10510Y36736D02*
G01X10510Y37203D01*
G01X10561Y37358D01*
G01X10612Y37411D01*
G01X10716Y37462D01*
G01X10820Y37462D01*
G01X10924Y37411D01*
G01X10977Y37358D01*
G01X11028Y37203D01*
G01X11028Y36736D01*
G01X11028Y37099D02*
G01X11600Y37462D01*
G01X10510Y37805D02*
G01X11600Y37805D01*
G01X10510Y37805D02*
G01X10510Y38481D01*
G01X11028Y37805D02*
G01X11028Y38221D01*
G01X10510Y39550D02*
G01X11600Y38823D01*
G01X10510Y38823D02*
G01X10510Y39550D01*
G01X11600Y38823D02*
G01X11600Y39550D01*
G01X10510Y40413D02*
G01X11236Y39893D01*
G01X11236Y40673D01*
G01X10510Y40413D02*
G01X11600Y40413D01*
G01X10510Y41536D02*
G01X11236Y41015D01*
G01X11236Y41795D01*
G01X10510Y41536D02*
G01X11600Y41536D01*
G01X10510Y42138D02*
G01X11600Y42138D01*
G01X10510Y42138D02*
G01X11600Y42865D01*
G01X10510Y42865D02*
G01X11600Y42865D01*
G01X13362Y18775D02*
G01X13258Y18724D01*
G01X13154Y18620D01*
G01X13101Y18516D01*
G01X13050Y18361D01*
G01X13050Y18102D01*
G01X13101Y17945D01*
G01X13154Y17840D01*
G01X13258Y17736D01*
G01X13362Y17686D01*
G01X13571Y17686D01*
G01X13672Y17736D01*
G01X13776Y17840D01*
G01X13830Y17945D01*
G01X13881Y18102D01*
G01X13881Y18361D01*
G01X13830Y18516D01*
G01X13776Y18620D01*
G01X13672Y18724D01*
G01X13571Y18775D01*
G01X13362Y18775D01*
G01X13517Y17894D02*
G01X13830Y17581D01*
G01X14328Y18775D02*
G01X14899Y18775D01*
G01X14587Y18361D01*
G01X14744Y18361D01*
G01X14848Y18308D01*
G01X14899Y18257D01*
G01X14952Y18102D01*
G01X14952Y17998D01*
G01X14899Y17840D01*
G01X14795Y17736D01*
G01X14640Y17686D01*
G01X14485Y17686D01*
G01X14328Y17736D01*
G01X14277Y17790D01*
G01X14224Y17894D01*
G01X15295Y17322D02*
G01X16230Y17322D01*
G01X16573Y18775D02*
G01X16573Y17686D01*
G01X16916Y18775D02*
G01X16916Y17686D01*
G01X16916Y18775D02*
G01X17383Y18775D01*
G01X17538Y18724D01*
G01X17592Y18674D01*
G01X17642Y18569D01*
G01X17642Y18465D01*
G01X17592Y18361D01*
G01X17538Y18308D01*
G01X17383Y18257D01*
G01X16916Y18257D01*
G01X17279Y18257D02*
G01X17642Y17686D01*
G01X17985Y18775D02*
G01X17985Y17686D01*
G01X17985Y18775D02*
G01X18661Y18775D01*
G01X17985Y18257D02*
G01X18402Y18257D01*
G01X19730Y18775D02*
G01X19004Y17686D01*
G01X19004Y18775D02*
G01X19730Y18775D01*
G01X19004Y17686D02*
G01X19730Y17686D01*
G01X20594Y18775D02*
G01X20073Y18049D01*
G01X20853Y18049D01*
G01X20594Y18775D02*
G01X20594Y17686D01*
G01X21717Y18775D02*
G01X21196Y18049D01*
G01X21976Y18049D01*
G01X21717Y18775D02*
G01X21717Y17686D01*
G01X22318Y18775D02*
G01X22318Y17686D01*
G01X22318Y18775D02*
G01X23045Y17686D01*
G01X23045Y18775D02*
G01X23045Y17686D01*
G01X33428Y31094D02*
G01X33324Y31043D01*
G01X33220Y30939D01*
G01X33167Y30835D01*
G01X33116Y30680D01*
G01X33116Y30421D01*
G01X33167Y30264D01*
G01X33220Y30159D01*
G01X33324Y30055D01*
G01X33428Y30005D01*
G01X33637Y30005D01*
G01X33738Y30055D01*
G01X33842Y30159D01*
G01X33896Y30264D01*
G01X33947Y30421D01*
G01X33947Y30680D01*
G01X33896Y30835D01*
G01X33842Y30939D01*
G01X33738Y31043D01*
G01X33637Y31094D01*
G01X33428Y31094D01*
G01X33583Y30213D02*
G01X33896Y29900D01*
G01X34810Y31094D02*
G01X34290Y30368D01*
G01X35069Y30368D01*
G01X34810Y31094D02*
G01X34810Y30005D01*
G01X35412Y29641D02*
G01X36347Y29641D01*
G01X36690Y31094D02*
G01X36690Y30005D01*
G01X37033Y31094D02*
G01X37033Y30005D01*
G01X37033Y31094D02*
G01X37500Y31094D01*
G01X37658Y31043D01*
G01X37708Y30993D01*
G01X37762Y30888D01*
G01X37762Y30784D01*
G01X37708Y30680D01*
G01X37658Y30627D01*
G01X37500Y30576D01*
G01X37033Y30576D01*
G01X37396Y30576D02*
G01X37762Y30005D01*
G01X38105Y31094D02*
G01X38105Y30005D01*
G01X38105Y31094D02*
G01X38780Y31094D01*
G01X38105Y30576D02*
G01X38519Y30576D01*
G01X39850Y31094D02*
G01X39123Y30005D01*
G01X39123Y31094D02*
G01X39850Y31094D01*
G01X39123Y30005D02*
G01X39850Y30005D01*
G01X40711Y31094D02*
G01X40192Y30368D01*
G01X40972Y30368D01*
G01X40711Y31094D02*
G01X40711Y30005D01*
G01X41833Y31094D02*
G01X41315Y30368D01*
G01X42095Y30368D01*
G01X41833Y31094D02*
G01X41833Y30005D01*
G01X42438Y31094D02*
G01X42438Y30005D01*
G01X42438Y31094D02*
G01X43164Y30005D01*
G01X43164Y31094D02*
G01X43164Y30005D01*
G01X46057Y100550D02*
G01X45539Y100550D01*
G01X45486Y100083D01*
G01X45539Y100136D01*
G01X45694Y100187D01*
G01X45852Y100187D01*
G01X46007Y100136D01*
G01X46111Y100032D01*
G01X46161Y99877D01*
G01X46161Y99773D01*
G01X46111Y99616D01*
G01X46007Y99512D01*
G01X45852Y99461D01*
G01X45694Y99461D01*
G01X45539Y99512D01*
G01X45486Y99565D01*
G01X45435Y99669D01*
G01X46504Y100550D02*
G01X46921Y99461D01*
G01X47337Y100550D02*
G01X46921Y99461D01*
G01X47680Y99098D02*
G01X48615Y99098D01*
G01X48958Y99098D02*
G01X49893Y99098D01*
G01X51015Y100291D02*
G01X50962Y100396D01*
G01X50858Y100500D01*
G01X50756Y100550D01*
G01X50548Y100550D01*
G01X50444Y100500D01*
G01X50340Y100396D01*
G01X50286Y100291D01*
G01X50236Y100136D01*
G01X50236Y99877D01*
G01X50286Y99720D01*
G01X50340Y99616D01*
G01X50444Y99512D01*
G01X50548Y99461D01*
G01X50756Y99461D01*
G01X50858Y99512D01*
G01X50962Y99616D01*
G01X51015Y99720D01*
G01X51015Y99877D01*
G01X50756Y99877D02*
G01X51015Y99877D01*
G01X51358Y100550D02*
G01X51358Y99461D01*
G01X51358Y100550D02*
G01X52085Y99461D01*
G01X52085Y100550D02*
G01X52085Y99461D01*
G01X52428Y100550D02*
G01X52428Y99461D01*
G01X52428Y100550D02*
G01X52791Y100550D01*
G01X52948Y100500D01*
G01X53052Y100396D01*
G01X53103Y100291D01*
G01X53157Y100136D01*
G01X53157Y99877D01*
G01X53103Y99720D01*
G01X53052Y99616D01*
G01X52948Y99512D01*
G01X52791Y99461D01*
G01X52428Y99461D01*
G01X53500Y99098D02*
G01X54434Y99098D01*
G01X54777Y99098D02*
G01X55712Y99098D01*
G01X56055Y100550D02*
G01X56055Y99461D01*
G01X56055Y100550D02*
G01X56522Y100550D01*
G01X56677Y100500D01*
G01X56730Y100449D01*
G01X56781Y100345D01*
G01X56781Y100187D01*
G01X56730Y100083D01*
G01X56677Y100032D01*
G01X56522Y99979D01*
G01X56055Y99979D01*
G01X57437Y100550D02*
G01X57332Y100500D01*
G01X57228Y100396D01*
G01X57177Y100291D01*
G01X57124Y100136D01*
G01X57124Y99877D01*
G01X57177Y99720D01*
G01X57228Y99616D01*
G01X57332Y99512D01*
G01X57437Y99461D01*
G01X57645Y99461D01*
G01X57749Y99512D01*
G01X57853Y99616D01*
G01X57904Y99720D01*
G01X57957Y99877D01*
G01X57957Y100136D01*
G01X57904Y100291D01*
G01X57853Y100396D01*
G01X57749Y100500D01*
G01X57645Y100550D01*
G01X57437Y100550D01*
G01X58663Y100550D02*
G01X58663Y99461D01*
G01X58300Y100550D02*
G01X59027Y100550D01*
G01X86128Y80812D02*
G01X86232Y80865D01*
G01X86334Y80970D01*
G01X86387Y81071D01*
G01X86387Y81280D01*
G01X86334Y81384D01*
G01X86232Y81488D01*
G01X86128Y81541D01*
G01X85971Y81592D01*
G01X85712Y81592D01*
G01X85557Y81541D01*
G01X85453Y81488D01*
G01X85349Y81384D01*
G01X85295Y81280D01*
G01X85295Y81071D01*
G01X85349Y80970D01*
G01X85453Y80865D01*
G01X85557Y80812D01*
G01X85712Y80812D01*
G01X85712Y81071D02*
G01X85712Y80812D01*
G01X86387Y80469D02*
G01X85295Y80469D01*
G01X86387Y80469D02*
G01X85295Y79743D01*
G01X86387Y79743D02*
G01X85295Y79743D01*
G01X86387Y79400D02*
G01X85295Y79400D01*
G01X86387Y79400D02*
G01X86387Y79037D01*
G01X86334Y78879D01*
G01X86232Y78775D01*
G01X86128Y78724D01*
G01X85971Y78671D01*
G01X85712Y78671D01*
G01X85557Y78724D01*
G01X85453Y78775D01*
G01X85349Y78879D01*
G01X85295Y79037D01*
G01X85295Y79400D01*
G01X84932Y78328D02*
G01X84932Y77393D01*
G01X84932Y77050D02*
G01X84932Y76116D01*
G01X86024Y75773D02*
G01X85295Y75460D01*
G01X86024Y75150D02*
G01X85295Y75460D01*
G01X85867Y74183D02*
G01X85971Y74287D01*
G01X86024Y74391D01*
G01X86024Y74546D01*
G01X85971Y74650D01*
G01X85867Y74754D01*
G01X85712Y74808D01*
G01X85608Y74808D01*
G01X85453Y74754D01*
G01X85349Y74650D01*
G01X85295Y74546D01*
G01X85295Y74391D01*
G01X85349Y74287D01*
G01X85453Y74183D01*
G01X85867Y73218D02*
G01X85971Y73322D01*
G01X86024Y73426D01*
G01X86024Y73581D01*
G01X85971Y73685D01*
G01X85867Y73789D01*
G01X85712Y73840D01*
G01X85608Y73840D01*
G01X85453Y73789D01*
G01X85349Y73685D01*
G01X85295Y73581D01*
G01X85295Y73426D01*
G01X85349Y73322D01*
G01X85453Y73218D01*
G01X84932Y72875D02*
G01X84932Y71940D01*
G01X84932Y71597D02*
G01X84932Y70660D01*
G01X86232Y69590D02*
G01X86334Y69695D01*
G01X86387Y69850D01*
G01X86387Y70058D01*
G01X86334Y70213D01*
G01X86232Y70317D01*
G01X86128Y70317D01*
G01X86024Y70266D01*
G01X85971Y70213D01*
G01X85920Y70111D01*
G01X85816Y69799D01*
G01X85763Y69695D01*
G01X85712Y69641D01*
G01X85608Y69590D01*
G01X85453Y69590D01*
G01X85349Y69695D01*
G01X85295Y69850D01*
G01X85295Y70058D01*
G01X85349Y70213D01*
G01X85453Y70317D01*
G01X86179Y69248D02*
G01X86232Y69143D01*
G01X86387Y68988D01*
G01X85295Y68988D01*
G01X86001Y60032D02*
G01X86106Y60086D01*
G01X86207Y60190D01*
G01X86260Y60291D01*
G01X86260Y60500D01*
G01X86207Y60604D01*
G01X86106Y60708D01*
G01X86001Y60761D01*
G01X85844Y60812D01*
G01X85585Y60812D01*
G01X85430Y60761D01*
G01X85326Y60708D01*
G01X85222Y60604D01*
G01X85168Y60500D01*
G01X85168Y60291D01*
G01X85222Y60190D01*
G01X85326Y60086D01*
G01X85430Y60032D01*
G01X85585Y60032D01*
G01X85585Y60291D02*
G01X85585Y60032D01*
G01X86260Y59690D02*
G01X85168Y59690D01*
G01X86260Y59690D02*
G01X85168Y58963D01*
G01X86260Y58963D02*
G01X85168Y58963D01*
G01X86260Y58620D02*
G01X85168Y58620D01*
G01X86260Y58620D02*
G01X86260Y58257D01*
G01X86207Y58099D01*
G01X86106Y57995D01*
G01X86001Y57945D01*
G01X85844Y57891D01*
G01X85585Y57891D01*
G01X85430Y57945D01*
G01X85326Y57995D01*
G01X85222Y58099D01*
G01X85168Y58257D01*
G01X85168Y58620D01*
G01X84805Y57548D02*
G01X84805Y56614D01*
G01X84805Y56271D02*
G01X84805Y55336D01*
G01X85897Y54993D02*
G01X85168Y54681D01*
G01X85897Y54371D02*
G01X85168Y54681D01*
G01X85740Y53403D02*
G01X85844Y53507D01*
G01X85897Y53611D01*
G01X85897Y53766D01*
G01X85844Y53870D01*
G01X85740Y53975D01*
G01X85585Y54028D01*
G01X85481Y54028D01*
G01X85326Y53975D01*
G01X85222Y53870D01*
G01X85168Y53766D01*
G01X85168Y53611D01*
G01X85222Y53507D01*
G01X85326Y53403D01*
G01X85740Y52438D02*
G01X85844Y52542D01*
G01X85897Y52646D01*
G01X85897Y52801D01*
G01X85844Y52905D01*
G01X85740Y53009D01*
G01X85585Y53060D01*
G01X85481Y53060D01*
G01X85326Y53009D01*
G01X85222Y52905D01*
G01X85168Y52801D01*
G01X85168Y52646D01*
G01X85222Y52542D01*
G01X85326Y52438D01*
G01X84805Y52095D02*
G01X84805Y51160D01*
G01X84805Y50817D02*
G01X84805Y49880D01*
G01X86106Y48811D02*
G01X86207Y48915D01*
G01X86260Y49070D01*
G01X86260Y49278D01*
G01X86207Y49433D01*
G01X86106Y49537D01*
G01X86001Y49537D01*
G01X85897Y49486D01*
G01X85844Y49433D01*
G01X85793Y49331D01*
G01X85689Y49019D01*
G01X85636Y48915D01*
G01X85585Y48861D01*
G01X85481Y48811D01*
G01X85326Y48811D01*
G01X85222Y48915D01*
G01X85168Y49070D01*
G01X85168Y49278D01*
G01X85222Y49433D01*
G01X85326Y49537D01*
G01X86001Y48417D02*
G01X86052Y48417D01*
G01X86156Y48364D01*
G01X86207Y48313D01*
G01X86260Y48209D01*
G01X86260Y48000D01*
G01X86207Y47896D01*
G01X86156Y47845D01*
G01X86052Y47792D01*
G01X85948Y47792D01*
G01X85844Y47845D01*
G01X85689Y47947D01*
G01X85168Y48468D01*
G01X85168Y47741D01*
G01X34190Y16743D02*
G01X34086Y16690D01*
G01X33982Y16588D01*
G01X33929Y16484D01*
G01X33878Y16327D01*
G01X33878Y16068D01*
G01X33929Y15913D01*
G01X33982Y15808D01*
G01X34086Y15704D01*
G01X34190Y15651D01*
G01X34399Y15651D01*
G01X34500Y15704D01*
G01X34604Y15808D01*
G01X34658Y15913D01*
G01X34709Y16068D01*
G01X34709Y16327D01*
G01X34658Y16484D01*
G01X34604Y16588D01*
G01X34500Y16690D01*
G01X34399Y16743D01*
G01X34190Y16743D01*
G01X35052Y16535D02*
G01X35156Y16588D01*
G01X35313Y16743D01*
G01X35313Y15651D01*
G01X35656Y15288D02*
G01X36591Y15288D01*
G01X36934Y15288D02*
G01X37868Y15288D01*
G01X38211Y15288D02*
G01X39146Y15288D01*
G01X39801Y16743D02*
G01X39697Y16690D01*
G01X39593Y16588D01*
G01X39542Y16484D01*
G01X39489Y16327D01*
G01X39489Y16068D01*
G01X39542Y15913D01*
G01X39593Y15808D01*
G01X39697Y15704D01*
G01X39801Y15651D01*
G01X40010Y15651D01*
G01X40114Y15704D01*
G01X40215Y15808D01*
G01X40269Y15913D01*
G01X40319Y16068D01*
G01X40319Y16327D01*
G01X40269Y16484D01*
G01X40215Y16588D01*
G01X40114Y16690D01*
G01X40010Y16743D01*
G01X39801Y16743D01*
G01X40716Y16484D02*
G01X40716Y16535D01*
G01X40767Y16639D01*
G01X40820Y16690D01*
G01X40924Y16743D01*
G01X41130Y16743D01*
G01X41234Y16690D01*
G01X41287Y16639D01*
G01X41338Y16535D01*
G01X41338Y16431D01*
G01X41287Y16327D01*
G01X41183Y16172D01*
G01X40662Y15651D01*
G01X41391Y15651D01*
G01X41734Y15288D02*
G01X42669Y15288D01*
G01X43012Y15288D02*
G01X43947Y15288D01*
G01X44289Y15288D02*
G01X45224Y15288D01*
G01X45880Y16743D02*
G01X45775Y16690D01*
G01X45671Y16588D01*
G01X45620Y16484D01*
G01X45567Y16327D01*
G01X45567Y16068D01*
G01X45620Y15913D01*
G01X45671Y15808D01*
G01X45775Y15704D01*
G01X45880Y15651D01*
G01X46088Y15651D01*
G01X46192Y15704D01*
G01X46296Y15808D01*
G01X46347Y15913D01*
G01X46400Y16068D01*
G01X46400Y16327D01*
G01X46347Y16484D01*
G01X46296Y16588D01*
G01X46192Y16690D01*
G01X46088Y16743D01*
G01X45880Y16743D01*
G01X46845Y16743D02*
G01X47416Y16743D01*
G01X47106Y16327D01*
G01X47261Y16327D01*
G01X47365Y16276D01*
G01X47416Y16222D01*
G01X47470Y16068D01*
G01X47470Y15963D01*
G01X47416Y15808D01*
G01X47315Y15704D01*
G01X47157Y15651D01*
G01X47002Y15651D01*
G01X46845Y15704D01*
G01X46794Y15755D01*
G01X46743Y15859D01*
G01X47812Y15288D02*
G01X48747Y15288D01*
G01X49090Y15288D02*
G01X50025Y15288D01*
G01X50368Y15288D02*
G01X51302Y15288D01*
G01X51958Y16743D02*
G01X51854Y16690D01*
G01X51749Y16588D01*
G01X51699Y16484D01*
G01X51645Y16327D01*
G01X51645Y16068D01*
G01X51699Y15913D01*
G01X51749Y15808D01*
G01X51854Y15704D01*
G01X51958Y15651D01*
G01X52166Y15651D01*
G01X52270Y15704D01*
G01X52374Y15808D01*
G01X52425Y15913D01*
G01X52478Y16068D01*
G01X52478Y16327D01*
G01X52425Y16484D01*
G01X52374Y16588D01*
G01X52270Y16690D01*
G01X52166Y16743D01*
G01X51958Y16743D01*
G01X53340Y16743D02*
G01X52821Y16017D01*
G01X53601Y16017D01*
G01X53340Y16743D02*
G01X53340Y15651D01*
G01X53944Y15288D02*
G01X54879Y15288D01*
G01X55222Y15288D02*
G01X56156Y15288D01*
G01X56499Y15288D02*
G01X57434Y15288D01*
G01X58089Y16743D02*
G01X57985Y16690D01*
G01X57881Y16588D01*
G01X57830Y16484D01*
G01X57777Y16327D01*
G01X57777Y16068D01*
G01X57830Y15913D01*
G01X57881Y15808D01*
G01X57985Y15704D01*
G01X58089Y15651D01*
G01X58298Y15651D01*
G01X58402Y15704D01*
G01X58503Y15808D01*
G01X58557Y15913D01*
G01X58607Y16068D01*
G01X58607Y16327D01*
G01X58557Y16484D01*
G01X58503Y16588D01*
G01X58402Y16690D01*
G01X58298Y16743D01*
G01X58089Y16743D01*
G01X59575Y16743D02*
G01X59055Y16743D01*
G01X59004Y16276D01*
G01X59055Y16327D01*
G01X59212Y16380D01*
G01X59367Y16380D01*
G01X59522Y16327D01*
G01X59626Y16222D01*
G01X59679Y16068D01*
G01X59679Y15963D01*
G01X59626Y15808D01*
G01X59522Y15704D01*
G01X59367Y15651D01*
G01X59212Y15651D01*
G01X59055Y15704D01*
G01X59004Y15755D01*
G01X58950Y15859D01*
G01X60022Y15288D02*
G01X60957Y15288D01*
G01X61300Y15288D02*
G01X62235Y15288D01*
G01X62577Y15288D02*
G01X63512Y15288D01*
G01X64168Y16743D02*
G01X64063Y16690D01*
G01X63959Y16588D01*
G01X63908Y16484D01*
G01X63855Y16327D01*
G01X63855Y16068D01*
G01X63908Y15913D01*
G01X63959Y15808D01*
G01X64063Y15704D01*
G01X64168Y15651D01*
G01X64376Y15651D01*
G01X64480Y15704D01*
G01X64584Y15808D01*
G01X64635Y15913D01*
G01X64688Y16068D01*
G01X64688Y16327D01*
G01X64635Y16484D01*
G01X64584Y16588D01*
G01X64480Y16690D01*
G01X64376Y16743D01*
G01X64168Y16743D01*
G01X65653Y16588D02*
G01X65603Y16690D01*
G01X65445Y16743D01*
G01X65341Y16743D01*
G01X65186Y16690D01*
G01X65082Y16535D01*
G01X65031Y16276D01*
G01X65031Y16017D01*
G01X65082Y15808D01*
G01X65186Y15704D01*
G01X65341Y15651D01*
G01X65394Y15651D01*
G01X65549Y15704D01*
G01X65653Y15808D01*
G01X65704Y15963D01*
G01X65704Y16017D01*
G01X65653Y16172D01*
G01X65549Y16276D01*
G01X65394Y16327D01*
G01X65341Y16327D01*
G01X65186Y16276D01*
G01X65082Y16172D01*
G01X65031Y16017D01*
G01X69148Y99888D02*
G01X69044Y99992D01*
G01X68889Y100042D01*
G01X68681Y100042D01*
G01X68526Y99992D01*
G01X68422Y99888D01*
G01X68422Y99783D01*
G01X68473Y99679D01*
G01X68526Y99628D01*
G01X68630Y99575D01*
G01X68943Y99471D01*
G01X69044Y99420D01*
G01X69098Y99369D01*
G01X69148Y99265D01*
G01X69148Y99108D01*
G01X69044Y99004D01*
G01X68889Y98953D01*
G01X68681Y98953D01*
G01X68526Y99004D01*
G01X68422Y99108D01*
G01X70271Y99783D02*
G01X70220Y99888D01*
G01X70116Y99992D01*
G01X70012Y100042D01*
G01X69804Y100042D01*
G01X69700Y99992D01*
G01X69596Y99888D01*
G01X69545Y99783D01*
G01X69491Y99628D01*
G01X69491Y99369D01*
G01X69545Y99212D01*
G01X69596Y99108D01*
G01X69700Y99004D01*
G01X69804Y98953D01*
G01X70012Y98953D01*
G01X70116Y99004D01*
G01X70220Y99108D01*
G01X70271Y99212D01*
G01X70614Y100042D02*
G01X70614Y98953D01*
G01X70614Y98953D02*
G01X71239Y98953D01*
G01X71582Y98590D02*
G01X72517Y98590D01*
G01X72859Y98590D02*
G01X73794Y98590D01*
G01X74863Y99888D02*
G01X74759Y99992D01*
G01X74604Y100042D01*
G01X74396Y100042D01*
G01X74241Y99992D01*
G01X74137Y99888D01*
G01X74137Y99783D01*
G01X74188Y99679D01*
G01X74241Y99628D01*
G01X74345Y99575D01*
G01X74658Y99471D01*
G01X74759Y99420D01*
G01X74813Y99369D01*
G01X74863Y99265D01*
G01X74863Y99108D01*
G01X74759Y99004D01*
G01X74604Y98953D01*
G01X74396Y98953D01*
G01X74241Y99004D01*
G01X74137Y99108D01*
G01X75206Y100042D02*
G01X75206Y98953D01*
G01X75206Y100042D02*
G01X75572Y100042D01*
G01X75727Y99992D01*
G01X75831Y99888D01*
G01X75882Y99783D01*
G01X75935Y99628D01*
G01X75935Y99369D01*
G01X75882Y99212D01*
G01X75831Y99108D01*
G01X75727Y99004D01*
G01X75572Y98953D01*
G01X75206Y98953D01*
G01X76692Y100042D02*
G01X76278Y98953D01*
G01X76692Y100042D02*
G01X77109Y98953D01*
G01X76433Y99316D02*
G01X76954Y99316D01*
G01X79712Y100042D02*
G01X79194Y100042D01*
G01X79141Y99575D01*
G01X79194Y99628D01*
G01X79349Y99679D01*
G01X79507Y99679D01*
G01X79662Y99628D01*
G01X79766Y99524D01*
G01X79816Y99369D01*
G01X79816Y99265D01*
G01X79766Y99108D01*
G01X79662Y99004D01*
G01X79507Y98953D01*
G01X79349Y98953D01*
G01X79194Y99004D01*
G01X79141Y99057D01*
G01X79090Y99161D01*
G01X80159Y100042D02*
G01X80576Y98953D01*
G01X80992Y100042D02*
G01X80576Y98953D01*
G01X81335Y98590D02*
G01X82270Y98590D01*
G01X82613Y98590D02*
G01X83548Y98590D01*
G01X84670Y99783D02*
G01X84617Y99888D01*
G01X84513Y99992D01*
G01X84411Y100042D01*
G01X84203Y100042D01*
G01X84099Y99992D01*
G01X83995Y99888D01*
G01X83941Y99783D01*
G01X83891Y99628D01*
G01X83891Y99369D01*
G01X83941Y99212D01*
G01X83995Y99108D01*
G01X84099Y99004D01*
G01X84203Y98953D01*
G01X84411Y98953D01*
G01X84513Y99004D01*
G01X84617Y99108D01*
G01X84670Y99212D01*
G01X84670Y99369D01*
G01X84411Y99369D02*
G01X84670Y99369D01*
G01X85013Y100042D02*
G01X85013Y98953D01*
G01X85013Y100042D02*
G01X85740Y98953D01*
G01X85740Y100042D02*
G01X85740Y98953D01*
G01X86083Y100042D02*
G01X86083Y98953D01*
G01X86083Y100042D02*
G01X86446Y100042D01*
G01X86603Y99992D01*
G01X86707Y99888D01*
G01X86758Y99783D01*
G01X86812Y99628D01*
G01X86812Y99369D01*
G01X86758Y99212D01*
G01X86707Y99108D01*
G01X86603Y99004D01*
G01X86446Y98953D01*
G01X86083Y98953D01*
G01X85618Y39839D02*
G01X85722Y39893D01*
G01X85826Y39997D01*
G01X85877Y40098D01*
G01X85877Y40307D01*
G01X85826Y40411D01*
G01X85722Y40515D01*
G01X85618Y40568D01*
G01X85463Y40619D01*
G01X85204Y40619D01*
G01X85046Y40568D01*
G01X84942Y40515D01*
G01X84838Y40411D01*
G01X84787Y40307D01*
G01X84787Y40098D01*
G01X84838Y39997D01*
G01X84942Y39893D01*
G01X85046Y39839D01*
G01X85204Y39839D01*
G01X85204Y40098D02*
G01X85204Y39839D01*
G01X85877Y39496D02*
G01X84787Y39496D01*
G01X85877Y39496D02*
G01X84787Y38770D01*
G01X85877Y38770D02*
G01X84787Y38770D01*
G01X85877Y38427D02*
G01X84787Y38427D01*
G01X85877Y38427D02*
G01X85877Y38064D01*
G01X85826Y37906D01*
G01X85722Y37802D01*
G01X85618Y37751D01*
G01X85463Y37698D01*
G01X85204Y37698D01*
G01X85046Y37751D01*
G01X84942Y37802D01*
G01X84838Y37906D01*
G01X84787Y38064D01*
G01X84787Y38427D01*
G01X84424Y37355D02*
G01X84424Y36421D01*
G01X84424Y36078D02*
G01X84424Y35143D01*
G01X85877Y34800D02*
G01X84787Y34800D01*
G01X85877Y34800D02*
G01X84787Y34074D01*
G01X85877Y34074D02*
G01X84787Y34074D01*
G01X85877Y33418D02*
G01X85826Y33522D01*
G01X85722Y33627D01*
G01X85618Y33677D01*
G01X85463Y33731D01*
G01X85204Y33731D01*
G01X85046Y33677D01*
G01X84942Y33627D01*
G01X84838Y33522D01*
G01X84787Y33418D01*
G01X84787Y33210D01*
G01X84838Y33106D01*
G01X84942Y33002D01*
G01X85046Y32951D01*
G01X85204Y32898D01*
G01X85463Y32898D01*
G01X85618Y32951D01*
G01X85722Y33002D01*
G01X85826Y33106D01*
G01X85877Y33210D01*
G01X85877Y33418D01*
G01X53494Y31094D02*
G01X53390Y31043D01*
G01X53286Y30939D01*
G01X53233Y30835D01*
G01X53182Y30680D01*
G01X53182Y30421D01*
G01X53233Y30264D01*
G01X53286Y30159D01*
G01X53390Y30055D01*
G01X53494Y30005D01*
G01X53703Y30005D01*
G01X53804Y30055D01*
G01X53908Y30159D01*
G01X53962Y30264D01*
G01X54013Y30421D01*
G01X54013Y30680D01*
G01X53962Y30835D01*
G01X53908Y30939D01*
G01X53804Y31043D01*
G01X53703Y31094D01*
G01X53494Y31094D01*
G01X53649Y30213D02*
G01X53962Y29900D01*
G01X54980Y31094D02*
G01X54460Y31094D01*
G01X54409Y30627D01*
G01X54460Y30680D01*
G01X54617Y30731D01*
G01X54772Y30731D01*
G01X54927Y30680D01*
G01X55031Y30576D01*
G01X55084Y30421D01*
G01X55084Y30317D01*
G01X55031Y30159D01*
G01X54927Y30055D01*
G01X54772Y30005D01*
G01X54617Y30005D01*
G01X54460Y30055D01*
G01X54409Y30109D01*
G01X54356Y30213D01*
G01X55427Y29641D02*
G01X56362Y29641D01*
G01X56705Y31094D02*
G01X56705Y30005D01*
G01X57048Y31094D02*
G01X57048Y30005D01*
G01X57048Y31094D02*
G01X57515Y31094D01*
G01X57670Y31043D01*
G01X57724Y30993D01*
G01X57774Y30888D01*
G01X57774Y30784D01*
G01X57724Y30680D01*
G01X57670Y30627D01*
G01X57515Y30576D01*
G01X57048Y30576D01*
G01X57411Y30576D02*
G01X57774Y30005D01*
G01X58117Y31094D02*
G01X58117Y30005D01*
G01X58117Y31094D02*
G01X58793Y31094D01*
G01X58117Y30576D02*
G01X58534Y30576D01*
G01X59862Y31094D02*
G01X59136Y30005D01*
G01X59136Y31094D02*
G01X59862Y31094D01*
G01X59136Y30005D02*
G01X59862Y30005D01*
G01X60726Y31094D02*
G01X60205Y30368D01*
G01X60985Y30368D01*
G01X60726Y31094D02*
G01X60726Y30005D01*
G01X61849Y31094D02*
G01X61328Y30368D01*
G01X62108Y30368D01*
G01X61849Y31094D02*
G01X61849Y30005D01*
G01X62450Y31094D02*
G01X62450Y30005D01*
G01X62450Y31094D02*
G01X63177Y30005D01*
G01X63177Y31094D02*
G01X63177Y30005D01*
G01X73941Y18775D02*
G01X73837Y18724D01*
G01X73733Y18620D01*
G01X73680Y18516D01*
G01X73629Y18361D01*
G01X73629Y18102D01*
G01X73680Y17945D01*
G01X73733Y17840D01*
G01X73837Y17736D01*
G01X73941Y17686D01*
G01X74150Y17686D01*
G01X74251Y17736D01*
G01X74355Y17840D01*
G01X74409Y17945D01*
G01X74460Y18102D01*
G01X74460Y18361D01*
G01X74409Y18516D01*
G01X74355Y18620D01*
G01X74251Y18724D01*
G01X74150Y18775D01*
G01X73941Y18775D01*
G01X74096Y17894D02*
G01X74409Y17581D01*
G01X75427Y18620D02*
G01X75374Y18724D01*
G01X75219Y18775D01*
G01X75115Y18775D01*
G01X74960Y18724D01*
G01X74856Y18569D01*
G01X74803Y18308D01*
G01X74803Y18049D01*
G01X74856Y17840D01*
G01X74960Y17736D01*
G01X75115Y17686D01*
G01X75166Y17686D01*
G01X75323Y17736D01*
G01X75427Y17840D01*
G01X75478Y17998D01*
G01X75478Y18049D01*
G01X75427Y18204D01*
G01X75323Y18308D01*
G01X75166Y18361D01*
G01X75115Y18361D01*
G01X74960Y18308D01*
G01X74856Y18204D01*
G01X74803Y18049D01*
G01X75821Y17322D02*
G01X76756Y17322D01*
G01X77099Y18775D02*
G01X77099Y17686D01*
G01X77442Y18775D02*
G01X77442Y17686D01*
G01X77442Y18775D02*
G01X77909Y18775D01*
G01X78066Y18724D01*
G01X78117Y18674D01*
G01X78171Y18569D01*
G01X78171Y18465D01*
G01X78117Y18361D01*
G01X78066Y18308D01*
G01X77909Y18257D01*
G01X77442Y18257D01*
G01X77807Y18257D02*
G01X78171Y17686D01*
G01X78513Y18775D02*
G01X78513Y17686D01*
G01X78513Y18775D02*
G01X79189Y18775D01*
G01X78513Y18257D02*
G01X78927Y18257D01*
G01X80258Y18775D02*
G01X79532Y17686D01*
G01X79532Y18775D02*
G01X80258Y18775D01*
G01X79532Y17686D02*
G01X80258Y17686D01*
G01X81122Y18775D02*
G01X80601Y18049D01*
G01X81381Y18049D01*
G01X81122Y18775D02*
G01X81122Y17686D01*
G01X82242Y18775D02*
G01X81724Y18049D01*
G01X82504Y18049D01*
G01X82242Y18775D02*
G01X82242Y17686D01*
G01X82847Y18775D02*
G01X82847Y17686D01*
G01X82847Y18775D02*
G01X83573Y17686D01*
G01X83573Y18775D02*
G01X83573Y17686D01*
G01X10764Y52451D02*
G01X10815Y52346D01*
G01X10919Y52242D01*
G01X11023Y52189D01*
G01X11178Y52138D01*
G01X11437Y52138D01*
G01X11595Y52189D01*
G01X11699Y52242D01*
G01X11803Y52346D01*
G01X11854Y52451D01*
G01X11854Y52659D01*
G01X11803Y52760D01*
G01X11699Y52865D01*
G01X11595Y52918D01*
G01X11437Y52969D01*
G01X11178Y52969D01*
G01X11023Y52918D01*
G01X10919Y52865D01*
G01X10815Y52760D01*
G01X10764Y52659D01*
G01X10764Y52451D01*
G01X11645Y52605D02*
G01X11958Y52918D01*
G01X10970Y53312D02*
G01X10919Y53416D01*
G01X10764Y53573D01*
G01X11854Y53573D01*
G01X12217Y53916D02*
G01X12217Y54851D01*
G01X10764Y55194D02*
G01X11854Y55194D01*
G01X10764Y55537D02*
G01X11854Y55537D01*
G01X10764Y55537D02*
G01X10764Y56004D01*
G01X10815Y56159D01*
G01X10866Y56212D01*
G01X10970Y56263D01*
G01X11074Y56263D01*
G01X11178Y56212D01*
G01X11231Y56159D01*
G01X11282Y56004D01*
G01X11282Y55537D01*
G01X11282Y55900D02*
G01X11854Y56263D01*
G01X10764Y56606D02*
G01X11854Y56606D01*
G01X10764Y56606D02*
G01X10764Y57282D01*
G01X11282Y56606D02*
G01X11282Y57023D01*
G01X10764Y58351D02*
G01X11854Y57625D01*
G01X10764Y57625D02*
G01X10764Y58351D01*
G01X11854Y57625D02*
G01X11854Y58351D01*
G01X10764Y59215D02*
G01X11490Y58694D01*
G01X11490Y59474D01*
G01X10764Y59215D02*
G01X11854Y59215D01*
G01X10764Y60337D02*
G01X11490Y59817D01*
G01X11490Y60596D01*
G01X10764Y60337D02*
G01X11854Y60337D01*
G01X10764Y60939D02*
G01X11854Y60939D01*
G01X10764Y60939D02*
G01X11854Y61666D01*
G01X10764Y61666D02*
G01X11854Y61666D01*
G01X88234Y11381D02*
G01X89324Y11381D01*
G01X88234Y11381D02*
G01X88234Y11849D01*
G01X88285Y12004D01*
G01X88336Y12057D01*
G01X88440Y12108D01*
G01X88544Y12108D01*
G01X88648Y12057D01*
G01X88701Y12004D01*
G01X88752Y11849D01*
G01X88752Y11381D01*
G01X88752Y11744D02*
G01X89324Y12108D01*
G01X88234Y12971D02*
G01X88960Y12451D01*
G01X88960Y13230D01*
G01X88234Y12971D02*
G01X89324Y12971D01*
G01X89687Y13573D02*
G01X89687Y14508D01*
G01X88440Y14851D02*
G01X88389Y14955D01*
G01X88234Y15112D01*
G01X89324Y15112D01*
G01X88234Y15765D02*
G01X88285Y15610D01*
G01X88440Y15506D01*
G01X88701Y15455D01*
G01X88856Y15455D01*
G01X89115Y15506D01*
G01X89273Y15610D01*
G01X89324Y15765D01*
G01X89324Y15869D01*
G01X89273Y16027D01*
G01X89115Y16131D01*
G01X88856Y16182D01*
G01X88701Y16182D01*
G01X88440Y16131D01*
G01X88285Y16027D01*
G01X88234Y15869D01*
G01X88234Y15765D01*
G01X88234Y16525D02*
G01X89324Y16525D01*
G01X88234Y17251D02*
G01X88960Y16525D01*
G01X88701Y16784D02*
G01X89324Y17251D01*
G01X65120Y31244D02*
G01X66210Y31244D01*
G01X65120Y31244D02*
G01X65120Y31711D01*
G01X65171Y31866D01*
G01X65222Y31920D01*
G01X65326Y31970D01*
G01X65430Y31970D01*
G01X65534Y31920D01*
G01X65587Y31866D01*
G01X65638Y31711D01*
G01X65638Y31244D01*
G01X65638Y31607D02*
G01X66210Y31970D01*
G01X65120Y32938D02*
G01X65120Y32418D01*
G01X65587Y32367D01*
G01X65534Y32418D01*
G01X65483Y32575D01*
G01X65483Y32730D01*
G01X65534Y32885D01*
G01X65638Y32989D01*
G01X65793Y33042D01*
G01X65897Y33042D01*
G01X66055Y32989D01*
G01X66159Y32885D01*
G01X66210Y32730D01*
G01X66210Y32575D01*
G01X66159Y32418D01*
G01X66106Y32367D01*
G01X66001Y32313D01*
G01X66573Y33385D02*
G01X66573Y34320D01*
G01X65326Y34663D02*
G01X65275Y34767D01*
G01X65120Y34922D01*
G01X66210Y34922D01*
G01X65120Y35577D02*
G01X65171Y35422D01*
G01X65326Y35318D01*
G01X65587Y35265D01*
G01X65742Y35265D01*
G01X66001Y35318D01*
G01X66159Y35422D01*
G01X66210Y35577D01*
G01X66210Y35681D01*
G01X66159Y35836D01*
G01X66001Y35941D01*
G01X65742Y35994D01*
G01X65587Y35994D01*
G01X65326Y35941D01*
G01X65171Y35836D01*
G01X65120Y35681D01*
G01X65120Y35577D01*
G01X65120Y36337D02*
G01X66210Y36337D01*
G01X65120Y37063D02*
G01X65846Y36337D01*
G01X65587Y36596D02*
G01X66210Y37063D01*
G01X42387Y26395D02*
G01X43477Y26395D01*
G01X42387Y26395D02*
G01X42387Y26863D01*
G01X42438Y27018D01*
G01X42489Y27071D01*
G01X42593Y27122D01*
G01X42697Y27122D01*
G01X42801Y27071D01*
G01X42854Y27018D01*
G01X42905Y26863D01*
G01X42905Y26395D01*
G01X42905Y26758D02*
G01X43477Y27122D01*
G01X42542Y28089D02*
G01X42438Y28036D01*
G01X42387Y27881D01*
G01X42387Y27777D01*
G01X42438Y27622D01*
G01X42593Y27518D01*
G01X42854Y27465D01*
G01X43113Y27465D01*
G01X43322Y27518D01*
G01X43426Y27622D01*
G01X43477Y27777D01*
G01X43477Y27830D01*
G01X43426Y27985D01*
G01X43322Y28089D01*
G01X43164Y28140D01*
G01X43113Y28140D01*
G01X42958Y28089D01*
G01X42854Y27985D01*
G01X42801Y27830D01*
G01X42801Y27777D01*
G01X42854Y27622D01*
G01X42958Y27518D01*
G01X43113Y27465D01*
G01X43840Y28483D02*
G01X43840Y29418D01*
G01X42593Y29761D02*
G01X42542Y29865D01*
G01X42387Y30022D01*
G01X43477Y30022D01*
G01X42387Y30675D02*
G01X42438Y30520D01*
G01X42593Y30416D01*
G01X42854Y30365D01*
G01X43009Y30365D01*
G01X43268Y30416D01*
G01X43426Y30520D01*
G01X43477Y30675D01*
G01X43477Y30779D01*
G01X43426Y30937D01*
G01X43268Y31041D01*
G01X43009Y31092D01*
G01X42854Y31092D01*
G01X42593Y31041D01*
G01X42438Y30937D01*
G01X42387Y30779D01*
G01X42387Y30675D01*
G01X42387Y31435D02*
G01X43477Y31435D01*
G01X42387Y32161D02*
G01X43113Y31435D01*
G01X42854Y31694D02*
G01X43477Y32161D01*
G01X26893Y16294D02*
G01X27983Y16294D01*
G01X26893Y16294D02*
G01X26893Y16761D01*
G01X26944Y16916D01*
G01X26995Y16969D01*
G01X27099Y17020D01*
G01X27203Y17020D01*
G01X27307Y16969D01*
G01X27360Y16916D01*
G01X27411Y16761D01*
G01X27411Y16294D01*
G01X27411Y16657D02*
G01X27983Y17020D01*
G01X26893Y18092D02*
G01X27983Y17571D01*
G01X26893Y17363D02*
G01X26893Y18092D01*
G01X28346Y18435D02*
G01X28346Y19370D01*
G01X27099Y19712D02*
G01X27048Y19817D01*
G01X26893Y19972D01*
G01X27983Y19972D01*
G01X26893Y20627D02*
G01X26944Y20472D01*
G01X27099Y20368D01*
G01X27360Y20314D01*
G01X27515Y20314D01*
G01X27774Y20368D01*
G01X27932Y20472D01*
G01X27983Y20627D01*
G01X27983Y20731D01*
G01X27932Y20886D01*
G01X27774Y20990D01*
G01X27515Y21043D01*
G01X27360Y21043D01*
G01X27099Y20990D01*
G01X26944Y20886D01*
G01X26893Y20731D01*
G01X26893Y20627D01*
G01X26893Y21386D02*
G01X27983Y21386D01*
G01X26893Y22113D02*
G01X27619Y21386D01*
G01X27360Y21645D02*
G01X27983Y22113D01*
G01X10002Y28808D02*
G01X10002Y27718D01*
G01X10002Y28808D02*
G01X10469Y28808D01*
G01X10624Y28757D01*
G01X10678Y28707D01*
G01X10728Y28602D01*
G01X10728Y28498D01*
G01X10678Y28394D01*
G01X10624Y28341D01*
G01X10469Y28290D01*
G01X10002Y28290D01*
G01X10365Y28290D02*
G01X10728Y27718D01*
G01X11333Y28808D02*
G01X11176Y28757D01*
G01X11125Y28653D01*
G01X11125Y28549D01*
G01X11176Y28445D01*
G01X11280Y28394D01*
G01X11488Y28341D01*
G01X11643Y28290D01*
G01X11747Y28186D01*
G01X11800Y28082D01*
G01X11800Y27927D01*
G01X11747Y27823D01*
G01X11696Y27769D01*
G01X11539Y27718D01*
G01X11333Y27718D01*
G01X11176Y27769D01*
G01X11125Y27823D01*
G01X11071Y27927D01*
G01X11071Y28082D01*
G01X11125Y28186D01*
G01X11229Y28290D01*
G01X11384Y28341D01*
G01X11592Y28394D01*
G01X11696Y28445D01*
G01X11747Y28549D01*
G01X11747Y28653D01*
G01X11696Y28757D01*
G01X11539Y28808D01*
G01X11333Y28808D01*
G01X12143Y27355D02*
G01X13078Y27355D01*
G01X13421Y28602D02*
G01X13525Y28653D01*
G01X13680Y28808D01*
G01X13680Y27718D01*
G01X14335Y28808D02*
G01X14180Y28757D01*
G01X14076Y28602D01*
G01X14023Y28341D01*
G01X14023Y28186D01*
G01X14076Y27927D01*
G01X14180Y27769D01*
G01X14335Y27718D01*
G01X14439Y27718D01*
G01X14594Y27769D01*
G01X14699Y27927D01*
G01X14752Y28186D01*
G01X14752Y28341D01*
G01X14699Y28602D01*
G01X14594Y28757D01*
G01X14439Y28808D01*
G01X14335Y28808D01*
G01X15095Y28808D02*
G01X15095Y27718D01*
G01X15821Y28808D02*
G01X15095Y28082D01*
G01X15354Y28341D02*
G01X15821Y27718D01*
G01X10256Y47350D02*
G01X10256Y46261D01*
G01X10256Y47350D02*
G01X10723Y47350D01*
G01X10878Y47299D01*
G01X10932Y47249D01*
G01X10982Y47144D01*
G01X10982Y47040D01*
G01X10932Y46936D01*
G01X10878Y46883D01*
G01X10723Y46832D01*
G01X10256Y46832D01*
G01X10619Y46832D02*
G01X10982Y46261D01*
G01X12001Y46987D02*
G01X11950Y46832D01*
G01X11846Y46728D01*
G01X11691Y46677D01*
G01X11638Y46677D01*
G01X11483Y46728D01*
G01X11379Y46832D01*
G01X11325Y46987D01*
G01X11325Y47040D01*
G01X11379Y47195D01*
G01X11483Y47299D01*
G01X11638Y47350D01*
G01X11691Y47350D01*
G01X11846Y47299D01*
G01X11950Y47195D01*
G01X12001Y46987D01*
G01X12001Y46728D01*
G01X11950Y46469D01*
G01X11846Y46311D01*
G01X11691Y46261D01*
G01X11587Y46261D01*
G01X11430Y46311D01*
G01X11379Y46415D01*
G01X12344Y45897D02*
G01X13279Y45897D01*
G01X13622Y47144D02*
G01X13726Y47195D01*
G01X13883Y47350D01*
G01X13883Y46261D01*
G01X14536Y47350D02*
G01X14381Y47299D01*
G01X14277Y47144D01*
G01X14226Y46883D01*
G01X14226Y46728D01*
G01X14277Y46469D01*
G01X14381Y46311D01*
G01X14536Y46261D01*
G01X14640Y46261D01*
G01X14798Y46311D01*
G01X14902Y46469D01*
G01X14952Y46728D01*
G01X14952Y46883D01*
G01X14902Y47144D01*
G01X14798Y47299D01*
G01X14640Y47350D01*
G01X14536Y47350D01*
G01X15295Y47350D02*
G01X15295Y46261D01*
G01X16022Y47350D02*
G01X15295Y46624D01*
G01X15554Y46883D02*
G01X16022Y46261D01*
G01X69311Y15140D02*
G01X69415Y15191D01*
G01X69570Y15346D01*
G01X69570Y14257D01*
G01X69966Y15087D02*
G01X69966Y15140D01*
G01X70017Y15245D01*
G01X70070Y15295D01*
G01X70175Y15346D01*
G01X70380Y15346D01*
G01X70485Y15295D01*
G01X70538Y15245D01*
G01X70589Y15140D01*
G01X70589Y15036D01*
G01X70538Y14932D01*
G01X70434Y14775D01*
G01X69913Y14257D01*
G01X70642Y14257D01*
G01X70985Y15346D02*
G01X71399Y14257D01*
G01X71815Y15346D02*
G01X71399Y14257D01*
G01X7922Y93383D02*
G01X8026Y93433D01*
G01X8181Y93588D01*
G01X8181Y92499D01*
G01X8577Y93329D02*
G01X8577Y93383D01*
G01X8628Y93487D01*
G01X8681Y93538D01*
G01X8785Y93588D01*
G01X8991Y93588D01*
G01X9095Y93538D01*
G01X9149Y93487D01*
G01X9199Y93383D01*
G01X9199Y93278D01*
G01X9149Y93174D01*
G01X9044Y93017D01*
G01X8524Y92499D01*
G01X9253Y92499D01*
G01X9596Y93588D02*
G01X10010Y92499D01*
G01X10426Y93588D02*
G01X10010Y92499D01*
G01X10769Y92135D02*
G01X11704Y92135D01*
G01X12827Y93329D02*
G01X12773Y93433D01*
G01X12672Y93538D01*
G01X12567Y93588D01*
G01X12359Y93588D01*
G01X12255Y93538D01*
G01X12151Y93433D01*
G01X12100Y93329D01*
G01X12047Y93174D01*
G01X12047Y92915D01*
G01X12100Y92758D01*
G01X12151Y92654D01*
G01X12255Y92550D01*
G01X12359Y92499D01*
G01X12567Y92499D01*
G01X12672Y92550D01*
G01X12773Y92654D01*
G01X12827Y92758D01*
G01X12827Y92915D01*
G01X12567Y92915D02*
G01X12827Y92915D01*
G01X13169Y93588D02*
G01X13169Y92499D01*
G01X13169Y93588D02*
G01X13896Y92499D01*
G01X13896Y93588D02*
G01X13896Y92499D01*
G01X14239Y93588D02*
G01X14239Y92499D01*
G01X14239Y93588D02*
G01X14602Y93588D01*
G01X14759Y93538D01*
G01X14864Y93433D01*
G01X14914Y93329D01*
G01X14968Y93174D01*
G01X14968Y92915D01*
G01X14914Y92758D01*
G01X14864Y92654D01*
G01X14759Y92550D01*
G01X14602Y92499D01*
G01X14239Y92499D01*
G01X18227Y102727D02*
G01X18173Y102831D01*
G01X18069Y102936D01*
G01X17967Y102986D01*
G01X17759Y102986D01*
G01X17655Y102936D01*
G01X17551Y102831D01*
G01X17498Y102727D01*
G01X17447Y102572D01*
G01X17447Y102313D01*
G01X17498Y102156D01*
G01X17551Y102052D01*
G01X17655Y101948D01*
G01X17759Y101897D01*
G01X17967Y101897D01*
G01X18069Y101948D01*
G01X18173Y102052D01*
G01X18227Y102156D01*
G01X18569Y102781D02*
G01X18674Y102831D01*
G01X18829Y102986D01*
G01X18829Y101897D01*
G01X19171Y101533D02*
G01X20106Y101533D01*
G01X20449Y102781D02*
G01X20553Y102831D01*
G01X20711Y102986D01*
G01X20711Y101897D01*
G01X21676Y102831D02*
G01X21625Y102936D01*
G01X21468Y102986D01*
G01X21363Y102986D01*
G01X21209Y102936D01*
G01X21104Y102781D01*
G01X21054Y102519D01*
G01X21054Y102260D01*
G01X21104Y102052D01*
G01X21209Y101948D01*
G01X21363Y101897D01*
G01X21417Y101897D01*
G01X21572Y101948D01*
G01X21676Y102052D01*
G01X21727Y102209D01*
G01X21727Y102260D01*
G01X21676Y102415D01*
G01X21572Y102519D01*
G01X21417Y102572D01*
G01X21363Y102572D01*
G01X21209Y102519D01*
G01X21104Y102415D01*
G01X21054Y102260D01*
G01X22070Y102986D02*
G01X22486Y101897D01*
G01X22903Y102986D02*
G01X22486Y101897D01*
G01X23296Y102727D02*
G01X23296Y102781D01*
G01X23350Y102885D01*
G01X23401Y102936D01*
G01X23505Y102986D01*
G01X23713Y102986D01*
G01X23817Y102936D01*
G01X23868Y102885D01*
G01X23921Y102781D01*
G01X23921Y102676D01*
G01X23868Y102572D01*
G01X23764Y102415D01*
G01X23246Y101897D01*
G01X23972Y101897D01*
G01X24368Y102727D02*
G01X24368Y102781D01*
G01X24419Y102885D01*
G01X24470Y102936D01*
G01X24574Y102986D01*
G01X24782Y102986D01*
G01X24886Y102936D01*
G01X24940Y102885D01*
G01X24991Y102781D01*
G01X24991Y102676D01*
G01X24940Y102572D01*
G01X24836Y102415D01*
G01X24315Y101897D01*
G01X25041Y101897D01*
G01X25384Y102986D02*
G01X25384Y102209D01*
G01X25438Y102052D01*
G01X25542Y101948D01*
G01X25697Y101897D01*
G01X25801Y101897D01*
G01X25956Y101948D01*
G01X26060Y102052D01*
G01X26113Y102209D01*
G01X26113Y102986D01*
G01X26456Y102986D02*
G01X26456Y101897D01*
G01X26456Y102986D02*
G01X27132Y102986D01*
G01X26456Y102468D02*
G01X26870Y102468D01*
G54D19*
G01X24305Y100124D02*
G01X22644Y100124D01*
G01X23474Y100954D02*
G01X23474Y99291D01*
G54D24*
G01X27861Y101589D02*
G01X27861Y100500D01*
G01X27861Y100500D02*
G01X28486Y100500D01*
G01X28828Y101589D02*
G01X28828Y100500D01*
G01X28828Y101589D02*
G01X29242Y100500D01*
G01X29659Y101589D02*
G01X29242Y100500D01*
G01X29659Y101589D02*
G01X29659Y100500D01*
G01X30728Y101589D02*
G01X30210Y100500D01*
G01X30002Y101589D02*
G01X30728Y101589D01*
G01X31333Y101589D02*
G01X31175Y101539D01*
G01X31125Y101434D01*
G01X31125Y101330D01*
G01X31175Y101226D01*
G01X31280Y101175D01*
G01X31488Y101122D01*
G01X31643Y101071D01*
G01X31747Y100967D01*
G01X31800Y100863D01*
G01X31800Y100708D01*
G01X31747Y100604D01*
G01X31696Y100550D01*
G01X31541Y100500D01*
G01X31333Y100500D01*
G01X31175Y100550D01*
G01X31125Y100604D01*
G01X31071Y100708D01*
G01X31071Y100863D01*
G01X31125Y100967D01*
G01X31229Y101071D01*
G01X31384Y101122D01*
G01X31592Y101175D01*
G01X31696Y101226D01*
G01X31747Y101330D01*
G01X31747Y101434D01*
G01X31696Y101539D01*
G01X31541Y101589D01*
G01X31333Y101589D01*
G01X32456Y101589D02*
G01X32298Y101539D01*
G01X32194Y101384D01*
G01X32143Y101122D01*
G01X32143Y100967D01*
G01X32194Y100708D01*
G01X32298Y100550D01*
G01X32456Y100500D01*
G01X32557Y100500D01*
G01X32715Y100550D01*
G01X32819Y100708D01*
G01X32870Y100967D01*
G01X32870Y101122D01*
G01X32819Y101384D01*
G01X32715Y101539D01*
G01X32557Y101589D01*
G01X32456Y101589D01*
G01X33837Y101589D02*
G01X33317Y101589D01*
G01X33266Y101122D01*
G01X33317Y101175D01*
G01X33472Y101226D01*
G01X33629Y101226D01*
G01X33784Y101175D01*
G01X33888Y101071D01*
G01X33941Y100916D01*
G01X33941Y100812D01*
G01X33888Y100655D01*
G01X33784Y100550D01*
G01X33629Y100500D01*
G01X33472Y100500D01*
G01X33317Y100550D01*
G01X33266Y100604D01*
G01X33212Y100708D01*
G01X35626Y103032D02*
G01X35572Y103136D01*
G01X35468Y103240D01*
G01X35366Y103291D01*
G01X35158Y103291D01*
G01X35054Y103240D01*
G01X34950Y103136D01*
G01X34897Y103032D01*
G01X34846Y102877D01*
G01X34846Y102618D01*
G01X34897Y102461D01*
G01X34950Y102356D01*
G01X35054Y102252D01*
G01X35158Y102201D01*
G01X35366Y102201D01*
G01X35468Y102252D01*
G01X35572Y102356D01*
G01X35626Y102461D01*
G01X36019Y103032D02*
G01X36019Y103085D01*
G01X36073Y103190D01*
G01X36123Y103240D01*
G01X36228Y103291D01*
G01X36436Y103291D01*
G01X36540Y103240D01*
G01X36591Y103190D01*
G01X36644Y103085D01*
G01X36644Y102981D01*
G01X36591Y102877D01*
G01X36487Y102720D01*
G01X35968Y102201D01*
G01X36695Y102201D01*
G01X37038Y101838D02*
G01X37973Y101838D01*
G01X38315Y103085D02*
G01X38420Y103136D01*
G01X38577Y103291D01*
G01X38577Y102201D01*
G01X39542Y103136D02*
G01X39491Y103240D01*
G01X39334Y103291D01*
G01X39230Y103291D01*
G01X39075Y103240D01*
G01X38971Y103085D01*
G01X38920Y102824D01*
G01X38920Y102565D01*
G01X38971Y102356D01*
G01X39075Y102252D01*
G01X39230Y102201D01*
G01X39283Y102201D01*
G01X39438Y102252D01*
G01X39542Y102356D01*
G01X39596Y102514D01*
G01X39596Y102565D01*
G01X39542Y102720D01*
G01X39438Y102824D01*
G01X39283Y102877D01*
G01X39230Y102877D01*
G01X39075Y102824D01*
G01X38971Y102720D01*
G01X38920Y102565D01*
G01X39938Y103291D02*
G01X40352Y102201D01*
G01X40769Y103291D02*
G01X40352Y102201D01*
G01X41163Y103032D02*
G01X41163Y103085D01*
G01X41216Y103190D01*
G01X41267Y103240D01*
G01X41371Y103291D01*
G01X41579Y103291D01*
G01X41683Y103240D01*
G01X41734Y103190D01*
G01X41788Y103085D01*
G01X41788Y102981D01*
G01X41734Y102877D01*
G01X41630Y102720D01*
G01X41112Y102201D01*
G01X41838Y102201D01*
G01X42235Y103032D02*
G01X42235Y103085D01*
G01X42285Y103190D01*
G01X42339Y103240D01*
G01X42440Y103291D01*
G01X42649Y103291D01*
G01X42753Y103240D01*
G01X42806Y103190D01*
G01X42857Y103085D01*
G01X42857Y102981D01*
G01X42806Y102877D01*
G01X42702Y102720D01*
G01X42181Y102201D01*
G01X42910Y102201D01*
G01X43253Y103291D02*
G01X43253Y102514D01*
G01X43304Y102356D01*
G01X43408Y102252D01*
G01X43563Y102201D01*
G01X43667Y102201D01*
G01X43825Y102252D01*
G01X43926Y102356D01*
G01X43980Y102514D01*
G01X43980Y103291D01*
G01X44323Y103291D02*
G01X44323Y102201D01*
G01X44323Y103291D02*
G01X44998Y103291D01*
G01X44323Y102773D02*
G01X44739Y102773D01*
G54D19*
G01X43990Y100378D02*
G01X42329Y100378D01*
G01X43159Y101208D02*
G01X43159Y99545D01*
G54D24*
G01X9883Y84190D02*
G01X8793Y84190D01*
G01X9883Y84190D02*
G01X9883Y83723D01*
G01X9832Y83568D01*
G01X9781Y83515D01*
G01X9677Y83464D01*
G01X9573Y83464D01*
G01X9469Y83515D01*
G01X9415Y83568D01*
G01X9364Y83723D01*
G01X9364Y84190D02*
G01X9364Y83723D01*
G01X9311Y83568D01*
G01X9260Y83515D01*
G01X9156Y83464D01*
G01X9001Y83464D01*
G01X8897Y83515D01*
G01X8844Y83568D01*
G01X8793Y83723D01*
G01X8793Y84190D01*
G01X9883Y83121D02*
G01X8793Y83121D01*
G01X9883Y83121D02*
G01X8793Y82392D01*
G01X9883Y82392D02*
G01X8793Y82392D01*
G01X9624Y81269D02*
G01X9728Y81323D01*
G01X9832Y81427D01*
G01X9883Y81531D01*
G01X9883Y81739D01*
G01X9832Y81841D01*
G01X9728Y81945D01*
G01X9624Y81998D01*
G01X9469Y82049D01*
G01X9210Y82049D01*
G01X9052Y81998D01*
G01X8948Y81945D01*
G01X8844Y81841D01*
G01X8793Y81739D01*
G01X8793Y81531D01*
G01X8844Y81427D01*
G01X8948Y81323D01*
G01X9052Y81269D01*
G01X9210Y81269D01*
G01X9210Y81531D02*
G01X9210Y81269D01*
G01X8430Y80926D02*
G01X8430Y79992D01*
G01X9883Y79649D02*
G01X8793Y79649D01*
G01X8793Y79649D02*
G01X8793Y79027D01*
G01X9677Y78684D02*
G01X9728Y78579D01*
G01X9883Y78425D01*
G01X8793Y78425D01*
G01X8430Y78082D02*
G01X8430Y77144D01*
G01X9883Y76801D02*
G01X8793Y76801D01*
G01X8793Y76801D02*
G01X8793Y76179D01*
G01X9624Y75783D02*
G01X9677Y75783D01*
G01X9781Y75732D01*
G01X9832Y75681D01*
G01X9883Y75577D01*
G01X9883Y75369D01*
G01X9832Y75265D01*
G01X9781Y75211D01*
G01X9677Y75161D01*
G01X9573Y75161D01*
G01X9469Y75211D01*
G01X9311Y75316D01*
G01X8793Y75836D01*
G01X8793Y75110D01*
G01X8430Y74767D02*
G01X8430Y73830D01*
G01X9883Y73487D02*
G01X8793Y73487D01*
G01X9883Y73487D02*
G01X9883Y73019D01*
G01X9832Y72864D01*
G01X9781Y72811D01*
G01X9677Y72760D01*
G01X9573Y72760D01*
G01X9469Y72811D01*
G01X9415Y72864D01*
G01X9364Y73019D01*
G01X9364Y73487D02*
G01X9364Y73019D01*
G01X9311Y72864D01*
G01X9260Y72811D01*
G01X9156Y72760D01*
G01X9001Y72760D01*
G01X8897Y72811D01*
G01X8844Y72864D01*
G01X8793Y73019D01*
G01X8793Y73487D01*
G01X9883Y71691D02*
G01X8793Y72417D01*
G01X9883Y72417D02*
G01X9883Y71691D01*
G01X8793Y72417D02*
G01X8793Y71691D01*
G54D18*
G75*
G01X36927Y59133D02*
G02X36037Y60813I1142J1680D01*
G01*
G75*
G01X36038Y67671D02*
G02X36927Y69351I2032J0D01*
G01*
G75*
G01X39340Y67671D02*
G03X39213Y68224I-1270J0D01*
G01*
G75*
G01X36800Y67671D02*
G02X36927Y68224I1270J0D01*
G01*
G75*
G01X40102Y67671D02*
G03X39212Y69351I-2032J0D01*
G01*
G75*
G01X39213Y59133D02*
G03X40102Y60813I-1143J1680D01*
G01*
G75*
G01X39213Y60259D02*
G03X39340Y60813I-1143J554D01*
G01*
G75*
G01X36927Y60259D02*
G02X36800Y60813I1143J554D01*
G01*
G75*
G01X39213Y68224D02*
G03X36927Y68224I-1143J-553D01*
G01*
G75*
G01X39213Y69351D02*
G03X36927Y69351I-1143J-1680D01*
G01*
G75*
G01X39213Y60259D02*
G02X36927Y60259I-1143J554D01*
G01*
G75*
G01X39213Y59133D02*
G02X36927Y59133I-1143J1680D01*
G01*
G54D21*
G75*
G01X55850Y83020D02*
G03X55855Y83020I2J-300D01*
G01*
G54D18*
G75*
G01X56866Y83721D02*
G03X58136Y83721I635J0D01*
G01*
G54D22*
G75*
G01X53701Y83960D02*
G03X53703Y83960I1J-150D01*
G01*
G54D23*
G75*
G01X18131Y35032D02*
G03X18131Y35037I200J2D01*
G01*
G75*
G01X20544Y24999D02*
G03X20538Y24999I-3J200D01*
G01*
G75*
G01X40610Y37318D02*
G03X40604Y37318I-3J200D01*
G01*
G75*
G01X60930Y37318D02*
G03X60924Y37318I-3J200D01*
G01*
G75*
G01X81123Y24999D02*
G03X81117Y24999I-3J200D01*
G01*
G75*
G01X18131Y54463D02*
G03X18131Y54468I200J2D01*
G01*
G75*
G01X28496Y94351D02*
G03X28501Y94351I3J-200D01*
G01*
G54D18*
G75*
G01X49119Y94341D02*
G03X49119Y94341I-2032J0D01*
G01*
G75*
G01X54199Y94341D02*
G03X54199Y94341I-2032J0D01*
G01*
G75*
G01X59279Y94341D02*
G03X59279Y94341I-2032J0D01*
G01*
G75*
G01X82139Y70084D02*
G03X82139Y70084I-2032J0D01*
G01*
G75*
G01X82139Y75164D02*
G03X82139Y75164I-2032J0D01*
G01*
G75*
G01X82139Y80244D02*
G03X82139Y80244I-2032J0D01*
G01*
G75*
G01X82139Y49510D02*
G03X82139Y49510I-2032J0D01*
G01*
G75*
G01X82139Y54590D02*
G03X82139Y54590I-2032J0D01*
G01*
G75*
G01X82139Y59670D02*
G03X82139Y59670I-2032J0D01*
G01*
G75*
G01X49246Y10013D02*
G03X49246Y10013I-2032J0D01*
G01*
G75*
G01X44166Y10013D02*
G03X44166Y10013I-2032J0D01*
G01*
G75*
G01X39086Y10013D02*
G03X39086Y10013I-2032J0D01*
G01*
G75*
G01X64613Y10013D02*
G03X64613Y10013I-2032J0D01*
G01*
G75*
G01X59533Y10013D02*
G03X59533Y10013I-2032J0D01*
G01*
G75*
G01X54453Y10013D02*
G03X54453Y10013I-2032J0D01*
G01*
G75*
G01X71979Y94341D02*
G03X71979Y94341I-2032J0D01*
G01*
G75*
G01X77059Y94341D02*
G03X77059Y94341I-2032J0D01*
G01*
G75*
G01X82266Y94341D02*
G03X82266Y94341I-2032J0D01*
G01*
G75*
G01X87346Y94341D02*
G03X87346Y94341I-2032J0D01*
G01*
G75*
G01X81885Y34397D02*
G03X81885Y34397I-2032J0D01*
G01*
G75*
G01X81885Y39477D02*
G03X81885Y39477I-2032J0D01*
G01*
G75*
G01X75154Y9632D02*
G03X75154Y9632I-2032J0D01*
G01*
G75*
G01X70074Y9632D02*
G03X70074Y9632I-2032J0D01*
G01*
G75*
G01X11097Y97907D02*
G03X11097Y97907I-2032J0D01*
G01*
G75*
G01X16177Y97907D02*
G03X16177Y97907I-2032J0D01*
G01*
G75*
G01X24051Y96891D02*
G03X24051Y96891I-3302J0D01*
G01*
G75*
G01X43736Y97145D02*
G03X43736Y97145I-3302J0D01*
G01*
M00*
M02*
