;Layer: Drill PTH
;EasyEDA v6.3.43, 2020-05-25T08:10:49+01:00
;809d050b7b404b088306c213adac8bc8,fe6cc42eb16a44418a09de5ec01cb9e8,10
;Gerber Generator version 0.2
M48
METRIC,LZ,000.000
;Holesize 1 = 0.901 METRIC
T01C0.901
;Holesize 2 = 1.200 METRIC
T02C1.200
;Holesize 3 = 2.000 METRIC
T03C2.000
%
G05
G90
T01
X+072740Y+032618
X+072740Y+040238
X+072740Y+046969
X+072740Y+054589
X+072740Y+067543
X+072740Y+075163
X+028544Y+061701
X+031592Y+061701
X+028290Y+066654
X+031338Y+066654
X+038069Y+061803
X+038069Y+066680
X+061310Y+049509
X+061310Y+052049
X+061310Y+054589
X+061310Y+057129
X+061310Y+059669
X+061310Y+062209
X+061310Y+064749
X+061310Y+067289
X+061310Y+069829
X+061310Y+072369
X+061310Y+074909
X+061310Y+077449
X+061310Y+079989
X+061310Y+082529
X+053690Y+049509
X+053690Y+052049
X+053690Y+054589
X+053690Y+057129
X+053690Y+059669
X+053690Y+062209
X+053690Y+064749
X+053690Y+067289
X+053690Y+069829
X+053690Y+072369
X+053690Y+074909
X+053690Y+077449
X+053690Y+079989
X+053690Y+082529
X+015590Y+035031
X+015590Y+040111
X+015590Y+037571
X+020543Y+022458
X+015463Y+022458
X+018003Y+022458
X+040609Y+034777
X+035529Y+034777
X+038069Y+034777
X+060929Y+034777
X+055849Y+034777
X+058389Y+034777
X+081122Y+022458
X+076042Y+022458
X+078582Y+022458
X+015590Y+054462
X+015590Y+059542
X+015590Y+057002
X+086837Y+018013
X+086837Y+010393
X+065628Y+029824
X+065628Y+022204
X+045181Y+032618
X+045181Y+024998
X+025369Y+014838
X+025369Y+022458
X+008986Y+030078
X+016606Y+030078
X+009113Y+048874
X+016733Y+048874
X+020749Y+094858
X+020749Y+098922
X+028496Y+096890
X+033576Y+096890
X+031036Y+096890
X+040434Y+099176
X+040434Y+095112
X+012113Y+074792
X+012113Y+077332
X+012113Y+079872
X+012113Y+082412
T02
X+062834Y+086720
X+052420Y+086720
X+077312Y+026649
X+085313Y+026649
X+051023Y+040873
X+042768Y+040873
X+025623Y+026395
X+016733Y+026522
X+029687Y+045445
X+037434Y+040873
X+021559Y+051033
X+021559Y+058145
X+047086Y+094340
X+052166Y+094340
X+057246Y+094340
X+080106Y+070083
X+080106Y+075163
X+080106Y+080243
X+080106Y+049509
X+080106Y+054589
X+080106Y+059669
X+047213Y+010012
X+042133Y+010012
X+037053Y+010012
X+062580Y+010012
X+057500Y+010012
X+052420Y+010012
X+069946Y+094340
X+075026Y+094340
X+080233Y+094340
X+085313Y+094340
X+079852Y+034396
X+079852Y+039476
X+073121Y+009631
X+068041Y+009631
X+014145Y+097906
X+009065Y+097906
T03
X+003477Y+003545
X+003477Y+100827
X+089710Y+100700
X+089583Y+003672
M30
